Jost-800-HeavyItalic.ufo
<glyph name="exclam" format="1">
  <advance width="337"/>
  <unicode hex="0021"/>
  <outline>
    <contour>
      <point x="250" y="700" type="line"/>
      <point x="459" y="700" type="line"/>
      <point x="270" y="242" type="line"/>
      <point x="125" y="242" type="line"/>
    </contour>
    <contour>
      <point x="33" y="70" type="curve" smooth="yes"/>
      <point x="33" y="128"/>
      <point x="77" y="166"/>
      <point x="141" y="166" type="curve" smooth="yes"/>
      <point x="205" y="166"/>
      <point x="249" y="128"/>
      <point x="249" y="70" type="curve" smooth="yes"/>
      <point x="249" y="12"/>
      <point x="205" y="-28"/>
      <point x="141" y="-28" type="curve" smooth="yes"/>
      <point x="77" y="-28"/>
      <point x="33" y="12"/>
    </contour>
  </outline>
</glyph>
<glyph name="quotedbl" format="1">
  <advance width="503"/>
  <unicode hex="0022"/>
  <outline>
    <contour>
      <point x="268" y="700" type="line"/>
      <point x="451" y="699" type="line"/>
      <point x="245" y="376" type="line"/>
      <point x="128" y="375" type="line"/>
    </contour>
    <contour>
      <point x="478" y="700" type="line"/>
      <point x="660" y="699" type="line"/>
      <point x="453" y="376" type="line"/>
      <point x="337" y="375" type="line"/>
    </contour>
  </outline>
</glyph>
<glyph name="numbersign" format="1">
  <advance width="648"/>
  <unicode hex="0023"/>
  <outline>
    <contour>
      <point x="156" y="403" type="line"/>
      <point x="200" y="543" type="line"/>
      <point x="750" y="543" type="line"/>
      <point x="702" y="402" type="line"/>
      <point x="558" y="402" type="line"/>
      <point x="529" y="410" type="line"/>
      <point x="333" y="410" type="line"/>
      <point x="301" y="402" type="line"/>
    </contour>
    <contour>
      <point x="30" y="162" type="line"/>
      <point x="80" y="303" type="line"/>
      <point x="207" y="303" type="line"/>
      <point x="240" y="295" type="line"/>
      <point x="466" y="295" type="line"/>
      <point x="500" y="303" type="line"/>
      <point x="631" y="303" type="line"/>
      <point x="582" y="162" type="line"/>
    </contour>
    <contour>
      <point x="628" y="699" type="line"/>
      <point x="786" y="699" type="line"/>
      <point x="385" y="0" type="line"/>
      <point x="231" y="0" type="line"/>
      <point x="359" y="223" type="line"/>
      <point x="383" y="250" type="line"/>
      <point x="499" y="454" type="line"/>
      <point x="511" y="491" type="line"/>
    </contour>
    <contour>
      <point x="394" y="700" type="line"/>
      <point x="548" y="699" type="line"/>
      <point x="427" y="490" type="line"/>
      <point x="398" y="452" type="line"/>
      <point x="284" y="253" type="line"/>
      <point x="276" y="225" type="line"/>
      <point x="147" y="0" type="line"/>
      <point x="-5" y="0" type="line"/>
    </contour>
  </outline>
</glyph>
<glyph name="dollar" format="1">
  <advance width="598"/>
  <unicode hex="0024"/>
  <outline>
    <contour>
      <point x="463" y="818" type="line"/>
      <point x="603" y="818" type="line"/>
      <point x="533" y="626" type="line"/>
      <point x="411" y="626" type="line"/>
    </contour>
    <contour>
      <point x="240" y="66" type="line"/>
      <point x="362" y="66" type="line"/>
      <point x="313" y="-112" type="line"/>
      <point x="175" y="-112" type="line"/>
    </contour>
    <contour>
      <point x="546" y="481" type="line"/>
      <point x="533" y="521"/>
      <point x="517" y="569"/>
      <point x="467" y="569" type="curve" smooth="yes"/>
      <point x="435" y="569"/>
      <point x="394" y="545"/>
      <point x="382" y="515" type="curve" smooth="yes"/>
      <point x="358" y="455"/>
      <point x="457" y="436"/>
      <point x="494" y="420" type="curve" smooth="yes"/>
      <point x="585" y="380"/>
      <point x="630" y="294"/>
      <point x="603" y="197" type="curve" smooth="yes"/>
      <point x="564" y="55"/>
      <point x="413" y="-12"/>
      <point x="276" y="-10" type="curve" smooth="yes"/>
      <point x="161" y="-8"/>
      <point x="76" y="60"/>
      <point x="38" y="165" type="curve"/>
      <point x="190" y="260" type="line"/>
      <point x="211" y="203"/>
      <point x="239" y="144"/>
      <point x="309" y="145" type="curve" smooth="yes"/>
      <point x="344" y="145"/>
      <point x="389" y="163"/>
      <point x="402" y="200" type="curve" smooth="yes"/>
      <point x="420" y="252"/>
      <point x="343" y="274"/>
      <point x="309" y="290" type="curve" smooth="yes"/>
      <point x="220" y="333"/>
      <point x="157" y="414"/>
      <point x="185" y="516" type="curve" smooth="yes"/>
      <point x="219" y="641"/>
      <point x="364" y="709"/>
      <point x="485" y="710" type="curve" smooth="yes"/>
      <point x="592" y="711"/>
      <point x="665" y="658"/>
      <point x="707" y="561" type="curve"/>
    </contour>
  </outline>
</glyph>
<glyph name="percent" format="1">
  <advance width="970"/>
  <unicode hex="0025"/>
  <outline>
    <contour>
      <point x="111" y="530" type="curve" smooth="yes"/>
      <point x="130" y="636"/>
      <point x="233" y="722"/>
      <point x="345" y="722" type="curve" smooth="yes"/>
      <point x="457" y="722"/>
      <point x="528" y="636"/>
      <point x="509" y="530" type="curve" smooth="yes"/>
      <point x="490" y="424"/>
      <point x="390" y="338"/>
      <point x="278" y="338" type="curve" smooth="yes"/>
      <point x="166" y="338"/>
      <point x="92" y="424"/>
    </contour>
    <contour>
      <point x="253" y="530" type="curve" smooth="yes"/>
      <point x="247" y="498"/>
      <point x="268" y="472"/>
      <point x="301" y="472" type="curve" smooth="yes"/>
      <point x="334" y="472"/>
      <point x="362" y="498"/>
      <point x="368" y="530" type="curve" smooth="yes"/>
      <point x="374" y="562"/>
      <point x="355" y="587"/>
      <point x="322" y="587" type="curve" smooth="yes"/>
      <point x="289" y="587"/>
      <point x="259" y="562"/>
    </contour>
    <contour>
      <point x="584" y="171" type="curve" smooth="yes"/>
      <point x="603" y="277"/>
      <point x="705" y="364"/>
      <point x="817" y="364" type="curve" smooth="yes"/>
      <point x="929" y="364"/>
      <point x="1001" y="277"/>
      <point x="982" y="171" type="curve" smooth="yes"/>
      <point x="963" y="65"/>
      <point x="861" y="-22"/>
      <point x="749" y="-22" type="curve" smooth="yes"/>
      <point x="637" y="-22"/>
      <point x="565" y="65"/>
    </contour>
    <contour>
      <point x="726" y="171" type="curve" smooth="yes"/>
      <point x="720" y="139"/>
      <point x="740" y="114"/>
      <point x="773" y="114" type="curve" smooth="yes"/>
      <point x="806" y="114"/>
      <point x="834" y="139"/>
      <point x="840" y="171" type="curve" smooth="yes"/>
      <point x="846" y="203"/>
      <point x="826" y="228"/>
      <point x="793" y="228" type="curve" smooth="yes"/>
      <point x="760" y="228"/>
      <point x="732" y="203"/>
    </contour>
    <contour>
      <point x="799" y="700" type="line"/>
      <point x="981" y="700" type="line"/>
      <point x="294" y="0" type="line"/>
      <point x="113" y="0" type="line"/>
    </contour>
  </outline>
</glyph>
<glyph name="ampersand" format="1">
  <advance width="732"/>
  <unicode hex="0026"/>
  <outline>
    <contour>
      <point x="292" y="367" type="line" smooth="yes"/>
      <point x="261" y="420"/>
      <point x="234" y="477"/>
      <point x="251" y="540" type="curve" smooth="yes"/>
      <point x="280" y="651"/>
      <point x="409" y="719"/>
      <point x="517" y="719" type="curve" smooth="yes"/>
      <point x="615" y="719"/>
      <point x="703" y="648"/>
      <point x="677" y="544" type="curve" smooth="yes"/>
      <point x="651" y="439"/>
      <point x="536" y="380"/>
      <point x="448" y="335" type="curve" smooth="yes"/>
      <point x="384" y="303"/>
      <point x="266" y="284"/>
      <point x="242" y="205" type="curve" smooth="yes"/>
      <point x="229" y="162"/>
      <point x="257" y="137"/>
      <point x="297" y="133" type="curve" smooth="yes"/>
      <point x="431" y="120"/>
      <point x="556" y="263"/>
      <point x="639" y="349" type="curve"/>
      <point x="730" y="256" type="line"/>
      <point x="607" y="123"/>
      <point x="436" y="-16"/>
      <point x="245" y="-14" type="curve" smooth="yes"/>
      <point x="129" y="-13"/>
      <point x="25" y="64"/>
      <point x="59" y="190" type="curve" smooth="yes"/>
      <point x="98" y="334"/>
      <point x="252" y="371"/>
      <point x="373" y="421" type="curve" smooth="yes"/>
      <point x="418" y="440"/>
      <point x="509" y="472"/>
      <point x="520" y="528" type="curve" smooth="yes"/>
      <point x="524" y="551"/>
      <point x="513" y="580"/>
      <point x="479" y="580" type="curve" smooth="yes"/>
      <point x="449" y="580"/>
      <point x="419" y="560"/>
      <point x="409" y="526" type="curve" smooth="yes"/>
      <point x="394" y="477"/>
      <point x="430" y="428"/>
      <point x="452" y="391" type="curve" smooth="yes"/>
      <point x="680" y="0" type="line"/>
      <point x="501" y="0" type="line"/>
    </contour>
  </outline>
</glyph>
<glyph name="quotesingle" format="1">
  <advance width="295"/>
  <unicode hex="0027"/>
  <outline>
    <contour>
      <point x="268" y="700" type="line"/>
      <point x="451" y="699" type="line"/>
      <point x="245" y="376" type="line"/>
      <point x="128" y="375" type="line"/>
    </contour>
  </outline>
</glyph>
<glyph name="parenleft" format="1">
  <advance width="330"/>
  <unicode hex="0028"/>
  <outline>
    <contour>
      <point x="371" y="779" type="curve"/>
      <point x="529" y="778" type="line"/>
      <point x="426" y="626"/>
      <point x="331" y="467"/>
      <point x="275" y="290" type="curve" smooth="yes"/>
      <point x="224" y="132"/>
      <point x="206" y="-36"/>
      <point x="232" y="-201" type="curve"/>
      <point x="82" y="-201" type="line"/>
      <point x="50" y="-37"/>
      <point x="62" y="130"/>
      <point x="109" y="290" type="curve" smooth="yes"/>
      <point x="162" y="469"/>
      <point x="256" y="633"/>
    </contour>
  </outline>
</glyph>
<glyph name="parenright" format="1">
  <advance width="330"/>
  <unicode hex="0029"/>
  <outline>
    <contour>
      <point x="70" y="-199" type="curve"/>
      <point x="-87" y="-198" type="line"/>
      <point x="16" y="-46"/>
      <point x="111" y="113"/>
      <point x="167" y="290" type="curve" smooth="yes"/>
      <point x="218" y="448"/>
      <point x="236" y="616"/>
      <point x="210" y="781" type="curve"/>
      <point x="360" y="781" type="line"/>
      <point x="392" y="617"/>
      <point x="379" y="450"/>
      <point x="332" y="290" type="curve" smooth="yes"/>
      <point x="279" y="111"/>
      <point x="185" y="-53"/>
    </contour>
  </outline>
</glyph>
<glyph name="asterisk" format="1">
  <advance width="557"/>
  <unicode hex="002A"/>
  <outline>
    <contour>
      <point x="625" y="605" type="line"/>
      <point x="624" y="448" type="line"/>
      <point x="375" y="410" type="line"/>
      <point x="376" y="492" type="line"/>
    </contour>
    <contour>
      <point x="528" y="292" type="line"/>
      <point x="371" y="196" type="line"/>
      <point x="339" y="434" type="line"/>
      <point x="408" y="475" type="line"/>
    </contour>
    <contour>
      <point x="225" y="202" type="line"/>
      <point x="124" y="305" type="line"/>
      <point x="348" y="473" type="line"/>
      <point x="403" y="423" type="line"/>
    </contour>
    <contour>
      <point x="131" y="452" type="line"/>
      <point x="225" y="603" type="line"/>
      <point x="407" y="483" type="line"/>
      <point x="360" y="412" type="line"/>
    </contour>
    <contour>
      <point x="381" y="700" type="line"/>
      <point x="546" y="699" type="line"/>
      <point x="419" y="451" type="line"/>
      <point x="341" y="450" type="line"/>
    </contour>
  </outline>
</glyph>
<glyph name="plus" format="1">
  <advance width="653"/>
  <unicode hex="002B"/>
  <outline>
    <contour>
      <point x="68" y="190" type="line"/>
      <point x="127" y="358" type="line"/>
      <point x="665" y="358" type="line"/>
      <point x="606" y="190" type="line"/>
    </contour>
    <contour>
      <point x="374" y="555" type="line"/>
      <point x="552" y="555" type="line"/>
      <point x="358" y="-7" type="line"/>
      <point x="181" y="-7" type="line"/>
    </contour>
  </outline>
</glyph>
<glyph name="comma" format="1">
  <advance width="309"/>
  <unicode hex="002C"/>
  <outline>
    <contour>
      <point x="81" y="108" type="line"/>
      <point x="248" y="73" type="line"/>
      <point x="41" y="-171" type="line"/>
      <point x="-90" y="-145" type="line"/>
    </contour>
  </outline>
</glyph>
<glyph name="hyphen" format="1">
  <advance width="213"/>
  <unicode hex="002D"/>
  <outline>
    <contour>
      <point x="2" y="162" type="line"/>
      <point x="55" y="313" type="line"/>
      <point x="266" y="313" type="line"/>
      <point x="213" y="162" type="line"/>
    </contour>
  </outline>
</glyph>
<glyph name="period" format="1">
  <advance width="310"/>
  <unicode hex="002E"/>
  <outline>
    <contour>
      <point x="28" y="78" type="curve" smooth="yes"/>
      <point x="28" y="136"/>
      <point x="72" y="184"/>
      <point x="136" y="184" type="curve" smooth="yes"/>
      <point x="200" y="184"/>
      <point x="244" y="136"/>
      <point x="244" y="78" type="curve" smooth="yes"/>
      <point x="244" y="20"/>
      <point x="200" y="-28"/>
      <point x="136" y="-28" type="curve" smooth="yes"/>
      <point x="72" y="-28"/>
      <point x="28" y="20"/>
    </contour>
  </outline>
</glyph>
<glyph name="slash" format="1">
  <advance width="636"/>
  <unicode hex="002F"/>
  <outline>
    <contour>
      <point x="579" y="700" type="line"/>
      <point x="745" y="700" type="line"/>
      <point x="162" y="-150" type="line"/>
      <point x="-11" y="-150" type="line"/>
    </contour>
  </outline>
</glyph>
<glyph name="zero" format="1">
  <advance width="643"/>
  <unicode hex="0030"/>
  <outline>
    <contour>
      <point x="285" y="350" type="curve" smooth="yes"/>
      <point x="267" y="301"/>
      <point x="221" y="161"/>
      <point x="310" y="156" type="curve" smooth="yes"/>
      <point x="402" y="151"/>
      <point x="464" y="279"/>
      <point x="490" y="350" type="curve" smooth="yes"/>
      <point x="508" y="399"/>
      <point x="553" y="539"/>
      <point x="464" y="544" type="curve" smooth="yes"/>
      <point x="372" y="549"/>
      <point x="311" y="421"/>
    </contour>
    <contour>
      <point x="100" y="350" type="curve" smooth="yes"/>
      <point x="156" y="526"/>
      <point x="298" y="714"/>
      <point x="500" y="714" type="curve" smooth="yes"/>
      <point x="707" y="714"/>
      <point x="724" y="506"/>
      <point x="675" y="350" type="curve" smooth="yes"/>
      <point x="619" y="172"/>
      <point x="478" y="-15"/>
      <point x="274" y="-14" type="curve" smooth="yes"/>
      <point x="70" y="-13"/>
      <point x="51" y="195"/>
    </contour>
  </outline>
</glyph>
<glyph name="one" format="1">
  <advance width="527"/>
  <unicode hex="0031"/>
  <outline>
    <contour>
      <point x="148" y="478" type="line"/>
      <point x="178" y="644" type="line"/>
      <point x="556" y="714" type="line"/>
      <point x="430" y="0" type="line"/>
      <point x="244" y="0" type="line"/>
      <point x="336" y="520" type="line"/>
    </contour>
  </outline>
</glyph>
<glyph name="two" format="1">
  <advance width="645"/>
  <unicode hex="0032"/>
  <outline>
    <contour>
      <point x="-24" y="0" type="line"/>
      <point x="360" y="313" type="line" smooth="yes"/>
      <point x="412" y="355"/>
      <point x="489" y="404"/>
      <point x="507" y="472" type="curve" smooth="yes"/>
      <point x="517" y="509"/>
      <point x="503" y="544"/>
      <point x="462" y="546" type="curve" smooth="yes"/>
      <point x="399" y="550"/>
      <point x="361" y="483"/>
      <point x="338" y="435" type="curve"/>
      <point x="149" y="436" type="line"/>
      <point x="200" y="591"/>
      <point x="332" y="716"/>
      <point x="502" y="715" type="curve" smooth="yes"/>
      <point x="630" y="715"/>
      <point x="745" y="621"/>
      <point x="708" y="484" type="curve" smooth="yes"/>
      <point x="687" y="405"/>
      <point x="624" y="344"/>
      <point x="559" y="298" type="curve" smooth="yes"/>
      <point x="390" y="182" type="line"/>
      <point x="635" y="181" type="line"/>
      <point x="579" y="0" type="line"/>
    </contour>
  </outline>
</glyph>
<glyph name="three" format="1">
  <advance width="608"/>
  <unicode hex="0033"/>
  <outline>
    <contour>
      <point x="336" y="337" type="curve"/>
      <point x="358" y="419" type="line"/>
      <point x="406" y="427"/>
      <point x="494" y="446"/>
      <point x="506" y="505" type="curve" smooth="yes"/>
      <point x="512" y="535"/>
      <point x="494" y="557"/>
      <point x="464" y="558" type="curve" smooth="yes"/>
      <point x="416" y="561"/>
      <point x="384" y="520"/>
      <point x="362" y="484" type="curve"/>
      <point x="184" y="486" type="line"/>
      <point x="232" y="619"/>
      <point x="349" y="713"/>
      <point x="494" y="714" type="curve" smooth="yes"/>
      <point x="608" y="715"/>
      <point x="731" y="647"/>
      <point x="696" y="516" type="curve" smooth="yes"/>
      <point x="655" y="362"/>
      <point x="468" y="340"/>
    </contour>
    <contour>
      <point x="280" y="-18" type="curve" smooth="yes"/>
      <point x="130" y="-16"/>
      <point x="52" y="93"/>
      <point x="74" y="236" type="curve"/>
      <point x="259" y="235" type="line"/>
      <point x="254" y="187"/>
      <point x="258" y="142"/>
      <point x="317" y="138" type="curve" smooth="yes"/>
      <point x="364" y="135"/>
      <point x="417" y="167"/>
      <point x="432" y="213" type="curve" smooth="yes"/>
      <point x="456" y="285"/>
      <point x="376" y="295"/>
      <point x="325" y="300" type="curve"/>
      <point x="351" y="395" type="line"/>
      <point x="474" y="391"/>
      <point x="657" y="358"/>
      <point x="614" y="193" type="curve" smooth="yes"/>
      <point x="577" y="50"/>
      <point x="416" y="-20"/>
    </contour>
  </outline>
</glyph>
<glyph name="four" format="1">
  <advance width="695"/>
  <unicode hex="0034"/>
  <outline>
    <contour>
      <point x="-11" y="120" type="line"/>
      <point x="576" y="699" type="line"/>
      <point x="736" y="700" type="line"/>
      <point x="497" y="0" type="line"/>
      <point x="294" y="0" type="line"/>
      <point x="354" y="175" type="line"/>
      <point x="381" y="186" type="line"/>
      <point x="463" y="417" type="line"/>
      <point x="292" y="258" type="line"/>
      <point x="523" y="258" type="line"/>
      <point x="550" y="287" type="line"/>
      <point x="699" y="287" type="line"/>
      <point x="640" y="119" type="line"/>
    </contour>
  </outline>
</glyph>
<glyph name="five" format="1">
  <advance width="633"/>
  <unicode hex="0035"/>
  <outline>
    <contour>
      <point x="633" y="221" type="curve" smooth="yes"/>
      <point x="592" y="72"/>
      <point x="437" y="-12"/>
      <point x="290" y="-14" type="curve" smooth="yes"/>
      <point x="193" y="-15"/>
      <point x="106" y="15"/>
      <point x="27" y="59" type="curve"/>
      <point x="132" y="227" type="line"/>
      <point x="175" y="194"/>
      <point x="222" y="168"/>
      <point x="279" y="167" type="curve" smooth="yes"/>
      <point x="334" y="167"/>
      <point x="414" y="187"/>
      <point x="432" y="248" type="curve" smooth="yes"/>
      <point x="449" y="305"/>
      <point x="388" y="319"/>
      <point x="344" y="321" type="curve" smooth="yes"/>
      <point x="273" y="323"/>
      <point x="202" y="306"/>
      <point x="134" y="287" type="curve"/>
      <point x="349" y="700" type="line"/>
      <point x="764" y="700" type="line"/>
      <point x="709" y="528" type="line"/>
      <point x="443" y="529" type="line"/>
      <point x="366" y="424" type="line"/>
      <point x="405" y="439"/>
      <point x="447" y="448"/>
      <point x="489" y="447" type="curve" smooth="yes"/>
      <point x="613" y="443"/>
      <point x="663" y="331"/>
    </contour>
  </outline>
</glyph>
<glyph name="six" format="1">
  <advance width="660"/>
  <unicode hex="0036"/>
  <outline>
    <contour>
      <point x="277" y="250" type="curve" smooth="yes"/>
      <point x="260" y="202"/>
      <point x="280" y="153"/>
      <point x="335" y="151" type="curve" smooth="yes"/>
      <point x="393" y="149"/>
      <point x="453" y="199"/>
      <point x="471" y="252" type="curve" smooth="yes"/>
      <point x="488" y="299"/>
      <point x="468" y="351"/>
      <point x="413" y="353" type="curve" smooth="yes"/>
      <point x="355" y="355"/>
      <point x="295" y="303"/>
    </contour>
    <contour>
      <point x="486" y="695" type="line"/>
      <point x="742" y="695" type="line"/>
      <point x="450" y="458" type="line"/>
      <point x="394" y="437" type="line"/>
      <point x="430" y="460"/>
      <point x="467" y="478"/>
      <point x="511" y="478" type="curve" smooth="yes"/>
      <point x="634" y="478"/>
      <point x="688" y="359"/>
      <point x="660" y="251" type="curve" smooth="yes"/>
      <point x="619" y="92"/>
      <point x="463" y="-18"/>
      <point x="301" y="-18" type="curve" smooth="yes"/>
      <point x="146" y="-18"/>
      <point x="44" y="97"/>
      <point x="87" y="251" type="curve" smooth="yes"/>
      <point x="110" y="336"/>
      <point x="173" y="405"/>
      <point x="236" y="464" type="curve" smooth="yes"/>
    </contour>
  </outline>
</glyph>
<glyph name="seven" format="1">
  <advance width="592"/>
  <unicode hex="0037"/>
  <outline>
    <contour>
      <point x="148" y="515" type="line"/>
      <point x="207" y="699" type="line"/>
      <point x="781" y="699" type="line"/>
      <point x="245" y="0" type="line"/>
      <point x="28" y="0" type="line"/>
      <point x="436" y="514" type="line"/>
    </contour>
  </outline>
</glyph>
<glyph name="eight" format="1">
  <advance width="616"/>
  <unicode hex="0038"/>
  <outline>
    <contour>
      <point x="196" y="532" type="curve" smooth="yes"/>
      <point x="232" y="655"/>
      <point x="368" y="718"/>
      <point x="488" y="718" type="curve" smooth="yes"/>
      <point x="597" y="718"/>
      <point x="711" y="654"/>
      <point x="675" y="530" type="curve" smooth="yes"/>
      <point x="640" y="407"/>
      <point x="501" y="338"/>
      <point x="381" y="338" type="curve" smooth="yes"/>
      <point x="271" y="338"/>
      <point x="161" y="410"/>
    </contour>
    <contour>
      <point x="368" y="511" type="curve" smooth="yes"/>
      <point x="359" y="483"/>
      <point x="365" y="445"/>
      <point x="399" y="445" type="curve" smooth="yes"/>
      <point x="443" y="445"/>
      <point x="480" y="482"/>
      <point x="491" y="514" type="curve" smooth="yes"/>
      <point x="501" y="542"/>
      <point x="493" y="579"/>
      <point x="459" y="579" type="curve" smooth="yes"/>
      <point x="414" y="579"/>
      <point x="379" y="543"/>
    </contour>
    <contour>
      <point x="56" y="191" type="curve" smooth="yes"/>
      <point x="95" y="326"/>
      <point x="247" y="398"/>
      <point x="379" y="398" type="curve" smooth="yes"/>
      <point x="498" y="398"/>
      <point x="622" y="324"/>
      <point x="583" y="189" type="curve" smooth="yes"/>
      <point x="544" y="55"/>
      <point x="390" y="-18"/>
      <point x="259" y="-18" type="curve" smooth="yes"/>
      <point x="140" y="-18"/>
      <point x="17" y="57"/>
    </contour>
    <contour>
      <point x="257" y="219" type="curve" smooth="yes"/>
      <point x="244" y="185"/>
      <point x="253" y="142"/>
      <point x="295" y="142" type="curve" smooth="yes"/>
      <point x="347" y="142"/>
      <point x="390" y="183"/>
      <point x="404" y="223" type="curve" smooth="yes"/>
      <point x="415" y="256"/>
      <point x="402" y="296"/>
      <point x="363" y="296" type="curve" smooth="yes"/>
      <point x="313" y="296"/>
      <point x="272" y="256"/>
    </contour>
  </outline>
</glyph>
<glyph name="nine" format="1">
  <advance width="660"/>
  <unicode hex="0039"/>
  <outline>
    <contour>
      <point x="532" y="450" type="curve" smooth="yes"/>
      <point x="548" y="498"/>
      <point x="528" y="547"/>
      <point x="473" y="549" type="curve" smooth="yes"/>
      <point x="415" y="551"/>
      <point x="356" y="501"/>
      <point x="338" y="448" type="curve" smooth="yes"/>
      <point x="322" y="401"/>
      <point x="340" y="348"/>
      <point x="395" y="346" type="curve" smooth="yes"/>
      <point x="453" y="344"/>
      <point x="514" y="397"/>
    </contour>
    <contour>
      <point x="322" y="5" type="line"/>
      <point x="68" y="5" type="line"/>
      <point x="359" y="242" type="line"/>
      <point x="414" y="263" type="line"/>
      <point x="378" y="240"/>
      <point x="341" y="222"/>
      <point x="297" y="222" type="curve" smooth="yes"/>
      <point x="174" y="222"/>
      <point x="120" y="341"/>
      <point x="148" y="449" type="curve" smooth="yes"/>
      <point x="189" y="608"/>
      <point x="345" y="718"/>
      <point x="507" y="718" type="curve" smooth="yes"/>
      <point x="662" y="718"/>
      <point x="764" y="603"/>
      <point x="721" y="449" type="curve" smooth="yes"/>
      <point x="697" y="364"/>
      <point x="634" y="296"/>
      <point x="572" y="237" type="curve" smooth="yes"/>
    </contour>
  </outline>
</glyph>
<glyph name="colon" format="1">
  <advance width="310"/>
  <unicode hex="003A"/>
  <outline>
    <contour>
      <point x="20" y="78" type="curve" smooth="yes"/>
      <point x="20" y="136"/>
      <point x="64" y="184"/>
      <point x="128" y="184" type="curve" smooth="yes"/>
      <point x="192" y="184"/>
      <point x="236" y="136"/>
      <point x="236" y="78" type="curve" smooth="yes"/>
      <point x="236" y="20"/>
      <point x="192" y="-28"/>
      <point x="128" y="-28" type="curve" smooth="yes"/>
      <point x="64" y="-28"/>
      <point x="20" y="20"/>
    </contour>
    <contour>
      <point x="146" y="449" type="curve" smooth="yes"/>
      <point x="146" y="507"/>
      <point x="191" y="554"/>
      <point x="255" y="554" type="curve" smooth="yes"/>
      <point x="319" y="554"/>
      <point x="363" y="507"/>
      <point x="363" y="449" type="curve" smooth="yes"/>
      <point x="363" y="391"/>
      <point x="319" y="343"/>
      <point x="255" y="343" type="curve" smooth="yes"/>
      <point x="191" y="343"/>
      <point x="146" y="391"/>
    </contour>
  </outline>
</glyph>
<glyph name="semicolon" format="1">
  <advance width="390"/>
  <unicode hex="003B"/>
  <outline>
    <contour>
      <point x="200" y="440" type="curve" smooth="yes"/>
      <point x="200" y="498"/>
      <point x="244" y="546"/>
      <point x="308" y="546" type="curve" smooth="yes"/>
      <point x="372" y="546"/>
      <point x="416" y="498"/>
      <point x="416" y="440" type="curve" smooth="yes"/>
      <point x="416" y="382"/>
      <point x="372" y="335"/>
      <point x="308" y="335" type="curve" smooth="yes"/>
      <point x="244" y="335"/>
      <point x="200" y="382"/>
    </contour>
    <contour>
      <point x="109" y="108" type="line"/>
      <point x="276" y="73" type="line"/>
      <point x="69" y="-171" type="line"/>
      <point x="-62" y="-145" type="line"/>
    </contour>
  </outline>
</glyph>
<glyph name="less" format="1">
  <advance width="602"/>
  <unicode hex="003C"/>
  <outline>
    <contour>
      <point x="329" y="261" type="line"/>
      <point x="546" y="157" type="line"/>
      <point x="488" y="-3" type="line"/>
      <point x="75" y="211" type="line"/>
      <point x="117" y="330" type="line"/>
      <point x="677" y="543" type="line"/>
      <point x="613" y="358" type="line"/>
    </contour>
  </outline>
</glyph>
<glyph name="equal" format="1">
  <advance width="592"/>
  <unicode hex="003D"/>
  <outline>
    <contour>
      <point x="14" y="64" type="line"/>
      <point x="66" y="215" type="line"/>
      <point x="567" y="215" type="line"/>
      <point x="514" y="64" type="line"/>
    </contour>
    <contour>
      <point x="90" y="290" type="line"/>
      <point x="144" y="441" type="line"/>
      <point x="644" y="441" type="line"/>
      <point x="591" y="290" type="line"/>
    </contour>
  </outline>
</glyph>
<glyph name="greater" format="1">
  <advance width="602"/>
  <unicode hex="003E"/>
  <outline>
    <contour>
      <point x="347" y="271" type="line"/>
      <point x="130" y="375" type="line"/>
      <point x="187" y="535" type="line"/>
      <point x="600" y="321" type="line"/>
      <point x="558" y="202" type="line"/>
      <point x="-1" y="-12" type="line"/>
      <point x="62" y="174" type="line"/>
    </contour>
  </outline>
</glyph>
<glyph name="question" format="1">
  <advance width="612"/>
  <unicode hex="003F"/>
  <outline>
    <contour>
      <point x="513" y="501" type="curve" smooth="yes"/>
      <point x="528" y="547"/>
      <point x="498" y="573"/>
      <point x="454" y="575" type="curve" smooth="yes"/>
      <point x="385" y="579"/>
      <point x="320" y="530"/>
      <point x="270" y="488" type="curve"/>
      <point x="184" y="592" type="line"/>
      <point x="272" y="663"/>
      <point x="377" y="724"/>
      <point x="493" y="723" type="curve" smooth="yes"/>
      <point x="618" y="722"/>
      <point x="723" y="631"/>
      <point x="684" y="499" type="curve" smooth="yes"/>
      <point x="648" y="377"/>
      <point x="528" y="313"/>
      <point x="414" y="283" type="curve"/>
      <point x="384" y="212" type="line"/>
      <point x="238" y="212" type="line"/>
      <point x="277" y="391" type="line"/>
      <point x="307" y="391" type="line"/>
      <point x="377" y="394"/>
      <point x="488" y="425"/>
    </contour>
    <contour>
      <point x="146" y="67" type="curve" smooth="yes"/>
      <point x="146" y="119"/>
      <point x="194" y="157"/>
      <point x="250" y="157" type="curve" smooth="yes"/>
      <point x="307" y="157"/>
      <point x="355" y="120"/>
      <point x="355" y="67" type="curve" smooth="yes"/>
      <point x="355" y="13"/>
      <point x="306" y="-27"/>
      <point x="250" y="-27" type="curve" smooth="yes"/>
      <point x="193" y="-27"/>
      <point x="146" y="12"/>
    </contour>
  </outline>
</glyph>
<glyph name="at" format="1">
  <advance width="724"/>
  <unicode hex="0040"/>
  <outline>
    <contour>
      <point x="368" y="319" type="curve" smooth="yes"/>
      <point x="363" y="305"/>
      <point x="353" y="269"/>
      <point x="373" y="261" type="curve" smooth="yes"/>
      <point x="409" y="247"/>
      <point x="459" y="336"/>
      <point x="469" y="362" type="curve" smooth="yes"/>
      <point x="474" y="376"/>
      <point x="485" y="414"/>
      <point x="464" y="421" type="curve" smooth="yes"/>
      <point x="427" y="435"/>
      <point x="378" y="345"/>
    </contour>
    <contour>
      <point x="236" y="312" type="curve" smooth="yes"/>
      <point x="261" y="401"/>
      <point x="341" y="533"/>
      <point x="448" y="530" type="curve" smooth="yes"/>
      <point x="531" y="528"/>
      <point x="539" y="431"/>
      <point x="522" y="369" type="curve" smooth="yes"/>
      <point x="498" y="280"/>
      <point x="421" y="153"/>
      <point x="316" y="152" type="curve" smooth="yes"/>
      <point x="225" y="151"/>
      <point x="216" y="243"/>
    </contour>
    <contour>
      <point x="65" y="320" type="curve" smooth="yes"/>
      <point x="132" y="532"/>
      <point x="342" y="727"/>
      <point x="573" y="727" type="curve" smooth="yes"/>
      <point x="766" y="727"/>
      <point x="844" y="556"/>
      <point x="793" y="390" type="curve" smooth="yes"/>
      <point x="758" y="278"/>
      <point x="665" y="136"/>
      <point x="532" y="141" type="curve" smooth="yes"/>
      <point x="454" y="144"/>
      <point x="446" y="198"/>
      <point x="450" y="262" type="curve"/>
      <point x="448" y="305" type="line"/>
      <point x="538" y="520" type="line"/>
      <point x="661" y="520" type="line"/>
      <point x="573" y="314" type="line" smooth="yes"/>
      <point x="569" y="305"/>
      <point x="566" y="298"/>
      <point x="562" y="288" type="curve" smooth="yes"/>
      <point x="559" y="279"/>
      <point x="552" y="257"/>
      <point x="565" y="251" type="curve" smooth="yes"/>
      <point x="609" y="230"/>
      <point x="661" y="363"/>
      <point x="671" y="391" type="curve" smooth="yes"/>
      <point x="708" y="494"/>
      <point x="694" y="614"/>
      <point x="557" y="614" type="curve" smooth="yes"/>
      <point x="387" y="614"/>
      <point x="242" y="469"/>
      <point x="188" y="320" type="curve" smooth="yes"/>
      <point x="143" y="198"/>
      <point x="178" y="85"/>
      <point x="322" y="82" type="curve" smooth="yes"/>
      <point x="387" y="81"/>
      <point x="450" y="102"/>
      <point x="510" y="122" type="curve"/>
      <point x="519" y="18" type="line"/>
      <point x="447" y="-13"/>
      <point x="368" y="-32"/>
      <point x="289" y="-31" type="curve" smooth="yes"/>
      <point x="88" y="-28"/>
      <point x="8" y="140"/>
    </contour>
  </outline>
</glyph>
<glyph name="A" format="1">
  <advance width="715"/>
  <unicode hex="0041"/>
  <outline>
    <contour>
      <point x="165" y="109" type="line"/>
      <point x="221" y="254" type="line"/>
      <point x="567" y="254" type="line"/>
      <point x="520" y="109" type="line"/>
    </contour>
    <contour>
      <point x="442" y="407" type="line"/>
      <point x="291" y="200" type="line"/>
      <point x="289" y="154" type="line"/>
      <point x="162" y="0" type="line"/>
      <point x="-66" y="0" type="line"/>
      <point x="557" y="752" type="line"/>
      <point x="663" y="0" type="line"/>
      <point x="455" y="0" type="line"/>
      <point x="438" y="150" type="line"/>
      <point x="459" y="200" type="line"/>
    </contour>
  </outline>
</glyph>
<glyph name="B" format="1">
  <advance width="696"/>
  <unicode hex="0042"/>
  <outline>
    <contour>
      <point x="282" y="398" type="line"/>
      <point x="442" y="398" type="line" smooth="yes"/>
      <point x="577" y="398"/>
      <point x="714" y="340"/>
      <point x="688" y="194" type="curve" smooth="yes"/>
      <point x="663" y="55"/>
      <point x="548" y="0"/>
      <point x="372" y="0" type="curve" smooth="yes"/>
      <point x="212" y="0" type="line"/>
      <point x="238" y="148" type="line"/>
      <point x="374" y="148" type="line" smooth="yes"/>
      <point x="432" y="148"/>
      <point x="480" y="162"/>
      <point x="491" y="224" type="curve" smooth="yes"/>
      <point x="501" y="278"/>
      <point x="457" y="292"/>
      <point x="399" y="292" type="curve" smooth="yes"/>
      <point x="263" y="292" type="line"/>
    </contour>
    <contour>
      <point x="272" y="342" type="line"/>
      <point x="287" y="424" type="line"/>
      <point x="404" y="424" type="line" smooth="yes"/>
      <point x="458" y="424"/>
      <point x="491" y="448"/>
      <point x="498" y="490" type="curve" smooth="yes"/>
      <point x="505" y="532"/>
      <point x="480" y="552"/>
      <point x="426" y="552" type="curve" smooth="yes"/>
      <point x="309" y="552" type="line"/>
      <point x="335" y="700" type="line"/>
      <point x="477" y="700" type="line" smooth="yes"/>
      <point x="627" y="700"/>
      <point x="727" y="640"/>
      <point x="706" y="521" type="curve" smooth="yes"/>
      <point x="686" y="405"/>
      <point x="564" y="342"/>
      <point x="414" y="342" type="curve" smooth="yes"/>
    </contour>
    <contour>
      <point x="195" y="700" type="line"/>
      <point x="389" y="700" type="line"/>
      <point x="266" y="0" type="line"/>
      <point x="72" y="0" type="line"/>
    </contour>
  </outline>
</glyph>
<glyph name="C" format="1">
  <advance width="664"/>
  <unicode hex="0043"/>
  <outline>
    <contour>
      <point x="302" y="350" type="curve" smooth="yes"/>
      <point x="267" y="259"/>
      <point x="306" y="174"/>
      <point x="409" y="171" type="curve" smooth="yes"/>
      <point x="493" y="169"/>
      <point x="569" y="213"/>
      <point x="637" y="256" type="curve"/>
      <point x="575" y="50" type="line"/>
      <point x="507" y="10"/>
      <point x="434" y="-18"/>
      <point x="354" y="-18" type="curve" smooth="yes"/>
      <point x="143" y="-18"/>
      <point x="30" y="153"/>
      <point x="92" y="350" type="curve" smooth="yes"/>
      <point x="157" y="559"/>
      <point x="362" y="718"/>
      <point x="583" y="718" type="curve" smooth="yes"/>
      <point x="656" y="718"/>
      <point x="716" y="694"/>
      <point x="773" y="649" type="curve"/>
      <point x="710" y="442" type="line"/>
      <point x="672" y="497"/>
      <point x="623" y="529"/>
      <point x="553" y="529" type="curve" smooth="yes"/>
      <point x="445" y="528"/>
      <point x="340" y="450"/>
    </contour>
  </outline>
</glyph>
<glyph name="D" format="1">
  <advance width="706"/>
  <unicode hex="0044"/>
  <outline>
    <contour>
      <point x="249" y="700" type="line"/>
      <point x="450" y="700" type="line"/>
      <point x="210" y="0" type="line"/>
      <point x="10" y="0" type="line"/>
    </contour>
    <contour>
      <point x="273" y="0" type="curve" smooth="yes"/>
      <point x="137" y="0" type="line"/>
      <point x="198" y="174" type="line"/>
      <point x="303" y="174" type="line" smooth="yes"/>
      <point x="415" y="174"/>
      <point x="505" y="245"/>
      <point x="545" y="350" type="curve" smooth="yes"/>
      <point x="582" y="446"/>
      <point x="551" y="527"/>
      <point x="444" y="527" type="curve" smooth="yes"/>
      <point x="316" y="527" type="line"/>
      <point x="377" y="700" type="line"/>
      <point x="490" y="700" type="line" smooth="yes"/>
      <point x="694" y="700"/>
      <point x="808" y="548"/>
      <point x="746" y="350" type="curve" smooth="yes"/>
      <point x="681" y="142"/>
      <point x="489" y="0"/>
    </contour>
  </outline>
</glyph>
<glyph name="E" format="1">
  <advance width="583"/>
  <unicode hex="0045"/>
  <outline>
    <contour>
      <point x="137" y="0" type="line"/>
      <point x="193" y="160" type="line"/>
      <point x="532" y="160" type="line"/>
      <point x="475" y="0" type="line"/>
    </contour>
    <contour>
      <point x="322" y="540" type="line"/>
      <point x="378" y="700" type="line"/>
      <point x="716" y="700" type="line"/>
      <point x="660" y="540" type="line"/>
    </contour>
    <contour>
      <point x="234" y="285" type="line"/>
      <point x="289" y="441" type="line"/>
      <point x="608" y="441" type="line"/>
      <point x="554" y="285" type="line"/>
    </contour>
    <contour>
      <point x="249" y="700" type="line"/>
      <point x="435" y="700" type="line"/>
      <point x="194" y="0" type="line"/>
      <point x="10" y="0" type="line"/>
    </contour>
  </outline>
</glyph>
<glyph name="F" format="1">
  <advance width="536"/>
  <unicode hex="0046"/>
  <outline>
    <contour>
      <point x="318" y="532" type="line"/>
      <point x="378" y="700" type="line"/>
      <point x="678" y="700" type="line"/>
      <point x="619" y="532" type="line"/>
    </contour>
    <contour>
      <point x="226" y="260" type="line"/>
      <point x="280" y="416" type="line"/>
      <point x="572" y="416" type="line"/>
      <point x="517" y="260" type="line"/>
    </contour>
    <contour>
      <point x="249" y="700" type="line"/>
      <point x="435" y="700" type="line"/>
      <point x="194" y="0" type="line"/>
      <point x="10" y="0" type="line"/>
    </contour>
  </outline>
</glyph>
<glyph name="G" format="1">
  <advance width="778"/>
  <unicode hex="0047"/>
  <outline>
    <contour>
      <point x="426" y="245" type="line"/>
      <point x="478" y="392" type="line"/>
      <point x="821" y="392" type="line"/>
      <point x="763" y="175"/>
      <point x="612" y="-27"/>
      <point x="356" y="-27" type="curve" smooth="yes"/>
      <point x="142" y="-27"/>
      <point x="31" y="156"/>
      <point x="92" y="350" type="curve" smooth="yes"/>
      <point x="158" y="559"/>
      <point x="366" y="718"/>
      <point x="587" y="718" type="curve" smooth="yes"/>
      <point x="710" y="718"/>
      <point x="795" y="652"/>
      <point x="848" y="544" type="curve"/>
      <point x="653" y="461" type="line"/>
      <point x="637" y="512"/>
      <point x="609" y="548"/>
      <point x="551" y="548" type="curve" smooth="yes"/>
      <point x="435" y="548"/>
      <point x="332" y="451"/>
      <point x="293" y="350" type="curve" smooth="yes"/>
      <point x="258" y="259"/>
      <point x="274" y="144"/>
      <point x="391" y="144" type="curve" smooth="yes"/>
      <point x="473" y="144"/>
      <point x="528" y="181"/>
      <point x="573" y="245" type="curve"/>
    </contour>
  </outline>
</glyph>
<glyph name="H" format="1">
  <advance width="808"/>
  <unicode hex="0048"/>
  <outline>
    <contour>
      <point x="167" y="279" type="line"/>
      <point x="198" y="452" type="line"/>
      <point x="744" y="452" type="line"/>
      <point x="713" y="279" type="line"/>
    </contour>
    <contour>
      <point x="665" y="700" type="line"/>
      <point x="859" y="700" type="line"/>
      <point x="736" y="0" type="line"/>
      <point x="542" y="0" type="line"/>
    </contour>
    <contour>
      <point x="195" y="700" type="line"/>
      <point x="389" y="700" type="line"/>
      <point x="266" y="0" type="line"/>
      <point x="72" y="0" type="line"/>
    </contour>
  </outline>
</glyph>
<glyph name="I" format="1">
  <advance width="325"/>
  <unicode hex="0049"/>
  <outline>
    <contour>
      <point x="249" y="700" type="line"/>
      <point x="447" y="700" type="line"/>
      <point x="207" y="0" type="line"/>
      <point x="10" y="0" type="line"/>
    </contour>
  </outline>
</glyph>
<glyph name="J" format="1">
  <advance width="340"/>
  <unicode hex="004A"/>
  <outline>
    <contour>
      <point x="-150" y="-50" type="line"/>
      <point x="-131" y="-65"/>
      <point x="-111" y="-83"/>
      <point x="-85" y="-82" type="curve" smooth="yes"/>
      <point x="-42" y="-81"/>
      <point x="-6" y="-40"/>
      <point x="7" y="-3" type="curve" smooth="yes"/>
      <point x="250" y="700" type="line"/>
      <point x="462" y="700" type="line"/>
      <point x="207" y="-53" type="line" smooth="yes"/>
      <point x="162" y="-182"/>
      <point x="35" y="-245"/>
      <point x="-97" y="-245" type="curve" smooth="yes"/>
      <point x="-169" y="-245"/>
      <point x="-232" y="-220"/>
      <point x="-292" y="-183" type="curve"/>
    </contour>
  </outline>
</glyph>
<glyph name="K" format="1">
  <advance width="740"/>
  <unicode hex="004B"/>
  <outline>
    <contour>
      <point x="195" y="700" type="line"/>
      <point x="398" y="700" type="line"/>
      <point x="275" y="0" type="line"/>
      <point x="72" y="0" type="line"/>
    </contour>
    <contour>
      <point x="624" y="700" type="line"/>
      <point x="851" y="700" type="line"/>
      <point x="516" y="372" type="line"/>
      <point x="744" y="0" type="line"/>
      <point x="508" y="0" type="line"/>
      <point x="283" y="366" type="line"/>
    </contour>
  </outline>
</glyph>
<glyph name="L" format="1">
  <advance width="522"/>
  <unicode hex="004C"/>
  <outline>
    <contour>
      <point x="250" y="700" type="line"/>
      <point x="443" y="700" type="line"/>
      <point x="261" y="168" type="line"/>
      <point x="528" y="168" type="line"/>
      <point x="469" y="0" type="line"/>
      <point x="10" y="0" type="line"/>
    </contour>
  </outline>
</glyph>
<glyph name="M" format="1">
  <advance width="865"/>
  <unicode hex="004D"/>
  <outline>
    <contour>
      <point x="323" y="314" type="line"/>
      <point x="178" y="0" type="line"/>
      <point x="-30" y="0" type="line"/>
      <point x="339" y="735" type="line"/>
      <point x="487" y="340" type="line"/>
      <point x="921" y="746" type="line"/>
      <point x="782" y="0" type="line"/>
      <point x="580" y="0" type="line"/>
      <point x="650" y="301" type="line"/>
      <point x="406" y="62" type="line"/>
    </contour>
  </outline>
</glyph>
<glyph name="N" format="1">
  <advance width="752"/>
  <unicode hex="004E"/>
  <outline>
    <contour>
      <point x="689" y="700" type="line"/>
      <point x="874" y="700" type="line"/>
      <point x="624" y="-31" type="line"/>
      <point x="316" y="352" type="line"/>
      <point x="195" y="0" type="line"/>
      <point x="9" y="0" type="line"/>
      <point x="260" y="731" type="line"/>
      <point x="567" y="348" type="line"/>
    </contour>
  </outline>
</glyph>
<glyph name="O" format="1">
  <advance width="830"/>
  <unicode hex="004F"/>
  <outline>
    <contour>
      <point x="300" y="350" type="curve" smooth="yes"/>
      <point x="280" y="236"/>
      <point x="335" y="159"/>
      <point x="443" y="159" type="curve" smooth="yes"/>
      <point x="551" y="159"/>
      <point x="634" y="236"/>
      <point x="654" y="350" type="curve" smooth="yes"/>
      <point x="674" y="464"/>
      <point x="622" y="541"/>
      <point x="510" y="541" type="curve" smooth="yes"/>
      <point x="402" y="541"/>
      <point x="320" y="464"/>
    </contour>
    <contour>
      <point x="94" y="350" type="curve" smooth="yes"/>
      <point x="133" y="570"/>
      <point x="326" y="718"/>
      <point x="542" y="718" type="curve" smooth="yes"/>
      <point x="762" y="718"/>
      <point x="900" y="570"/>
      <point x="861" y="350" type="curve" smooth="yes"/>
      <point x="822" y="130"/>
      <point x="634" y="-26"/>
      <point x="410" y="-26" type="curve" smooth="yes"/>
      <point x="186" y="-26"/>
      <point x="55" y="130"/>
    </contour>
  </outline>
</glyph>
<glyph name="P" format="1">
  <advance width="610"/>
  <unicode hex="0050"/>
  <outline>
    <contour>
      <point x="249" y="700" type="line"/>
      <point x="444" y="700" type="line"/>
      <point x="202" y="0" type="line"/>
      <point x="10" y="0" type="line"/>
    </contour>
    <contour>
      <point x="315" y="541" type="line"/>
      <point x="370" y="700" type="line"/>
      <point x="487" y="700" type="line" smooth="yes"/>
      <point x="629" y="697"/>
      <point x="717" y="615"/>
      <point x="688" y="464" type="curve" smooth="yes"/>
      <point x="658" y="308"/>
      <point x="501" y="232"/>
      <point x="349" y="229" type="curve" smooth="yes"/>
      <point x="207" y="229" type="line"/>
      <point x="264" y="390" type="line"/>
      <point x="382" y="390" type="line" smooth="yes"/>
      <point x="430" y="391"/>
      <point x="487" y="415"/>
      <point x="505" y="465" type="curve" smooth="yes"/>
      <point x="521" y="510"/>
      <point x="495" y="539"/>
      <point x="452" y="540" type="curve" smooth="yes"/>
    </contour>
  </outline>
</glyph>
<glyph name="Q" format="1">
  <advance width="836"/>
  <unicode hex="0051"/>
  <outline>
    <contour>
      <point x="295" y="350" type="curve" smooth="yes"/>
      <point x="261" y="261"/>
      <point x="282" y="148"/>
      <point x="396" y="146" type="curve" smooth="yes"/>
      <point x="503" y="144"/>
      <point x="596" y="231"/>
      <point x="633" y="325" type="curve" smooth="yes"/>
      <point x="668" y="414"/>
      <point x="653" y="534"/>
      <point x="535" y="537" type="curve" smooth="yes"/>
      <point x="427" y="539"/>
      <point x="331" y="445"/>
    </contour>
    <contour>
      <point x="92" y="350" type="curve" smooth="yes"/>
      <point x="156" y="553"/>
      <point x="359" y="719"/>
      <point x="575" y="718" type="curve" smooth="yes"/>
      <point x="783" y="717"/>
      <point x="880" y="538"/>
      <point x="822" y="350" type="curve" smooth="yes"/>
      <point x="758" y="147"/>
      <point x="563" y="-28"/>
      <point x="344" y="-27" type="curve" smooth="yes"/>
      <point x="132" y="-26"/>
      <point x="33" y="160"/>
    </contour>
    <contour>
      <point x="383" y="300" type="line"/>
      <point x="557" y="300" type="line"/>
      <point x="779" y="-17" type="line"/>
      <point x="596" y="-17" type="line"/>
    </contour>
  </outline>
</glyph>
<glyph name="R" format="1">
  <advance width="636"/>
  <unicode hex="0052"/>
  <outline>
    <contour>
      <point x="301" y="307" type="line"/>
      <point x="488" y="307" type="line"/>
      <point x="578" y="0" type="line"/>
      <point x="367" y="0" type="line"/>
    </contour>
    <contour>
      <point x="249" y="700" type="line"/>
      <point x="443" y="700" type="line"/>
      <point x="202" y="0" type="line"/>
      <point x="10" y="0" type="line"/>
    </contour>
    <contour>
      <point x="313" y="532" type="line"/>
      <point x="369" y="700" type="line"/>
      <point x="503" y="700" type="line" smooth="yes"/>
      <point x="642" y="700"/>
      <point x="739" y="613"/>
      <point x="704" y="464" type="curve" smooth="yes"/>
      <point x="668" y="312"/>
      <point x="514" y="229"/>
      <point x="364" y="229" type="curve" smooth="yes"/>
      <point x="207" y="229" type="line"/>
      <point x="261" y="380" type="line"/>
      <point x="379" y="380" type="line" smooth="yes"/>
      <point x="428" y="380"/>
      <point x="484" y="407"/>
      <point x="502" y="457" type="curve" smooth="yes"/>
      <point x="518" y="502"/>
      <point x="492" y="531"/>
      <point x="449" y="532" type="curve" smooth="yes"/>
    </contour>
  </outline>
</glyph>
<glyph name="S" format="1">
  <advance width="613"/>
  <unicode hex="0053"/>
  <outline>
    <contour>
      <point x="184" y="260" type="line"/>
      <point x="203" y="203"/>
      <point x="230" y="144"/>
      <point x="299" y="145" type="curve" smooth="yes"/>
      <point x="334" y="145"/>
      <point x="379" y="163"/>
      <point x="394" y="198" type="curve" smooth="yes"/>
      <point x="416" y="250"/>
      <point x="339" y="272"/>
      <point x="305" y="289" type="curve" smooth="yes"/>
      <point x="216" y="332"/>
      <point x="158" y="412"/>
      <point x="188" y="514" type="curve" smooth="yes"/>
      <point x="227" y="646"/>
      <point x="374" y="719"/>
      <point x="504" y="718" type="curve" smooth="yes"/>
      <point x="610" y="717"/>
      <point x="679" y="659"/>
      <point x="711" y="561" type="curve"/>
      <point x="550" y="481" type="line"/>
      <point x="534" y="519"/>
      <point x="514" y="552"/>
      <point x="467" y="552" type="curve" smooth="yes"/>
      <point x="438" y="552"/>
      <point x="394" y="535"/>
      <point x="381" y="506" type="curve" smooth="yes"/>
      <point x="359" y="456"/>
      <point x="462" y="432"/>
      <point x="492" y="419" type="curve" smooth="yes"/>
      <point x="583" y="379"/>
      <point x="625" y="294"/>
      <point x="596" y="197" type="curve" smooth="yes"/>
      <point x="554" y="56"/>
      <point x="408" y="-28"/>
      <point x="265" y="-27" type="curve" smooth="yes"/>
      <point x="144" y="-26"/>
      <point x="55" y="50"/>
      <point x="28" y="165" type="curve"/>
    </contour>
  </outline>
</glyph>
<glyph name="T" format="1">
  <advance width="560"/>
  <unicode hex="0054"/>
  <outline>
    <contour>
      <point x="122" y="523" type="line"/>
      <point x="184" y="700" type="line"/>
      <point x="748" y="700" type="line"/>
      <point x="686" y="523" type="line"/>
      <point x="502" y="523" type="line"/>
      <point x="322" y="0" type="line"/>
      <point x="129" y="0" type="line"/>
      <point x="308" y="523" type="line"/>
    </contour>
  </outline>
</glyph>
<glyph name="U" format="1">
  <advance width="683"/>
  <unicode hex="0055"/>
  <outline>
    <contour>
      <point x="245" y="700" type="line"/>
      <point x="439" y="700" type="line"/>
      <point x="280" y="247" type="line" smooth="yes"/>
      <point x="266" y="201"/>
      <point x="267" y="146"/>
      <point x="327" y="143" type="curve" smooth="yes"/>
      <point x="392" y="140"/>
      <point x="439" y="195"/>
      <point x="460" y="248" type="curve"/>
      <point x="617" y="700" type="line"/>
      <point x="810" y="700" type="line"/>
      <point x="651" y="230" type="line" smooth="yes"/>
      <point x="595" y="73"/>
      <point x="461" y="-35"/>
      <point x="287" y="-35" type="curve" smooth="yes"/>
      <point x="128" y="-35"/>
      <point x="40" y="76"/>
      <point x="86" y="230" type="curve"/>
    </contour>
  </outline>
</glyph>
<glyph name="V" format="1">
  <advance width="715"/>
  <unicode hex="0056"/>
  <outline>
    <contour>
      <point x="422" y="334" type="line"/>
      <point x="675" y="699" type="line"/>
      <point x="908" y="699" type="line"/>
      <point x="312" y="-52" type="line"/>
      <point x="180" y="700" type="line"/>
      <point x="397" y="700" type="line"/>
    </contour>
  </outline>
</glyph>
<glyph name="W" format="1">
  <advance width="1026"/>
  <unicode hex="0057"/>
  <outline>
    <contour>
      <point x="758" y="329" type="line"/>
      <point x="977" y="700" type="line"/>
      <point x="1213" y="699" type="line"/>
      <point x="686" y="-47" type="line"/>
      <point x="587" y="331" type="line"/>
      <point x="249" y="-49" type="line"/>
      <point x="184" y="700" type="line"/>
      <point x="407" y="700" type="line"/>
      <point x="395" y="334" type="line"/>
      <point x="704" y="741" type="line"/>
    </contour>
  </outline>
</glyph>
<glyph name="X" format="1">
  <advance width="688"/>
  <unicode hex="0058"/>
  <outline>
    <contour>
      <point x="615" y="699" type="line"/>
      <point x="863" y="699" type="line"/>
      <point x="537" y="348" type="line"/>
      <point x="650" y="0" type="line"/>
      <point x="422" y="0" type="line"/>
      <point x="381" y="206" type="line"/>
      <point x="207" y="0" type="line"/>
      <point x="-41" y="0" type="line"/>
      <point x="308" y="364" type="line"/>
      <point x="209" y="700" type="line"/>
      <point x="438" y="700" type="line"/>
      <point x="469" y="523" type="line"/>
    </contour>
  </outline>
</glyph>
<glyph name="Y" format="1">
  <advance width="690"/>
  <unicode hex="0059"/>
  <outline>
    <contour>
      <point x="309" y="360" type="line"/>
      <point x="507" y="360" type="line"/>
      <point x="444" y="0" type="line"/>
      <point x="246" y="0" type="line"/>
    </contour>
    <contour>
      <point x="591" y="700" type="line"/>
      <point x="817" y="700" type="line"/>
      <point x="365" y="111" type="line"/>
      <point x="119" y="700" type="line"/>
      <point x="345" y="700" type="line"/>
      <point x="425" y="456" type="line"/>
    </contour>
  </outline>
</glyph>
<glyph name="Z" format="1">
  <advance width="642"/>
  <unicode hex="005A"/>
  <outline>
    <contour>
      <point x="157" y="526" type="line"/>
      <point x="187" y="700" type="line"/>
      <point x="753" y="700" type="line"/>
      <point x="339" y="166" type="line"/>
      <point x="619" y="166" type="line"/>
      <point x="590" y="0" type="line"/>
      <point x="6" y="0" type="line"/>
      <point x="414" y="526" type="line"/>
    </contour>
  </outline>
</glyph>
<glyph name="bracketleft" format="1">
  <advance width="361"/>
  <unicode hex="005B"/>
  <outline>
    <contour>
      <point x="411" y="629" type="line"/>
      <point x="196" y="-69" type="line"/>
      <point x="291" y="-69" type="line"/>
      <point x="243" y="-220" type="line"/>
      <point x="-24" y="-220" type="line"/>
      <point x="285" y="780" type="line"/>
      <point x="552" y="780" type="line"/>
      <point x="505" y="629" type="line"/>
    </contour>
  </outline>
</glyph>
<glyph name="backslash" format="1">
  <advance width="523"/>
  <unicode hex="005C"/>
  <outline>
    <contour>
      <point x="200" y="700" type="line"/>
      <point x="357" y="700" type="line"/>
      <point x="454" y="0" type="line"/>
      <point x="299" y="0" type="line"/>
    </contour>
  </outline>
</glyph>
<glyph name="bracketright" format="1">
  <advance width="360"/>
  <unicode hex="005D"/>
  <outline>
    <contour>
      <point x="56" y="-69" type="line"/>
      <point x="270" y="629" type="line"/>
      <point x="174" y="629" type="line"/>
      <point x="222" y="780" type="line"/>
      <point x="489" y="780" type="line"/>
      <point x="180" y="-220" type="line"/>
      <point x="-87" y="-220" type="line"/>
      <point x="-40" y="-69" type="line"/>
    </contour>
  </outline>
</glyph>
<glyph name="asciicircum" format="1">
  <advance width="479"/>
  <unicode hex="005E"/>
  <outline>
    <contour>
      <point x="384" y="560" type="line"/>
      <point x="280" y="444" type="line"/>
      <point x="118" y="444" type="line"/>
      <point x="370" y="709" type="line"/>
      <point x="475" y="710" type="line"/>
      <point x="544" y="443" type="line"/>
      <point x="404" y="443" type="line"/>
    </contour>
  </outline>
</glyph>
<glyph name="underscore" format="1">
  <advance width="509"/>
  <unicode hex="005F"/>
  <outline>
    <contour>
      <point x="-113" y="-161" type="line"/>
      <point x="-74" y="-50" type="line"/>
      <point x="442" y="-50" type="line"/>
      <point x="403" y="-161" type="line"/>
    </contour>
  </outline>
</glyph>
<glyph name="grave" format="1">
  <advance width="352"/>
  <unicode hex="0060"/>
  <outline>
    <contour>
      <point x="210" y="657" type="line"/>
      <point x="342" y="709" type="line"/>
      <point x="440" y="543" type="line"/>
      <point x="340" y="502" type="line"/>
    </contour>
  </outline>
</glyph>
<glyph name="a" format="1">
  <advance width="530"/>
  <unicode hex="0061"/>
  <outline>
    <contour>
      <point x="180" y="137" type="curve" smooth="yes"/>
      <point x="175" y="114"/>
      <point x="193" y="102"/>
      <point x="212" y="100" type="curve" smooth="yes"/>
      <point x="268" y="95"/>
      <point x="307" y="146"/>
      <point x="334" y="188" type="curve"/>
      <point x="332" y="128" type="line"/>
      <point x="295" y="47"/>
      <point x="226" y="-8"/>
      <point x="134" y="-9" type="curve" smooth="yes"/>
      <point x="51" y="-10"/>
      <point x="-17" y="43"/>
      <point x="8" y="131" type="curve" smooth="yes"/>
      <point x="36" y="228"/>
      <point x="144" y="275"/>
      <point x="238" y="276" type="curve" smooth="yes"/>
      <point x="292" y="277"/>
      <point x="339" y="262"/>
      <point x="382" y="230" type="curve"/>
      <point x="358" y="153" type="line"/>
      <point x="331" y="174"/>
      <point x="306" y="188"/>
      <point x="270" y="187" type="curve" smooth="yes"/>
      <point x="235" y="186"/>
      <point x="186" y="171"/>
    </contour>
    <contour>
      <point x="168" y="306" type="curve"/>
      <point x="146" y="425" type="line"/>
      <point x="216" y="451"/>
      <point x="290" y="474"/>
      <point x="366" y="474" type="curve" smooth="yes"/>
      <point x="458" y="474"/>
      <point x="567" y="431"/>
      <point x="540" y="321" type="curve"/>
      <point x="431" y="0" type="line"/>
      <point x="266" y="0" type="line"/>
      <point x="368" y="282" type="line"/>
      <point x="377" y="317"/>
      <point x="361" y="336"/>
      <point x="324" y="341" type="curve" smooth="yes"/>
      <point x="272" y="347"/>
      <point x="216" y="324"/>
    </contour>
  </outline>
</glyph>
<glyph name="b" format="1">
  <advance width="595"/>
  <unicode hex="0062"/>
  <outline>
    <contour>
      <point x="433" y="780" type="line"/>
      <point x="165" y="0" type="line"/>
      <point x="-8" y="0" type="line"/>
      <point x="259" y="780" type="line"/>
    </contour>
    <contour>
      <point x="594" y="229" type="curve" smooth="yes"/>
      <point x="558" y="111"/>
      <point x="450" y="-10"/>
      <point x="318" y="-10" type="curve" smooth="yes"/>
      <point x="186" y="-10"/>
      <point x="167" y="129"/>
      <point x="198" y="231" type="curve" smooth="yes"/>
      <point x="233" y="346"/>
      <point x="330" y="469"/>
      <point x="460" y="469" type="curve" smooth="yes"/>
      <point x="592" y="469"/>
      <point x="627" y="337"/>
    </contour>
    <contour>
      <point x="416" y="231" type="curve" smooth="yes"/>
      <point x="431" y="271"/>
      <point x="422" y="328"/>
      <point x="370" y="331" type="curve" smooth="yes"/>
      <point x="315" y="334"/>
      <point x="262" y="276"/>
      <point x="244" y="229" type="curve" smooth="yes"/>
      <point x="229" y="190"/>
      <point x="233" y="132"/>
      <point x="285" y="129" type="curve" smooth="yes"/>
      <point x="340" y="126"/>
      <point x="398" y="184"/>
    </contour>
  </outline>
</glyph>
<glyph name="c" format="1">
  <advance width="469"/>
  <unicode hex="0063"/>
  <outline>
    <contour>
      <point x="237" y="229" type="curve" smooth="yes"/>
      <point x="219" y="177"/>
      <point x="245" y="132"/>
      <point x="301" y="129" type="curve" smooth="yes"/>
      <point x="355" y="126"/>
      <point x="403" y="158"/>
      <point x="444" y="188" type="curve"/>
      <point x="402" y="25" type="line"/>
      <point x="357" y="4"/>
      <point x="311" y="-10"/>
      <point x="261" y="-10" type="curve" smooth="yes"/>
      <point x="124" y="-10"/>
      <point x="25" y="92"/>
      <point x="62" y="231" type="curve" smooth="yes"/>
      <point x="101" y="374"/>
      <point x="244" y="470"/>
      <point x="389" y="470" type="curve" smooth="yes"/>
      <point x="437" y="470"/>
      <point x="480" y="457"/>
      <point x="522" y="436" type="curve"/>
      <point x="478" y="271" type="line"/>
      <point x="455" y="307"/>
      <point x="427" y="333"/>
      <point x="381" y="333" type="curve" smooth="yes"/>
      <point x="313" y="333"/>
      <point x="257" y="285"/>
    </contour>
  </outline>
</glyph>
<glyph name="d" format="1">
  <advance width="595"/>
  <unicode hex="0064"/>
  <outline>
    <contour>
      <point x="589" y="780" type="line"/>
      <point x="762" y="780" type="line"/>
      <point x="494" y="0" type="line"/>
      <point x="322" y="0" type="line"/>
    </contour>
    <contour>
      <point x="50" y="231" type="curve" smooth="yes"/>
      <point x="86" y="349"/>
      <point x="195" y="470"/>
      <point x="327" y="470" type="curve" smooth="yes"/>
      <point x="459" y="470"/>
      <point x="477" y="331"/>
      <point x="446" y="229" type="curve" smooth="yes"/>
      <point x="411" y="114"/>
      <point x="315" y="-9"/>
      <point x="185" y="-9" type="curve" smooth="yes"/>
      <point x="53" y="-9"/>
      <point x="17" y="123"/>
    </contour>
    <contour>
      <point x="229" y="229" type="curve" smooth="yes"/>
      <point x="214" y="189"/>
      <point x="222" y="132"/>
      <point x="274" y="129" type="curve" smooth="yes"/>
      <point x="329" y="126"/>
      <point x="382" y="184"/>
      <point x="400" y="231" type="curve" smooth="yes"/>
      <point x="415" y="270"/>
      <point x="412" y="328"/>
      <point x="360" y="331" type="curve" smooth="yes"/>
      <point x="305" y="334"/>
      <point x="247" y="276"/>
    </contour>
  </outline>
</glyph>
<glyph name="e" format="1">
  <advance width="559"/>
  <unicode hex="0065"/>
  <outline>
    <contour>
      <point x="147" y="194" type="line"/>
      <point x="173" y="282" type="line"/>
      <point x="408" y="282" type="line"/>
      <point x="412" y="315"/>
      <point x="403" y="357"/>
      <point x="361" y="357" type="curve" smooth="yes"/>
      <point x="301" y="357"/>
      <point x="264" y="297"/>
      <point x="243" y="251" type="curve" smooth="yes"/>
      <point x="234" y="229" type="line"/>
      <point x="218" y="184"/>
      <point x="213" y="119"/>
      <point x="274" y="113" type="curve" smooth="yes"/>
      <point x="317" y="109"/>
      <point x="356" y="137"/>
      <point x="387" y="162" type="curve"/>
      <point x="539" y="129" type="line"/>
      <point x="469" y="46"/>
      <point x="375" y="-10"/>
      <point x="263" y="-10" type="curve" smooth="yes"/>
      <point x="122" y="-10"/>
      <point x="26" y="87"/>
      <point x="63" y="230" type="curve" smooth="yes"/>
      <point x="67" y="247"/>
      <point x="73" y="263"/>
      <point x="80" y="279" type="curve" smooth="yes"/>
      <point x="133" y="398"/>
      <point x="254" y="470"/>
      <point x="383" y="470" type="curve" smooth="yes"/>
      <point x="523" y="470"/>
      <point x="603" y="375"/>
      <point x="570" y="238" type="curve" smooth="yes"/>
      <point x="566" y="223"/>
      <point x="562" y="209"/>
      <point x="557" y="194" type="curve"/>
    </contour>
  </outline>
</glyph>
<glyph name="f" format="1">
  <advance width="342"/>
  <unicode hex="0066"/>
  <outline>
    <contour>
      <point x="110" y="460" type="line"/>
      <point x="440" y="460" type="line"/>
      <point x="390" y="317" type="line"/>
      <point x="60" y="317" type="line"/>
    </contour>
    <contour>
      <point x="480" y="618" type="line"/>
      <point x="472" y="629"/>
      <point x="462" y="642"/>
      <point x="446" y="643" type="curve" smooth="yes"/>
      <point x="414" y="644"/>
      <point x="387" y="607"/>
      <point x="377" y="581" type="curve" smooth="yes"/>
      <point x="175" y="0" type="line"/>
      <point x="10" y="0" type="line"/>
      <point x="224" y="631" type="line" smooth="yes"/>
      <point x="260" y="728"/>
      <point x="346" y="798"/>
      <point x="453" y="797" type="curve" smooth="yes"/>
      <point x="505" y="797"/>
      <point x="542" y="775"/>
      <point x="579" y="741" type="curve"/>
    </contour>
  </outline>
</glyph>
<glyph name="g" format="1">
  <advance width="587"/>
  <unicode hex="0067"/>
  <outline>
    <contour>
      <point x="-33" y="-33" type="curve"/>
      <point x="126" y="-35" type="line"/>
      <point x="128" y="-75"/>
      <point x="135" y="-102"/>
      <point x="182" y="-103" type="curve" smooth="yes"/>
      <point x="249" y="-105"/>
      <point x="303" y="-46"/>
      <point x="323" y="11" type="curve" smooth="yes"/>
      <point x="479" y="460" type="line"/>
      <point x="644" y="460" type="line"/>
      <point x="491" y="9" type="line" smooth="yes"/>
      <point x="440" y="-135"/>
      <point x="327" y="-241"/>
      <point x="167" y="-242" type="curve" smooth="yes"/>
      <point x="31" y="-243"/>
      <point x="-44" y="-168"/>
    </contour>
    <contour>
      <point x="53" y="239" type="curve" smooth="yes"/>
      <point x="89" y="357"/>
      <point x="197" y="470"/>
      <point x="327" y="470" type="curve" smooth="yes"/>
      <point x="457" y="470"/>
      <point x="481" y="342"/>
      <point x="449" y="238" type="curve" smooth="yes"/>
      <point x="415" y="124"/>
      <point x="319" y="7"/>
      <point x="191" y="7" type="curve" smooth="yes"/>
      <point x="61" y="7"/>
      <point x="20" y="131"/>
    </contour>
    <contour>
      <point x="232" y="237" type="curve" smooth="yes"/>
      <point x="217" y="194"/>
      <point x="230" y="149"/>
      <point x="280" y="146" type="curve" smooth="yes"/>
      <point x="332" y="143"/>
      <point x="388" y="194"/>
      <point x="404" y="240" type="curve" smooth="yes"/>
      <point x="419" y="282"/>
      <point x="409" y="330"/>
      <point x="360" y="331" type="curve" smooth="yes"/>
      <point x="299" y="332"/>
      <point x="248" y="284"/>
    </contour>
  </outline>
</glyph>
<glyph name="h" format="1">
  <advance width="548"/>
  <unicode hex="0068"/>
  <outline>
    <contour>
      <point x="434" y="780" type="line"/>
      <point x="166" y="0" type="line"/>
      <point x="-7" y="0" type="line"/>
      <point x="260" y="780" type="line"/>
    </contour>
    <contour>
      <point x="375" y="280" type="line" smooth="yes"/>
      <point x="384" y="305"/>
      <point x="392" y="345"/>
      <point x="355" y="352" type="curve" smooth="yes"/>
      <point x="314" y="359"/>
      <point x="280" y="308"/>
      <point x="262" y="280" type="curve"/>
      <point x="233" y="282" type="line"/>
      <point x="269" y="378"/>
      <point x="334" y="477"/>
      <point x="449" y="479" type="curve" smooth="yes"/>
      <point x="557" y="481"/>
      <point x="580" y="396"/>
      <point x="551" y="307" type="curve"/>
      <point x="447" y="0" type="line"/>
      <point x="275" y="0" type="line"/>
    </contour>
  </outline>
</glyph>
<glyph name="i" format="1">
  <advance width="265"/>
  <unicode hex="0069"/>
  <outline>
    <contour>
      <point x="193" y="625" type="curve" smooth="yes"/>
      <point x="193" y="680"/>
      <point x="238" y="717"/>
      <point x="293" y="717" type="curve" smooth="yes"/>
      <point x="348" y="717"/>
      <point x="392" y="680"/>
      <point x="392" y="625" type="curve" smooth="yes"/>
      <point x="392" y="570"/>
      <point x="348" y="534"/>
      <point x="293" y="534" type="curve" smooth="yes"/>
      <point x="238" y="534"/>
      <point x="193" y="570"/>
    </contour>
    <contour>
      <point x="152" y="460" type="line"/>
      <point x="319" y="460" type="line"/>
      <point x="161" y="0" type="line"/>
      <point x="-5" y="0" type="line"/>
    </contour>
  </outline>
</glyph>
<glyph name="j" format="1">
  <advance width="262"/>
  <unicode hex="006A"/>
  <outline>
    <contour>
      <point x="191" y="625" type="curve" smooth="yes"/>
      <point x="191" y="680"/>
      <point x="236" y="717"/>
      <point x="291" y="717" type="curve" smooth="yes"/>
      <point x="346" y="717"/>
      <point x="391" y="680"/>
      <point x="391" y="625" type="curve" smooth="yes"/>
      <point x="391" y="570"/>
      <point x="346" y="534"/>
      <point x="291" y="534" type="curve" smooth="yes"/>
      <point x="236" y="534"/>
      <point x="191" y="570"/>
    </contour>
    <contour>
      <point x="-121" y="-65" type="line"/>
      <point x="-113" y="-76"/>
      <point x="-99" y="-90"/>
      <point x="-80" y="-90" type="curve" smooth="yes"/>
      <point x="-49" y="-91"/>
      <point x="-25" y="-52"/>
      <point x="-17" y="-28" type="curve" smooth="yes"/>
      <point x="152" y="460" type="line"/>
      <point x="317" y="460" type="line"/>
      <point x="135" y="-78" type="line" smooth="yes"/>
      <point x="99" y="-175"/>
      <point x="15" y="-245"/>
      <point x="-92" y="-244" type="curve" smooth="yes"/>
      <point x="-144" y="-244"/>
      <point x="-183" y="-222"/>
      <point x="-220" y="-188" type="curve"/>
    </contour>
  </outline>
</glyph>
<glyph name="k" format="1">
  <advance width="587"/>
  <unicode hex="006B"/>
  <outline>
    <contour>
      <point x="259" y="780" type="line"/>
      <point x="424" y="780" type="line"/>
      <point x="157" y="0" type="line"/>
      <point x="-7" y="0" type="line"/>
    </contour>
    <contour>
      <point x="459" y="459" type="line"/>
      <point x="675" y="459" type="line"/>
      <point x="413" y="262" type="line"/>
      <point x="521" y="0" type="line"/>
      <point x="338" y="0" type="line"/>
      <point x="219" y="279" type="line"/>
    </contour>
  </outline>
</glyph>
<glyph name="l" format="1">
  <advance width="267"/>
  <unicode hex="006C"/>
  <outline>
    <contour>
      <point x="260" y="780" type="line"/>
      <point x="434" y="780" type="line"/>
      <point x="165" y="0" type="line"/>
      <point x="-7" y="0" type="line"/>
    </contour>
  </outline>
</glyph>
<glyph name="m" format="1">
  <advance width="785"/>
  <unicode hex="006D"/>
  <outline>
    <contour>
      <point x="348" y="281" type="line" smooth="yes"/>
      <point x="354" y="302"/>
      <point x="367" y="345"/>
      <point x="334" y="352" type="curve" smooth="yes"/>
      <point x="298" y="360"/>
      <point x="267" y="305"/>
      <point x="253" y="281" type="curve"/>
      <point x="223" y="274" type="line"/>
      <point x="258" y="368"/>
      <point x="322" y="469"/>
      <point x="434" y="471" type="curve" smooth="yes"/>
      <point x="538" y="473"/>
      <point x="548" y="390"/>
      <point x="524" y="307" type="curve" smooth="yes"/>
      <point x="420" y="0" type="line"/>
      <point x="247" y="0" type="line"/>
    </contour>
    <contour>
      <point x="316" y="460" type="line"/>
      <point x="158" y="0" type="line"/>
      <point x="-7" y="0" type="line"/>
      <point x="151" y="460" type="line"/>
    </contour>
    <contour>
      <point x="784" y="298" type="curve" smooth="yes"/>
      <point x="684" y="0" type="line"/>
      <point x="510" y="0" type="line"/>
      <point x="611" y="280" type="line" smooth="yes"/>
      <point x="618" y="301"/>
      <point x="630" y="345"/>
      <point x="597" y="352" type="curve" smooth="yes"/>
      <point x="561" y="360"/>
      <point x="529" y="305"/>
      <point x="515" y="281" type="curve"/>
      <point x="460" y="274" type="line"/>
      <point x="500" y="372"/>
      <point x="580" y="470"/>
      <point x="696" y="471" type="curve" smooth="yes"/>
      <point x="803" y="472"/>
      <point x="809" y="381"/>
    </contour>
  </outline>
</glyph>
<glyph name="n" format="1">
  <advance width="556"/>
  <unicode hex="006E"/>
  <outline>
    <contour>
      <point x="324" y="460" type="line"/>
      <point x="166" y="0" type="line"/>
      <point x="-7" y="0" type="line"/>
      <point x="151" y="460" type="line"/>
    </contour>
    <contour>
      <point x="375" y="280" type="line" smooth="yes"/>
      <point x="384" y="306"/>
      <point x="391" y="345"/>
      <point x="354" y="352" type="curve" smooth="yes"/>
      <point x="313" y="359"/>
      <point x="281" y="309"/>
      <point x="262" y="281" type="curve"/>
      <point x="231" y="273" type="line"/>
      <point x="266" y="370"/>
      <point x="331" y="469"/>
      <point x="446" y="471" type="curve" smooth="yes"/>
      <point x="554" y="473"/>
      <point x="586" y="390"/>
      <point x="556" y="299" type="curve"/>
      <point x="455" y="0" type="line"/>
      <point x="275" y="0" type="line"/>
    </contour>
  </outline>
</glyph>
<glyph name="o" format="1">
  <advance width="568"/>
  <unicode hex="006F"/>
  <outline>
    <contour>
      <point x="63" y="231" type="curve" smooth="yes"/>
      <point x="101" y="371"/>
      <point x="241" y="471"/>
      <point x="385" y="471" type="curve" smooth="yes"/>
      <point x="522" y="471"/>
      <point x="617" y="365"/>
      <point x="580" y="229" type="curve" smooth="yes"/>
      <point x="542" y="89"/>
      <point x="402" y="-10"/>
      <point x="258" y="-10" type="curve" smooth="yes"/>
      <point x="122" y="-10"/>
      <point x="26" y="95"/>
    </contour>
    <contour>
      <point x="238" y="229" type="curve" smooth="yes"/>
      <point x="224" y="189"/>
      <point x="232" y="136"/>
      <point x="283" y="133" type="curve" smooth="yes"/>
      <point x="336" y="130"/>
      <point x="389" y="184"/>
      <point x="405" y="231" type="curve" smooth="yes"/>
      <point x="419" y="271"/>
      <point x="410" y="325"/>
      <point x="359" y="328" type="curve" smooth="yes"/>
      <point x="306" y="331"/>
      <point x="254" y="276"/>
    </contour>
  </outline>
</glyph>
<glyph name="p" format="1">
  <advance width="595"/>
  <unicode hex="0070"/>
  <outline>
    <contour>
      <point x="90" y="-220" type="line"/>
      <point x="-83" y="-220" type="line"/>
      <point x="150" y="460" type="line"/>
      <point x="322" y="460" type="line"/>
    </contour>
    <contour>
      <point x="594" y="229" type="curve" smooth="yes"/>
      <point x="558" y="110"/>
      <point x="450" y="-19"/>
      <point x="315" y="-18" type="curve" smooth="yes"/>
      <point x="177" y="-17"/>
      <point x="176" y="129"/>
      <point x="207" y="230" type="curve" smooth="yes"/>
      <point x="242" y="345"/>
      <point x="330" y="476"/>
      <point x="463" y="477" type="curve" smooth="yes"/>
      <point x="600" y="478"/>
      <point x="627" y="337"/>
    </contour>
    <contour>
      <point x="416" y="232" type="curve" smooth="yes"/>
      <point x="431" y="275"/>
      <point x="418" y="319"/>
      <point x="368" y="322" type="curve" smooth="yes"/>
      <point x="316" y="325"/>
      <point x="260" y="274"/>
      <point x="244" y="228" type="curve" smooth="yes"/>
      <point x="229" y="186"/>
      <point x="239" y="142"/>
      <point x="288" y="138" type="curve" smooth="yes"/>
      <point x="341" y="134"/>
      <point x="400" y="185"/>
    </contour>
  </outline>
</glyph>
<glyph name="q" format="1">
  <advance width="595"/>
  <unicode hex="0071"/>
  <outline>
    <contour>
      <point x="246" y="-220" type="line"/>
      <point x="479" y="460" type="line"/>
      <point x="653" y="460" type="line"/>
      <point x="419" y="-220" type="line"/>
    </contour>
    <contour>
      <point x="50" y="231" type="curve" smooth="yes"/>
      <point x="86" y="350"/>
      <point x="194" y="479"/>
      <point x="329" y="478" type="curve" smooth="yes"/>
      <point x="467" y="477"/>
      <point x="469" y="331"/>
      <point x="438" y="230" type="curve" smooth="yes"/>
      <point x="403" y="115"/>
      <point x="315" y="-16"/>
      <point x="182" y="-17" type="curve" smooth="yes"/>
      <point x="45" y="-18"/>
      <point x="17" y="123"/>
    </contour>
    <contour>
      <point x="229" y="228" type="curve" smooth="yes"/>
      <point x="214" y="185"/>
      <point x="227" y="141"/>
      <point x="277" y="138" type="curve" smooth="yes"/>
      <point x="329" y="135"/>
      <point x="384" y="186"/>
      <point x="400" y="232" type="curve" smooth="yes"/>
      <point x="415" y="274"/>
      <point x="406" y="318"/>
      <point x="357" y="322" type="curve" smooth="yes"/>
      <point x="304" y="326"/>
      <point x="245" y="275"/>
    </contour>
  </outline>
</glyph>
<glyph name="r" format="1">
  <advance width="418"/>
  <unicode hex="0072"/>
  <outline>
    <contour>
      <point x="320" y="460" type="line"/>
      <point x="161" y="0" type="line"/>
      <point x="-7" y="0" type="line"/>
      <point x="151" y="460" type="line"/>
    </contour>
    <contour>
      <point x="395" y="280" type="line"/>
      <point x="383" y="293"/>
      <point x="370" y="305"/>
      <point x="350" y="306" type="curve" smooth="yes"/>
      <point x="296" y="308"/>
      <point x="247" y="247"/>
      <point x="233" y="208" type="curve"/>
      <point x="235" y="282" type="line"/>
      <point x="269" y="364"/>
      <point x="358" y="472"/>
      <point x="435" y="472" type="curve" smooth="yes"/>
      <point x="469" y="472"/>
      <point x="489" y="451"/>
      <point x="509" y="427" type="curve"/>
    </contour>
  </outline>
</glyph>
<glyph name="s" format="1">
  <advance width="446"/>
  <unicode hex="0073"/>
  <outline>
    <contour>
      <point x="88" y="179" type="line"/>
      <point x="122" y="145"/>
      <point x="166" y="97"/>
      <point x="220" y="103" type="curve" smooth="yes"/>
      <point x="236" y="105"/>
      <point x="263" y="118"/>
      <point x="267" y="134" type="curve" smooth="yes"/>
      <point x="275" y="169"/>
      <point x="223" y="179"/>
      <point x="201" y="189" type="curve" smooth="yes"/>
      <point x="138" y="215"/>
      <point x="97" y="267"/>
      <point x="116" y="337" type="curve" smooth="yes"/>
      <point x="140" y="426"/>
      <point x="233" y="468"/>
      <point x="320" y="469" type="curve" smooth="yes"/>
      <point x="390" y="470"/>
      <point x="452" y="442"/>
      <point x="508" y="407" type="curve"/>
      <point x="429" y="293" type="line"/>
      <point x="400" y="323"/>
      <point x="366" y="354"/>
      <point x="321" y="354" type="curve" smooth="yes"/>
      <point x="305" y="354"/>
      <point x="276" y="346"/>
      <point x="270" y="329" type="curve" smooth="yes"/>
      <point x="257" y="293"/>
      <point x="329" y="280"/>
      <point x="350" y="271" type="curve" smooth="yes"/>
      <point x="410" y="246"/>
      <point x="451" y="196"/>
      <point x="435" y="128" type="curve" smooth="yes"/>
      <point x="411" y="31"/>
      <point x="324" y="-20"/>
      <point x="227" y="-22" type="curve" smooth="yes"/>
      <point x="140" y="-24"/>
      <point x="64" y="14"/>
      <point x="-2" y="61" type="curve"/>
    </contour>
  </outline>
</glyph>
<glyph name="t" format="1">
  <advance width="324"/>
  <unicode hex="0074"/>
  <outline>
    <contour>
      <point x="106" y="460" type="line"/>
      <point x="428" y="460" type="line"/>
      <point x="377" y="318" type="line"/>
      <point x="55" y="318" type="line"/>
    </contour>
    <contour>
      <point x="238" y="620" type="line"/>
      <point x="403" y="620" type="line"/>
      <point x="189" y="0" type="line"/>
      <point x="26" y="0" type="line"/>
    </contour>
  </outline>
</glyph>
<glyph name="u" format="1">
  <advance width="557"/>
  <unicode hex="0075"/>
  <outline>
    <contour>
      <point x="282" y="0" type="line"/>
      <point x="441" y="460" type="line"/>
      <point x="614" y="460" type="line"/>
      <point x="455" y="0" type="line"/>
    </contour>
    <contour>
      <point x="232" y="180" type="line"/>
      <point x="225" y="154"/>
      <point x="215" y="115"/>
      <point x="252" y="108" type="curve" smooth="yes"/>
      <point x="293" y="101"/>
      <point x="327" y="151"/>
      <point x="345" y="179" type="curve"/>
      <point x="375" y="186" type="line"/>
      <point x="340" y="90"/>
      <point x="274" y="-9"/>
      <point x="159" y="-11" type="curve" smooth="yes"/>
      <point x="51" y="-13"/>
      <point x="24" y="70"/>
      <point x="50" y="162" type="curve"/>
      <point x="151" y="460" type="line"/>
      <point x="332" y="460" type="line"/>
    </contour>
  </outline>
</glyph>
<glyph name="v" format="1">
  <advance width="523"/>
  <unicode hex="0076"/>
  <outline>
    <contour>
      <point x="105" y="460" type="line"/>
      <point x="282" y="460" type="line"/>
      <point x="299" y="237" type="line"/>
      <point x="458" y="459" type="line"/>
      <point x="644" y="459" type="line"/>
      <point x="213" y="-65" type="line"/>
    </contour>
  </outline>
</glyph>
<glyph name="w" format="1">
  <advance width="742"/>
  <unicode hex="0077"/>
  <outline>
    <contour>
      <point x="95" y="460" type="line"/>
      <point x="263" y="460" type="line"/>
      <point x="271" y="254" type="line"/>
      <point x="483" y="500" type="line"/>
      <point x="523" y="252" type="line"/>
      <point x="679" y="459" type="line"/>
      <point x="865" y="459" type="line"/>
      <point x="459" y="-30" type="line"/>
      <point x="399" y="220" type="line"/>
      <point x="163" y="-31" type="line"/>
    </contour>
  </outline>
</glyph>
<glyph name="x" format="1">
  <advance width="537"/>
  <unicode hex="0078"/>
  <outline>
    <contour>
      <point x="445" y="460" type="line"/>
      <point x="645" y="460" type="line"/>
      <point x="394" y="228" type="line"/>
      <point x="500" y="0" type="line"/>
      <point x="323" y="0" type="line"/>
      <point x="272" y="125" type="line"/>
      <point x="164" y="0" type="line"/>
      <point x="-44" y="0" type="line"/>
      <point x="216" y="253" type="line"/>
      <point x="121" y="460" type="line"/>
      <point x="304" y="460" type="line"/>
      <point x="342" y="356" type="line"/>
    </contour>
  </outline>
</glyph>
<glyph name="y" format="1">
  <advance width="516"/>
  <unicode hex="0079"/>
  <outline>
    <contour>
      <point x="640" y="459" type="line"/>
      <point x="124" y="-219" type="line"/>
      <point x="-54" y="-219" type="line"/>
      <point x="140" y="37" type="line"/>
      <point x="93" y="460" type="line"/>
      <point x="269" y="460" type="line"/>
      <point x="283" y="87" type="line"/>
      <point x="189" y="89" type="line"/>
      <point x="458" y="459" type="line"/>
    </contour>
  </outline>
</glyph>
<glyph name="z" format="1">
  <advance width="510"/>
  <unicode hex="007A"/>
  <outline>
    <contour>
      <point x="267" y="302" type="line"/>
      <point x="103" y="302" type="line"/>
      <point x="158" y="459" type="line"/>
      <point x="610" y="459" type="line"/>
      <point x="309" y="158" type="line"/>
      <point x="467" y="158" type="line"/>
      <point x="412" y="0" type="line"/>
      <point x="-49" y="0" type="line"/>
    </contour>
  </outline>
</glyph>
<glyph name="braceleft" format="1">
  <advance width="402"/>
  <unicode hex="007B"/>
  <outline>
    <contour>
      <point x="431" y="592" type="curve" smooth="yes"/>
      <point x="400" y="489" type="line" smooth="yes"/>
      <point x="363" y="374"/>
      <point x="308" y="299"/>
      <point x="184" y="281" type="curve"/>
      <point x="189" y="301" type="line"/>
      <point x="306" y="279"/>
      <point x="302" y="188"/>
      <point x="272" y="89" type="curve" smooth="yes"/>
      <point x="240" y="-13" type="line" smooth="yes"/>
      <point x="231" y="-41"/>
      <point x="237" y="-61"/>
      <point x="266" y="-62" type="curve" smooth="yes"/>
      <point x="304" y="-63" type="line"/>
      <point x="263" y="-199" type="line"/>
      <point x="175" y="-200" type="line" smooth="yes"/>
      <point x="92" y="-197"/>
      <point x="11" y="-151"/>
      <point x="39" y="-60" type="curve" smooth="yes"/>
      <point x="93" y="116" type="line" smooth="yes"/>
      <point x="108" y="167"/>
      <point x="111" y="197"/>
      <point x="65" y="226" type="curve"/>
      <point x="101" y="353" type="line"/>
      <point x="153" y="376"/>
      <point x="178" y="411"/>
      <point x="197" y="465" type="curve" smooth="yes"/>
      <point x="250" y="641" type="line" smooth="yes"/>
      <point x="279" y="732"/>
      <point x="366" y="776"/>
      <point x="457" y="780" type="curve"/>
      <point x="566" y="780" type="line"/>
      <point x="525" y="644" type="line"/>
      <point x="494" y="644" type="line" smooth="yes"/>
      <point x="464" y="644"/>
      <point x="440" y="622"/>
    </contour>
  </outline>
</glyph>
<glyph name="bar" format="1">
  <advance width="357"/>
  <unicode hex="007C"/>
  <outline>
    <contour>
      <point x="299" y="785" type="line"/>
      <point x="474" y="785" type="line"/>
      <point x="166" y="-215" type="line"/>
      <point x="-10" y="-215" type="line"/>
    </contour>
  </outline>
</glyph>
<glyph name="braceright" format="1">
  <advance width="424"/>
  <unicode hex="007D"/>
  <outline>
    <contour>
      <point x="131" y="-15" type="curve" smooth="yes"/>
      <point x="150" y="90" type="line" smooth="yes"/>
      <point x="166" y="179"/>
      <point x="191" y="300"/>
      <point x="341" y="300" type="curve"/>
      <point x="337" y="280" type="line"/>
      <point x="187" y="280"/>
      <point x="204" y="401"/>
      <point x="220" y="490" type="curve" smooth="yes"/>
      <point x="239" y="595" type="line" smooth="yes"/>
      <point x="244" y="621"/>
      <point x="230" y="645"/>
      <point x="200" y="645" type="curve" smooth="yes"/>
      <point x="166" y="645" type="line"/>
      <point x="190" y="780" type="line"/>
      <point x="290" y="780" type="line" smooth="yes"/>
      <point x="383" y="780"/>
      <point x="458" y="739"/>
      <point x="441" y="640" type="curve" smooth="yes"/>
      <point x="409" y="462" type="line" smooth="yes"/>
      <point x="396" y="386"/>
      <point x="410" y="362"/>
      <point x="454" y="352" type="curve"/>
      <point x="432" y="228" type="line"/>
      <point x="384" y="218"/>
      <point x="362" y="194"/>
      <point x="349" y="118" type="curve" smooth="yes"/>
      <point x="317" y="-60" type="line" smooth="yes"/>
      <point x="300" y="-159"/>
      <point x="210" y="-200"/>
      <point x="117" y="-200" type="curve" smooth="yes"/>
      <point x="17" y="-200" type="line"/>
      <point x="41" y="-65" type="line"/>
      <point x="75" y="-65" type="line" smooth="yes"/>
      <point x="105" y="-65"/>
      <point x="126" y="-41"/>
    </contour>
  </outline>
</glyph>
<glyph name="asciitilde" format="1">
  <advance width="575"/>
  <unicode hex="007E"/>
  <outline>
    <contour>
      <point x="188" y="160" type="curve"/>
      <point x="57" y="164" type="line"/>
      <point x="56" y="171"/>
      <point x="55" y="179"/>
      <point x="57" y="188" type="curve" smooth="yes"/>
      <point x="64" y="226"/>
      <point x="77" y="260"/>
      <point x="109" y="292" type="curve" smooth="yes"/>
      <point x="143" y="326"/>
      <point x="182" y="352"/>
      <point x="256" y="352" type="curve" smooth="yes"/>
      <point x="304" y="352"/>
      <point x="329" y="334"/>
      <point x="373" y="302" type="curve" smooth="yes"/>
      <point x="401" y="282"/>
      <point x="419" y="267"/>
      <point x="437" y="267" type="curve" smooth="yes"/>
      <point x="457" y="267"/>
      <point x="471" y="285"/>
      <point x="474" y="304" type="curve" smooth="yes"/>
      <point x="476" y="316"/>
      <point x="474" y="330"/>
      <point x="472" y="340" type="curve"/>
      <point x="605" y="334" type="line"/>
      <point x="606" y="326"/>
      <point x="606" y="316"/>
      <point x="604" y="306" type="curve" smooth="yes"/>
      <point x="598" y="270"/>
      <point x="588" y="234"/>
      <point x="556" y="202" type="curve" smooth="yes"/>
      <point x="524" y="168"/>
      <point x="488" y="148"/>
      <point x="428" y="148" type="curve" smooth="yes"/>
      <point x="386" y="148"/>
      <point x="356" y="166"/>
      <point x="310" y="198" type="curve" smooth="yes"/>
      <point x="282" y="218"/>
      <point x="259" y="233"/>
      <point x="234" y="233" type="curve" smooth="yes"/>
      <point x="203" y="233"/>
      <point x="191" y="208"/>
      <point x="188" y="190" type="curve" smooth="yes"/>
      <point x="185" y="174"/>
      <point x="186" y="168"/>
    </contour>
  </outline>
</glyph>
<glyph name="exclamdown" format="1">
  <advance width="337"/>
  <unicode hex="00A1"/>
  <outline>
    <contour>
      <point x="142" y="-224" type="line"/>
      <point x="-69" y="-224" type="line"/>
      <point x="123" y="234" type="line"/>
      <point x="265" y="234" type="line"/>
    </contour>
    <contour>
      <point x="357" y="404" type="curve" smooth="yes"/>
      <point x="342" y="350"/>
      <point x="283" y="310"/>
      <point x="228" y="310" type="curve" smooth="yes"/>
      <point x="173" y="310"/>
      <point x="135" y="352"/>
      <point x="150" y="408" type="curve" smooth="yes"/>
      <point x="165" y="462"/>
      <point x="224" y="503"/>
      <point x="279" y="503" type="curve" smooth="yes"/>
      <point x="334" y="503"/>
      <point x="372" y="460"/>
    </contour>
  </outline>
</glyph>
<glyph name="cent" format="1">
  <advance width="545"/>
  <unicode hex="00A2"/>
  <outline>
    <contour>
      <point x="164" y="38" type="line"/>
      <point x="290" y="38" type="line"/>
      <point x="248" y="-112" type="line"/>
      <point x="98" y="-112" type="line"/>
    </contour>
    <contour>
      <point x="233" y="229" type="curve" smooth="yes"/>
      <point x="214" y="178"/>
      <point x="236" y="132"/>
      <point x="293" y="129" type="curve" smooth="yes"/>
      <point x="347" y="126"/>
      <point x="397" y="160"/>
      <point x="439" y="189" type="curve"/>
      <point x="391" y="23" type="line"/>
      <point x="346" y="3"/>
      <point x="299" y="-10"/>
      <point x="249" y="-10" type="curve" smooth="yes"/>
      <point x="112" y="-9"/>
      <point x="17" y="93"/>
      <point x="58" y="231" type="curve" smooth="yes"/>
      <point x="101" y="374"/>
      <point x="246" y="469"/>
      <point x="392" y="470" type="curve" smooth="yes"/>
      <point x="440" y="470"/>
      <point x="482" y="457"/>
      <point x="524" y="435" type="curve"/>
      <point x="475" y="269" type="line"/>
      <point x="453" y="306"/>
      <point x="427" y="333"/>
      <point x="381" y="333" type="curve" smooth="yes"/>
      <point x="321" y="333"/>
      <point x="254" y="285"/>
    </contour>
    <contour>
      <point x="338" y="578" type="line"/>
      <point x="487" y="578" type="line"/>
      <point x="423" y="428" type="line"/>
      <point x="297" y="428" type="line"/>
    </contour>
  </outline>
</glyph>
<glyph name="sterling" format="1">
  <advance width="584"/>
  <unicode hex="00A3"/>
  <outline>
    <contour>
      <point x="133" y="370" type="line"/>
      <point x="501" y="370" type="line"/>
      <point x="463" y="261" type="line"/>
      <point x="93" y="261" type="line"/>
    </contour>
    <contour>
      <point x="512" y="463" type="line"/>
      <point x="518" y="506"/>
      <point x="520" y="555"/>
      <point x="464" y="557" type="curve" smooth="yes"/>
      <point x="419" y="559"/>
      <point x="374" y="525"/>
      <point x="357" y="485" type="curve" smooth="yes"/>
      <point x="326" y="415"/>
      <point x="391" y="343"/>
      <point x="370" y="271" type="curve" smooth="yes"/>
      <point x="337" y="153"/>
      <point x="199" y="85"/>
      <point x="91" y="54" type="curve"/>
      <point x="186" y="159" type="line"/>
      <point x="519" y="160" type="line"/>
      <point x="463" y="0" type="line"/>
      <point x="-10" y="0" type="line"/>
      <point x="75" y="89"/>
      <point x="180" y="176"/>
      <point x="215" y="300" type="curve" smooth="yes"/>
      <point x="238" y="379"/>
      <point x="169" y="444"/>
      <point x="190" y="523" type="curve" smooth="yes"/>
      <point x="223" y="645"/>
      <point x="370" y="709"/>
      <point x="487" y="709" type="curve" smooth="yes"/>
      <point x="603" y="709"/>
      <point x="690" y="639"/>
      <point x="681" y="520" type="curve"/>
    </contour>
  </outline>
</glyph>
<glyph name="currency" format="1">
  <advance width="575"/>
  <unicode hex="00A4"/>
  <outline>
    <contour>
      <point x="109" y="503" type="line"/>
      <point x="187" y="570" type="line"/>
      <point x="269" y="468" type="line"/>
      <point x="193" y="402" type="line"/>
    </contour>
    <contour>
      <point x="91" y="30" type="line"/>
      <point x="37" y="97" type="line"/>
      <point x="157" y="198" type="line"/>
      <point x="209" y="132" type="line"/>
    </contour>
    <contour>
      <point x="527" y="402" type="line"/>
      <point x="473" y="468" type="line"/>
      <point x="593" y="570" type="line"/>
      <point x="645" y="503" type="line"/>
    </contour>
    <contour>
      <point x="413" y="132" type="line"/>
      <point x="491" y="198" type="line"/>
      <point x="573" y="97" type="line"/>
      <point x="497" y="30" type="line"/>
    </contour>
    <contour>
      <point x="103" y="300" type="curve" smooth="yes"/>
      <point x="128" y="439"/>
      <point x="248" y="540"/>
      <point x="383" y="540" type="curve" smooth="yes"/>
      <point x="518" y="540"/>
      <point x="604" y="439"/>
      <point x="579" y="300" type="curve" smooth="yes"/>
      <point x="554" y="161"/>
      <point x="434" y="60"/>
      <point x="299" y="60" type="curve" smooth="yes"/>
      <point x="164" y="60"/>
      <point x="78" y="161"/>
    </contour>
    <contour>
      <point x="257" y="300" type="curve" smooth="yes"/>
      <point x="248" y="248"/>
      <point x="276" y="216"/>
      <point x="326" y="216" type="curve" smooth="yes"/>
      <point x="376" y="216"/>
      <point x="416" y="248"/>
      <point x="425" y="300" type="curve" smooth="yes"/>
      <point x="434" y="352"/>
      <point x="406" y="384"/>
      <point x="356" y="384" type="curve" smooth="yes"/>
      <point x="306" y="384"/>
      <point x="266" y="352"/>
    </contour>
  </outline>
</glyph>
<glyph name="yen" format="1">
  <advance width="696"/>
  <unicode hex="00A5"/>
  <outline>
    <contour>
      <point x="311" y="360" type="line"/>
      <point x="511" y="360" type="line"/>
      <point x="448" y="0" type="line"/>
      <point x="248" y="0" type="line"/>
    </contour>
    <contour>
      <point x="595" y="700" type="line"/>
      <point x="819" y="700" type="line"/>
      <point x="367" y="111" type="line"/>
      <point x="122" y="700" type="line"/>
      <point x="347" y="700" type="line"/>
      <point x="427" y="456" type="line"/>
    </contour>
    <contour>
      <point x="64" y="108" type="line"/>
      <point x="83" y="215" type="line"/>
      <point x="686" y="215" type="line"/>
      <point x="667" y="108" type="line"/>
    </contour>
    <contour>
      <point x="90" y="258" type="line"/>
      <point x="109" y="365" type="line"/>
      <point x="712" y="365" type="line"/>
      <point x="693" y="258" type="line"/>
    </contour>
  </outline>
</glyph>
<glyph name="brokenbar" format="1">
  <advance width="357"/>
  <unicode hex="00A6"/>
  <outline>
    <contour>
      <point x="275" y="695" type="line"/>
      <point x="451" y="695" type="line"/>
      <point x="356" y="421" type="line"/>
      <point x="180" y="421" type="line"/>
    </contour>
    <contour>
      <point x="309" y="279" type="line"/>
      <point x="213" y="5" type="line"/>
      <point x="37" y="5" type="line"/>
      <point x="133" y="279" type="line"/>
    </contour>
  </outline>
</glyph>
<glyph name="section" format="1">
  <advance width="597"/>
  <unicode hex="00A7"/>
  <outline>
    <contour>
      <point x="545" y="540" type="line"/>
      <point x="521" y="563"/>
      <point x="494" y="587"/>
      <point x="459" y="586" type="curve" smooth="yes"/>
      <point x="444" y="586"/>
      <point x="404" y="576"/>
      <point x="401" y="558" type="curve" smooth="yes"/>
      <point x="397" y="533"/>
      <point x="457" y="529"/>
      <point x="472" y="524" type="curve" smooth="yes"/>
      <point x="537" y="505"/>
      <point x="584" y="449"/>
      <point x="564" y="379" type="curve" smooth="yes"/>
      <point x="531" y="264"/>
      <point x="398" y="233"/>
      <point x="294" y="227" type="curve"/>
      <point x="308" y="269" type="line"/>
      <point x="343" y="282"/>
      <point x="388" y="299"/>
      <point x="401" y="338" type="curve" smooth="yes"/>
      <point x="421" y="393"/>
      <point x="355" y="410"/>
      <point x="318" y="428" type="curve" smooth="yes"/>
      <point x="260" y="457"/>
      <point x="228" y="511"/>
      <point x="246" y="576" type="curve" smooth="yes"/>
      <point x="274" y="674"/>
      <point x="382" y="726"/>
      <point x="477" y="727" type="curve" smooth="yes"/>
      <point x="546" y="728"/>
      <point x="604" y="704"/>
      <point x="648" y="654" type="curve"/>
    </contour>
    <contour>
      <point x="128" y="176" type="line"/>
      <point x="164" y="144"/>
      <point x="206" y="113"/>
      <point x="259" y="116" type="curve" smooth="yes"/>
      <point x="276" y="117"/>
      <point x="315" y="124"/>
      <point x="320" y="144" type="curve" smooth="yes"/>
      <point x="328" y="173"/>
      <point x="270" y="179"/>
      <point x="253" y="186" type="curve" smooth="yes"/>
      <point x="189" y="205"/>
      <point x="123" y="251"/>
      <point x="143" y="327" type="curve" smooth="yes"/>
      <point x="174" y="443"/>
      <point x="317" y="472"/>
      <point x="419" y="478" type="curve"/>
      <point x="406" y="437" type="line"/>
      <point x="372" y="424"/>
      <point x="325" y="407"/>
      <point x="312" y="368" type="curve" smooth="yes"/>
      <point x="293" y="311"/>
      <point x="370" y="301"/>
      <point x="406" y="284" type="curve" smooth="yes"/>
      <point x="467" y="255"/>
      <point x="504" y="196"/>
      <point x="484" y="129" type="curve" smooth="yes"/>
      <point x="455" y="28"/>
      <point x="339" y="-25"/>
      <point x="241" y="-27" type="curve" smooth="yes"/>
      <point x="155" y="-29"/>
      <point x="83" y="5"/>
      <point x="25" y="62" type="curve"/>
    </contour>
  </outline>
</glyph>
<glyph name="dieresis" format="1">
  <advance width="494"/>
  <unicode hex="00A8"/>
  <outline>
    <contour>
      <point x="430" y="624" type="curve" smooth="yes"/>
      <point x="442" y="672"/>
      <point x="498" y="712"/>
      <point x="548" y="712" type="curve" smooth="yes"/>
      <point x="598" y="712"/>
      <point x="635" y="670"/>
      <point x="622" y="620" type="curve" smooth="yes"/>
      <point x="610" y="572"/>
      <point x="555" y="532"/>
      <point x="505" y="532" type="curve" smooth="yes"/>
      <point x="455" y="532"/>
      <point x="417" y="574"/>
    </contour>
    <contour>
      <point x="186" y="624" type="curve" smooth="yes"/>
      <point x="198" y="672"/>
      <point x="254" y="712"/>
      <point x="304" y="712" type="curve" smooth="yes"/>
      <point x="354" y="712"/>
      <point x="392" y="670"/>
      <point x="379" y="620" type="curve" smooth="yes"/>
      <point x="367" y="572"/>
      <point x="312" y="532"/>
      <point x="262" y="532" type="curve" smooth="yes"/>
      <point x="211" y="532"/>
      <point x="173" y="574"/>
    </contour>
  </outline>
</glyph>
<glyph name="copyright" format="1">
  <advance width="752"/>
  <unicode hex="00A9"/>
  <outline>
    <contour>
      <point x="363" y="349" type="curve" smooth="yes"/>
      <point x="344" y="294"/>
      <point x="370" y="246"/>
      <point x="430" y="243" type="curve" smooth="yes"/>
      <point x="480" y="241"/>
      <point x="525" y="269"/>
      <point x="566" y="294" type="curve"/>
      <point x="534" y="170" type="line"/>
      <point x="494" y="147"/>
      <point x="452" y="131"/>
      <point x="404" y="130" type="curve" smooth="yes"/>
      <point x="279" y="129"/>
      <point x="203" y="231"/>
      <point x="236" y="351" type="curve" smooth="yes"/>
      <point x="270" y="477"/>
      <point x="391" y="571"/>
      <point x="521" y="571" type="curve" smooth="yes"/>
      <point x="566" y="571"/>
      <point x="603" y="555"/>
      <point x="640" y="529" type="curve"/>
      <point x="608" y="405" type="line"/>
      <point x="583" y="436"/>
      <point x="556" y="458"/>
      <point x="513" y="458" type="curve" smooth="yes"/>
      <point x="449" y="458"/>
      <point x="384" y="409"/>
    </contour>
    <contour>
      <point x="166" y="350" type="curve" smooth="yes"/>
      <point x="118" y="207"/>
      <point x="175" y="43"/>
      <point x="345" y="41" type="curve" smooth="yes"/>
      <point x="521" y="39"/>
      <point x="680" y="190"/>
      <point x="734" y="350" type="curve" smooth="yes"/>
      <point x="782" y="493"/>
      <point x="725" y="657"/>
      <point x="555" y="659" type="curve" smooth="yes"/>
      <point x="379" y="661"/>
      <point x="220" y="510"/>
    </contour>
    <contour>
      <point x="108" y="350" type="curve" smooth="yes"/>
      <point x="161" y="541"/>
      <point x="346" y="711"/>
      <point x="550" y="710" type="curve" smooth="yes"/>
      <point x="748" y="709"/>
      <point x="841" y="528"/>
      <point x="792" y="350" type="curve" smooth="yes"/>
      <point x="739" y="159"/>
      <point x="553" y="-11"/>
      <point x="349" y="-10" type="curve" smooth="yes"/>
      <point x="151" y="-9"/>
      <point x="59" y="172"/>
    </contour>
  </outline>
</glyph>
<glyph name="ordfeminine" format="1">
  <advance width="264"/>
  <unicode hex="00AA"/>
  <outline>
    <contour>
      <point x="226" y="528" type="curve" smooth="yes"/>
      <point x="224" y="519"/>
      <point x="231" y="510"/>
      <point x="240" y="510" type="curve" smooth="yes"/>
      <point x="268" y="510"/>
      <point x="286" y="534"/>
      <point x="302" y="553" type="curve"/>
      <point x="300" y="522" type="line"/>
      <point x="277" y="486"/>
      <point x="249" y="456"/>
      <point x="203" y="456" type="curve" smooth="yes"/>
      <point x="162" y="456"/>
      <point x="127" y="486"/>
      <point x="139" y="529" type="curve" smooth="yes"/>
      <point x="152" y="575"/>
      <point x="210" y="598"/>
      <point x="253" y="599" type="curve" smooth="yes"/>
      <point x="282" y="600"/>
      <point x="304" y="590"/>
      <point x="328" y="576" type="curve"/>
      <point x="315" y="538" type="line"/>
      <point x="302" y="547"/>
      <point x="289" y="556"/>
      <point x="272" y="555" type="curve" smooth="yes"/>
      <point x="258" y="555"/>
      <point x="230" y="543"/>
    </contour>
    <contour>
      <point x="221" y="616" type="curve"/>
      <point x="212" y="682" type="line"/>
      <point x="246" y="693"/>
      <point x="281" y="705"/>
      <point x="318" y="705" type="curve" smooth="yes"/>
      <point x="365" y="705"/>
      <point x="416" y="684"/>
      <point x="407" y="628" type="curve"/>
      <point x="351" y="460" type="line"/>
      <point x="266" y="461" type="line"/>
      <point x="320" y="602" type="line"/>
      <point x="318" y="618"/>
      <point x="320" y="629"/>
      <point x="301" y="634" type="curve" smooth="yes"/>
      <point x="276" y="640"/>
      <point x="244" y="624"/>
    </contour>
  </outline>
</glyph>
<glyph name="guillemotleft" format="1">
  <advance width="518"/>
  <unicode hex="00AB"/>
  <outline>
    <contour>
      <point x="385" y="251" type="line"/>
      <point x="460" y="58" type="line"/>
      <point x="339" y="-8" type="line"/>
      <point x="261" y="265" type="line"/>
      <point x="505" y="514" type="line"/>
      <point x="593" y="437" type="line"/>
    </contour>
    <contour>
      <point x="179" y="251" type="line"/>
      <point x="254" y="58" type="line"/>
      <point x="133" y="-8" type="line"/>
      <point x="55" y="265" type="line"/>
      <point x="299" y="514" type="line"/>
      <point x="386" y="437" type="line"/>
    </contour>
  </outline>
</glyph>
<glyph name="logicalnot" format="1">
  <advance width="621"/>
  <unicode hex="00AC"/>
  <outline>
    <contour>
      <point x="98" y="263" type="line"/>
      <point x="146" y="413" type="line"/>
      <point x="652" y="413" type="line"/>
      <point x="569" y="175" type="line"/>
      <point x="453" y="175" type="line"/>
      <point x="490" y="263" type="line"/>
    </contour>
  </outline>
</glyph>
<glyph name="uni00AD" format="1">
  <advance width="197"/>
  <unicode hex="00AD"/>
  <outline>
    <contour>
      <point x="21" y="201" type="line"/>
      <point x="44" y="275" type="line"/>
      <point x="238" y="275" type="line"/>
      <point x="213" y="201" type="line"/>
    </contour>
  </outline>
</glyph>
<glyph name="registered" format="1">
  <advance width="752"/>
  <unicode hex="00AE"/>
  <outline>
    <contour>
      <point x="428" y="317" type="line"/>
      <point x="524" y="317" type="line"/>
      <point x="575" y="150" type="line"/>
      <point x="448" y="150" type="line"/>
    </contour>
    <contour>
      <point x="371" y="570" type="line"/>
      <point x="489" y="570" type="line"/>
      <point x="358" y="150" type="line"/>
      <point x="240" y="150" type="line"/>
    </contour>
    <contour>
      <point x="413" y="470" type="line"/>
      <point x="443" y="569" type="line"/>
      <point x="522" y="570" type="line"/>
      <point x="600" y="567"/>
      <point x="674" y="525"/>
      <point x="652" y="436" type="curve" smooth="yes"/>
      <point x="630" y="346"/>
      <point x="542" y="301"/>
      <point x="455" y="297" type="curve"/>
      <point x="356" y="296" type="line"/>
      <point x="385" y="386" type="line"/>
      <point x="458" y="387" type="line"/>
      <point x="483" y="389"/>
      <point x="521" y="402"/>
      <point x="529" y="430" type="curve" smooth="yes"/>
      <point x="536" y="455"/>
      <point x="515" y="468"/>
      <point x="495" y="470" type="curve"/>
    </contour>
    <contour>
      <point x="166" y="350" type="curve" smooth="yes"/>
      <point x="118" y="207"/>
      <point x="175" y="43"/>
      <point x="345" y="41" type="curve" smooth="yes"/>
      <point x="521" y="39"/>
      <point x="680" y="190"/>
      <point x="734" y="350" type="curve" smooth="yes"/>
      <point x="782" y="493"/>
      <point x="725" y="657"/>
      <point x="555" y="659" type="curve" smooth="yes"/>
      <point x="379" y="661"/>
      <point x="220" y="510"/>
    </contour>
    <contour>
      <point x="108" y="350" type="curve" smooth="yes"/>
      <point x="161" y="541"/>
      <point x="346" y="711"/>
      <point x="550" y="710" type="curve" smooth="yes"/>
      <point x="748" y="709"/>
      <point x="841" y="528"/>
      <point x="792" y="350" type="curve" smooth="yes"/>
      <point x="739" y="159"/>
      <point x="553" y="-11"/>
      <point x="349" y="-10" type="curve" smooth="yes"/>
      <point x="151" y="-9"/>
      <point x="59" y="172"/>
    </contour>
  </outline>
</glyph>
<glyph name="macron" format="1">
  <advance width="506"/>
  <unicode hex="00AF"/>
  <outline>
    <contour>
      <point x="211" y="562" type="line"/>
      <point x="258" y="713" type="line"/>
      <point x="622" y="713" type="line"/>
      <point x="574" y="562" type="line"/>
    </contour>
  </outline>
</glyph>
<glyph name="degree" format="1">
  <advance width="284"/>
  <unicode hex="00B0"/>
  <outline>
    <contour>
      <point x="161" y="598" type="curve" smooth="yes"/>
      <point x="180" y="666"/>
      <point x="254" y="719"/>
      <point x="324" y="719" type="curve" smooth="yes"/>
      <point x="394" y="719"/>
      <point x="442" y="663"/>
      <point x="422" y="594" type="curve" smooth="yes"/>
      <point x="403" y="525"/>
      <point x="329" y="473"/>
      <point x="258" y="473" type="curve" smooth="yes"/>
      <point x="188" y="473"/>
      <point x="141" y="530"/>
    </contour>
    <contour>
      <point x="245" y="594" type="curve" smooth="yes"/>
      <point x="239" y="576"/>
      <point x="245" y="549"/>
      <point x="268" y="547" type="curve" smooth="yes"/>
      <point x="294" y="545"/>
      <point x="329" y="575"/>
      <point x="337" y="597" type="curve" smooth="yes"/>
      <point x="343" y="615"/>
      <point x="337" y="644"/>
      <point x="314" y="646" type="curve" smooth="yes"/>
      <point x="288" y="648"/>
      <point x="253" y="616"/>
    </contour>
  </outline>
</glyph>
<glyph name="plusminus" format="1">
  <advance width="601"/>
  <unicode hex="00B1"/>
  <outline>
    <contour>
      <point x="26" y="8" type="line"/>
      <point x="73" y="156" type="line"/>
      <point x="559" y="156" type="line"/>
      <point x="512" y="8" type="line"/>
    </contour>
    <contour>
      <point x="125" y="328" type="line"/>
      <point x="174" y="484" type="line"/>
      <point x="660" y="484" type="line"/>
      <point x="611" y="328" type="line"/>
    </contour>
    <contour>
      <point x="372" y="620" type="line"/>
      <point x="546" y="620" type="line"/>
      <point x="412" y="192" type="line"/>
      <point x="239" y="192" type="line"/>
    </contour>
  </outline>
</glyph>
<glyph name="uni00B2" format="1">
  <advance width="404"/>
  <unicode hex="00B2"/>
  <outline>
    <contour>
      <point x="57" y="283" type="line"/>
      <point x="294" y="469" type="line" smooth="yes"/>
      <point x="326" y="493"/>
      <point x="378" y="525"/>
      <point x="389" y="566" type="curve" smooth="yes"/>
      <point x="394" y="585"/>
      <point x="389" y="607"/>
      <point x="367" y="609" type="curve" smooth="yes"/>
      <point x="330" y="613"/>
      <point x="305" y="569"/>
      <point x="289" y="543" type="curve"/>
      <point x="173" y="545" type="line"/>
      <point x="210" y="635"/>
      <point x="283" y="711"/>
      <point x="387" y="711" type="curve" smooth="yes"/>
      <point x="465" y="711"/>
      <point x="533" y="655"/>
      <point x="510" y="572" type="curve" smooth="yes"/>
      <point x="497" y="525"/>
      <point x="458" y="490"/>
      <point x="420" y="462" type="curve" smooth="yes"/>
      <point x="317" y="392" type="line"/>
      <point x="461" y="390" type="line"/>
      <point x="423" y="282" type="line"/>
    </contour>
  </outline>
</glyph>
<glyph name="uni00B3" format="1">
  <advance width="359"/>
  <unicode hex="00B3"/>
  <outline>
    <contour>
      <point x="260" y="483" type="curve"/>
      <point x="275" y="531" type="line"/>
      <point x="306" y="537"/>
      <point x="357" y="548"/>
      <point x="367" y="584" type="curve" smooth="yes"/>
      <point x="371" y="600"/>
      <point x="361" y="614"/>
      <point x="345" y="614" type="curve" smooth="yes"/>
      <point x="317" y="614"/>
      <point x="298" y="591"/>
      <point x="282" y="572" type="curve"/>
      <point x="171" y="574" type="line"/>
      <point x="206" y="650"/>
      <point x="270" y="706"/>
      <point x="358" y="708" type="curve" smooth="yes"/>
      <point x="426" y="709"/>
      <point x="503" y="668"/>
      <point x="480" y="589" type="curve" smooth="yes"/>
      <point x="453" y="498"/>
      <point x="339" y="487"/>
    </contour>
    <contour>
      <point x="224" y="269" type="curve" smooth="yes"/>
      <point x="131" y="271"/>
      <point x="89" y="334"/>
      <point x="99" y="421" type="curve"/>
      <point x="210" y="421" type="line"/>
      <point x="210" y="395"/>
      <point x="207" y="367"/>
      <point x="241" y="363" type="curve" smooth="yes"/>
      <point x="266" y="360"/>
      <point x="305" y="386"/>
      <point x="313" y="410" type="curve" smooth="yes"/>
      <point x="327" y="452"/>
      <point x="276" y="456"/>
      <point x="248" y="461" type="curve"/>
      <point x="267" y="516" type="line"/>
      <point x="340" y="512"/>
      <point x="454" y="494"/>
      <point x="426" y="394" type="curve" smooth="yes"/>
      <point x="403" y="310"/>
      <point x="304" y="267"/>
    </contour>
  </outline>
</glyph>
<glyph name="acute" format="1">
  <advance width="352"/>
  <unicode hex="00B4"/>
  <outline>
    <contour>
      <point x="475" y="646" type="line"/>
      <point x="265" y="503" type="line"/>
      <point x="174" y="555" type="line"/>
      <point x="359" y="708" type="line"/>
    </contour>
  </outline>
</glyph>
<glyph name="mu" format="1">
  <advance width="556"/>
  <unicode hex="00B5"/>
  <outline>
    <contour>
      <point x="282" y="0" type="line"/>
      <point x="441" y="460" type="line"/>
      <point x="613" y="460" type="line"/>
      <point x="455" y="0" type="line"/>
    </contour>
    <contour>
      <point x="232" y="180" type="line"/>
      <point x="225" y="154"/>
      <point x="215" y="115"/>
      <point x="252" y="108" type="curve" smooth="yes"/>
      <point x="293" y="101"/>
      <point x="326" y="151"/>
      <point x="345" y="179" type="curve"/>
      <point x="377" y="187" type="line"/>
      <point x="341" y="90"/>
      <point x="274" y="-9"/>
      <point x="159" y="-11" type="curve" smooth="yes"/>
      <point x="51" y="-13"/>
      <point x="24" y="69"/>
      <point x="50" y="161" type="curve"/>
      <point x="151" y="460" type="line"/>
      <point x="331" y="460" type="line"/>
    </contour>
    <contour>
      <point x="151" y="460" type="line"/>
      <point x="316" y="460" type="line"/>
      <point x="48" y="-320" type="line"/>
      <point x="-116" y="-320" type="line"/>
    </contour>
  </outline>
</glyph>
<glyph name="paragraph" format="1">
  <advance width="662"/>
  <unicode hex="00B6"/>
  <outline>
    <contour>
      <point x="417" y="597" type="line"/>
      <point x="453" y="700" type="line"/>
      <point x="687" y="700" type="line"/>
      <point x="651" y="597" type="line"/>
    </contour>
    <contour>
      <point x="644" y="700" type="line"/>
      <point x="795" y="700" type="line"/>
      <point x="480" y="-220" type="line"/>
      <point x="328" y="-220" type="line"/>
    </contour>
    <contour>
      <point x="453" y="700" type="line"/>
      <point x="605" y="700" type="line"/>
      <point x="289" y="-220" type="line"/>
      <point x="138" y="-220" type="line"/>
    </contour>
    <contour>
      <point x="315" y="271" type="line"/>
      <point x="196" y="284"/>
      <point x="128" y="365"/>
      <point x="165" y="486" type="curve" smooth="yes"/>
      <point x="205" y="618"/>
      <point x="322" y="700"/>
      <point x="453" y="700" type="curve"/>
    </contour>
  </outline>
</glyph>
<glyph name="periodcentered" format="1">
  <advance width="310"/>
  <unicode hex="00B7"/>
  <outline>
    <contour>
      <point x="91" y="280" type="curve" smooth="yes"/>
      <point x="106" y="334"/>
      <point x="167" y="383"/>
      <point x="224" y="383" type="curve" smooth="yes"/>
      <point x="282" y="383"/>
      <point x="316" y="330"/>
      <point x="301" y="276" type="curve" smooth="yes"/>
      <point x="286" y="222"/>
      <point x="225" y="173"/>
      <point x="168" y="173" type="curve" smooth="yes"/>
      <point x="110" y="173"/>
      <point x="76" y="226"/>
    </contour>
  </outline>
</glyph>
<glyph name="cedilla" format="1">
  <advance width="384"/>
  <unicode hex="00B8"/>
  <outline>
    <contour>
      <point x="132" y="74" type="line"/>
      <point x="267" y="69" type="line"/>
      <point x="125" y="-56" type="line"/>
      <point x="137" y="-53"/>
      <point x="151" y="-50"/>
      <point x="163" y="-51" type="curve" smooth="yes"/>
      <point x="219" y="-55"/>
      <point x="246" y="-106"/>
      <point x="231" y="-158" type="curve" smooth="yes"/>
      <point x="211" y="-227"/>
      <point x="135" y="-267"/>
      <point x="68" y="-270" type="curve" smooth="yes"/>
      <point x="13" y="-273"/>
      <point x="-37" y="-253"/>
      <point x="-84" y="-227" type="curve"/>
      <point x="-17" y="-154" type="line"/>
      <point x="5" y="-167"/>
      <point x="30" y="-180"/>
      <point x="57" y="-179" type="curve" smooth="yes"/>
      <point x="75" y="-178"/>
      <point x="124" y="-164"/>
      <point x="127" y="-141" type="curve" smooth="yes"/>
      <point x="130" y="-120"/>
      <point x="97" y="-115"/>
      <point x="84" y="-114" type="curve" smooth="yes"/>
      <point x="52" y="-112"/>
      <point x="20" y="-120"/>
      <point x="-12" y="-126" type="curve"/>
    </contour>
  </outline>
</glyph>
<glyph name="uni00B9" format="1">
  <advance width="458"/>
  <unicode hex="00B9"/>
  <outline>
    <contour>
      <point x="252" y="556" type="line"/>
      <point x="288" y="661" type="line"/>
      <point x="519" y="705" type="line"/>
      <point x="371" y="274" type="line"/>
      <point x="256" y="274" type="line"/>
      <point x="362" y="580" type="line"/>
    </contour>
  </outline>
</glyph>
<glyph name="ordmasculine" format="1">
  <advance width="261"/>
  <unicode hex="00BA"/>
  <outline>
    <contour>
      <point x="158" y="582" type="curve" smooth="yes"/>
      <point x="177" y="650"/>
      <point x="250" y="699"/>
      <point x="319" y="699" type="curve" smooth="yes"/>
      <point x="388" y="699"/>
      <point x="439" y="647"/>
      <point x="419" y="578" type="curve" smooth="yes"/>
      <point x="400" y="509"/>
      <point x="326" y="461"/>
      <point x="257" y="461" type="curve" smooth="yes"/>
      <point x="188" y="461"/>
      <point x="138" y="513"/>
    </contour>
    <contour>
      <point x="246" y="578" type="curve" smooth="yes"/>
      <point x="240" y="562"/>
      <point x="244" y="535"/>
      <point x="266" y="533" type="curve" smooth="yes"/>
      <point x="290" y="531"/>
      <point x="323" y="561"/>
      <point x="330" y="582" type="curve" smooth="yes"/>
      <point x="336" y="598"/>
      <point x="332" y="626"/>
      <point x="310" y="628" type="curve" smooth="yes"/>
      <point x="286" y="630"/>
      <point x="253" y="599"/>
    </contour>
  </outline>
</glyph>
<glyph name="guillemotright" format="1">
  <advance width="518"/>
  <unicode hex="00BB"/>
  <outline>
    <contour>
      <point x="200" y="259" type="line"/>
      <point x="125" y="452" type="line"/>
      <point x="246" y="518" type="line"/>
      <point x="324" y="245" type="line"/>
      <point x="81" y="-4" type="line"/>
      <point x="-8" y="73" type="line"/>
    </contour>
    <contour>
      <point x="407" y="259" type="line"/>
      <point x="331" y="452" type="line"/>
      <point x="452" y="518" type="line"/>
      <point x="531" y="245" type="line"/>
      <point x="286" y="-4" type="line"/>
      <point x="198" y="73" type="line"/>
    </contour>
  </outline>
</glyph>
<glyph name="onequarter" format="1">
  <advance width="796"/>
  <unicode hex="00BC"/>
  <outline>
    <contour>
      <point x="774" y="699" type="line"/>
      <point x="892" y="699" type="line"/>
      <point x="163" y="0" type="line"/>
      <point x="45" y="0" type="line"/>
    </contour>
    <contour>
      <point x="153" y="556" type="line"/>
      <point x="189" y="661" type="line"/>
      <point x="420" y="705" type="line"/>
      <point x="272" y="274" type="line"/>
      <point x="157" y="274" type="line"/>
      <point x="263" y="580" type="line"/>
    </contour>
    <contour>
      <point x="346" y="72" type="line"/>
      <point x="467" y="153" type="line"/>
      <point x="641" y="154" type="line"/>
      <point x="658" y="172" type="line"/>
      <point x="778" y="172" type="line"/>
      <point x="742" y="71" type="line"/>
    </contour>
    <contour>
      <point x="489" y="111" type="line"/>
      <point x="337" y="64" type="line"/>
      <point x="700" y="419" type="line"/>
      <point x="801" y="420" type="line"/>
      <point x="656" y="0" type="line"/>
      <point x="532" y="0" type="line"/>
      <point x="564" y="92" type="line"/>
      <point x="580" y="98" type="line"/>
      <point x="632" y="244" type="line"/>
    </contour>
  </outline>
</glyph>
<glyph name="onehalf" format="1">
  <advance width="865"/>
  <unicode hex="00BD"/>
  <outline>
    <contour>
      <point x="774" y="699" type="line"/>
      <point x="892" y="699" type="line"/>
      <point x="163" y="0" type="line"/>
      <point x="45" y="0" type="line"/>
    </contour>
    <contour>
      <point x="153" y="556" type="line"/>
      <point x="189" y="661" type="line"/>
      <point x="420" y="705" type="line"/>
      <point x="271" y="274" type="line"/>
      <point x="158" y="274" type="line"/>
      <point x="263" y="580" type="line"/>
    </contour>
    <contour>
      <point x="417" y="3" type="line"/>
      <point x="655" y="190" type="line" smooth="yes"/>
      <point x="687" y="214"/>
      <point x="740" y="244"/>
      <point x="751" y="286" type="curve" smooth="yes"/>
      <point x="756" y="305"/>
      <point x="749" y="327"/>
      <point x="727" y="329" type="curve" smooth="yes"/>
      <point x="690" y="333"/>
      <point x="666" y="289"/>
      <point x="650" y="263" type="curve"/>
      <point x="533" y="265" type="line"/>
      <point x="570" y="355"/>
      <point x="644" y="431"/>
      <point x="747" y="431" type="curve" smooth="yes"/>
      <point x="825" y="431"/>
      <point x="894" y="374"/>
      <point x="870" y="292" type="curve" smooth="yes"/>
      <point x="857" y="245"/>
      <point x="819" y="209"/>
      <point x="781" y="182" type="curve" smooth="yes"/>
      <point x="678" y="112" type="line"/>
      <point x="821" y="110" type="line"/>
      <point x="783" y="2" type="line"/>
    </contour>
  </outline>
</glyph>
<glyph name="threequarters" format="1">
  <advance width="845"/>
  <unicode hex="00BE"/>
  <outline>
    <contour>
      <point x="833" y="699" type="line"/>
      <point x="951" y="699" type="line"/>
      <point x="222" y="0" type="line"/>
      <point x="104" y="0" type="line"/>
    </contour>
    <contour>
      <point x="269" y="483" type="curve"/>
      <point x="284" y="531" type="line"/>
      <point x="315" y="537"/>
      <point x="365" y="548"/>
      <point x="375" y="584" type="curve" smooth="yes"/>
      <point x="379" y="600"/>
      <point x="369" y="614"/>
      <point x="353" y="614" type="curve" smooth="yes"/>
      <point x="325" y="614"/>
      <point x="306" y="591"/>
      <point x="290" y="572" type="curve"/>
      <point x="180" y="574" type="line"/>
      <point x="215" y="650"/>
      <point x="280" y="706"/>
      <point x="368" y="708" type="curve" smooth="yes"/>
      <point x="436" y="709"/>
      <point x="511" y="668"/>
      <point x="488" y="589" type="curve" smooth="yes"/>
      <point x="461" y="498"/>
      <point x="348" y="487"/>
    </contour>
    <contour>
      <point x="232" y="269" type="curve" smooth="yes"/>
      <point x="139" y="271"/>
      <point x="99" y="334"/>
      <point x="109" y="421" type="curve"/>
      <point x="218" y="421" type="line"/>
      <point x="218" y="395"/>
      <point x="216" y="367"/>
      <point x="250" y="363" type="curve" smooth="yes"/>
      <point x="275" y="360"/>
      <point x="314" y="386"/>
      <point x="322" y="410" type="curve" smooth="yes"/>
      <point x="336" y="452"/>
      <point x="285" y="456"/>
      <point x="257" y="461" type="curve"/>
      <point x="275" y="516" type="line"/>
      <point x="348" y="512"/>
      <point x="462" y="494"/>
      <point x="434" y="394" type="curve" smooth="yes"/>
      <point x="411" y="310"/>
      <point x="312" y="267"/>
    </contour>
    <contour>
      <point x="397" y="73" type="line"/>
      <point x="518" y="153" type="line"/>
      <point x="692" y="154" type="line"/>
      <point x="709" y="172" type="line"/>
      <point x="829" y="172" type="line"/>
      <point x="793" y="72" type="line"/>
    </contour>
    <contour>
      <point x="540" y="112" type="line"/>
      <point x="388" y="64" type="line"/>
      <point x="752" y="419" type="line"/>
      <point x="852" y="420" type="line"/>
      <point x="707" y="0" type="line"/>
      <point x="583" y="0" type="line"/>
      <point x="615" y="93" type="line"/>
      <point x="631" y="99" type="line"/>
      <point x="684" y="244" type="line"/>
    </contour>
  </outline>
</glyph>
<glyph name="questiondown" format="1">
  <advance width="611"/>
  <unicode hex="00BF"/>
  <outline>
    <contour>
      <point x="230" y="199" type="curve" smooth="yes"/>
      <point x="215" y="153"/>
      <point x="246" y="127"/>
      <point x="290" y="125" type="curve" smooth="yes"/>
      <point x="359" y="121"/>
      <point x="423" y="170"/>
      <point x="473" y="212" type="curve"/>
      <point x="559" y="108" type="line"/>
      <point x="471" y="37"/>
      <point x="366" y="-23"/>
      <point x="250" y="-22" type="curve" smooth="yes"/>
      <point x="125" y="-21"/>
      <point x="21" y="69"/>
      <point x="60" y="201" type="curve" smooth="yes"/>
      <point x="96" y="323"/>
      <point x="215" y="387"/>
      <point x="329" y="417" type="curve"/>
      <point x="359" y="488" type="line"/>
      <point x="506" y="488" type="line"/>
      <point x="466" y="309" type="line"/>
      <point x="437" y="309" type="line"/>
      <point x="367" y="306"/>
      <point x="255" y="275"/>
    </contour>
    <contour>
      <point x="589" y="632" type="curve" smooth="yes"/>
      <point x="575" y="581"/>
      <point x="512" y="543"/>
      <point x="461" y="543" type="curve" smooth="yes"/>
      <point x="409" y="543"/>
      <point x="367" y="583"/>
      <point x="381" y="636" type="curve" smooth="yes"/>
      <point x="395" y="687"/>
      <point x="457" y="727"/>
      <point x="508" y="727" type="curve" smooth="yes"/>
      <point x="560" y="727"/>
      <point x="603" y="685"/>
    </contour>
  </outline>
</glyph>
<glyph name="Agrave" format="1">
  <advance width="715"/>
  <unicode hex="00C0"/>
  <outline>
    <contour>
      <point x="165" y="109" type="line"/>
      <point x="221" y="254" type="line"/>
      <point x="567" y="255" type="line"/>
      <point x="520" y="109" type="line"/>
    </contour>
    <contour>
      <point x="450" y="407" type="line"/>
      <point x="291" y="200" type="line"/>
      <point x="289" y="154" type="line"/>
      <point x="162" y="0" type="line"/>
      <point x="-66" y="0" type="line"/>
      <point x="557" y="752" type="line"/>
      <point x="663" y="0" type="line"/>
      <point x="455" y="0" type="line"/>
      <point x="429" y="150" type="line"/>
      <point x="459" y="200" type="line"/>
    </contour>
    <contour>
      <point x="470" y="963" type="line"/>
      <point x="604" y="1015" type="line"/>
      <point x="696" y="848" type="line"/>
      <point x="595" y="808" type="line"/>
    </contour>
  </outline>
</glyph>
<glyph name="Aacute" format="1">
  <advance width="757"/>
  <unicode hex="00C1"/>
  <outline>
    <contour>
      <point x="216" y="112" type="line"/>
      <point x="247" y="256" type="line"/>
      <point x="605" y="256" type="line"/>
      <point x="586" y="112" type="line"/>
    </contour>
    <contour>
      <point x="452" y="412" type="line"/>
      <point x="323" y="203" type="line"/>
      <point x="327" y="159" type="line"/>
      <point x="218" y="0" type="line"/>
      <point x="-4" y="0" type="line"/>
      <point x="511" y="747" type="line"/>
      <point x="760" y="0" type="line"/>
      <point x="540" y="0" type="line"/>
      <point x="487" y="152" type="line"/>
      <point x="507" y="202" type="line"/>
    </contour>
    <contour>
      <point x="715" y="957" type="line"/>
      <point x="508" y="807" type="line"/>
      <point x="419" y="854" type="line"/>
      <point x="597" y="1014" type="line"/>
    </contour>
  </outline>
</glyph>
<glyph name="Acircumflex" format="1">
  <advance width="715"/>
  <unicode hex="00C2"/>
  <outline>
    <contour>
      <point x="165" y="109" type="line"/>
      <point x="221" y="254" type="line"/>
      <point x="567" y="255" type="line"/>
      <point x="520" y="109" type="line"/>
    </contour>
    <contour>
      <point x="450" y="407" type="line"/>
      <point x="291" y="200" type="line"/>
      <point x="289" y="154" type="line"/>
      <point x="162" y="0" type="line"/>
      <point x="-66" y="0" type="line"/>
      <point x="557" y="752" type="line"/>
      <point x="663" y="0" type="line"/>
      <point x="455" y="0" type="line"/>
      <point x="429" y="150" type="line"/>
      <point x="459" y="200" type="line"/>
    </contour>
    <contour>
      <point x="614" y="881" type="line"/>
      <point x="506" y="802" type="line"/>
      <point x="407" y="890" type="line"/>
      <point x="645" y="1024" type="line"/>
      <point x="804" y="878" type="line"/>
      <point x="664" y="800" type="line"/>
    </contour>
  </outline>
</glyph>
<glyph name="Atilde" format="1">
  <advance width="715"/>
  <unicode hex="00C3"/>
  <outline>
    <contour>
      <point x="165" y="109" type="line"/>
      <point x="221" y="254" type="line"/>
      <point x="566" y="255" type="line"/>
      <point x="519" y="109" type="line"/>
    </contour>
    <contour>
      <point x="450" y="407" type="line"/>
      <point x="291" y="200" type="line"/>
      <point x="289" y="154" type="line"/>
      <point x="162" y="0" type="line"/>
      <point x="-66" y="0" type="line"/>
      <point x="557" y="752" type="line"/>
      <point x="663" y="0" type="line"/>
      <point x="455" y="0" type="line"/>
      <point x="429" y="150" type="line"/>
      <point x="459" y="200" type="line"/>
    </contour>
    <contour>
      <point x="407" y="884" type="line"/>
      <point x="440" y="931"/>
      <point x="489" y="981"/>
      <point x="551" y="978" type="curve" smooth="yes"/>
      <point x="595" y="976"/>
      <point x="621" y="924"/>
      <point x="665" y="927" type="curve" smooth="yes"/>
      <point x="699" y="929"/>
      <point x="726" y="959"/>
      <point x="750" y="980" type="curve"/>
      <point x="807" y="891" type="line"/>
      <point x="769" y="850"/>
      <point x="710" y="801"/>
      <point x="649" y="806" type="curve" smooth="yes"/>
      <point x="605" y="810"/>
      <point x="575" y="866"/>
      <point x="530" y="859" type="curve" smooth="yes"/>
      <point x="501" y="854"/>
      <point x="483" y="831"/>
      <point x="466" y="810" type="curve"/>
    </contour>
  </outline>
</glyph>
<glyph name="Adieresis" format="1">
  <advance width="715"/>
  <unicode hex="00C4"/>
  <outline>
    <contour>
      <point x="165" y="109" type="line"/>
      <point x="221" y="254" type="line"/>
      <point x="566" y="255" type="line"/>
      <point x="519" y="109" type="line"/>
    </contour>
    <contour>
      <point x="450" y="407" type="line"/>
      <point x="291" y="200" type="line"/>
      <point x="289" y="154" type="line"/>
      <point x="162" y="0" type="line"/>
      <point x="-66" y="0" type="line"/>
      <point x="557" y="752" type="line"/>
      <point x="663" y="0" type="line"/>
      <point x="455" y="0" type="line"/>
      <point x="429" y="150" type="line"/>
      <point x="459" y="200" type="line"/>
    </contour>
    <contour>
      <point x="634" y="826" type="curve" smooth="yes"/>
      <point x="648" y="874"/>
      <point x="704" y="913"/>
      <point x="754" y="913" type="curve" smooth="yes"/>
      <point x="804" y="913"/>
      <point x="840" y="870"/>
      <point x="826" y="820" type="curve" smooth="yes"/>
      <point x="812" y="772"/>
      <point x="757" y="733"/>
      <point x="707" y="733" type="curve" smooth="yes"/>
      <point x="657" y="733"/>
      <point x="620" y="776"/>
    </contour>
    <contour>
      <point x="338" y="834" type="curve" smooth="yes"/>
      <point x="352" y="882"/>
      <point x="408" y="922"/>
      <point x="458" y="922" type="curve" smooth="yes"/>
      <point x="508" y="922"/>
      <point x="544" y="879"/>
      <point x="530" y="829" type="curve" smooth="yes"/>
      <point x="516" y="781"/>
      <point x="460" y="741"/>
      <point x="410" y="741" type="curve" smooth="yes"/>
      <point x="360" y="741"/>
      <point x="324" y="784"/>
    </contour>
  </outline>
</glyph>
<glyph name="Aring" format="1">
  <advance width="715"/>
  <unicode hex="00C5"/>
  <outline>
    <contour>
      <point x="165" y="109" type="line"/>
      <point x="221" y="254" type="line"/>
      <point x="567" y="255" type="line"/>
      <point x="520" y="109" type="line"/>
    </contour>
    <contour>
      <point x="450" y="407" type="line"/>
      <point x="291" y="200" type="line"/>
      <point x="289" y="154" type="line"/>
      <point x="162" y="0" type="line"/>
      <point x="-66" y="0" type="line"/>
      <point x="557" y="752" type="line"/>
      <point x="663" y="0" type="line"/>
      <point x="455" y="0" type="line"/>
      <point x="429" y="150" type="line"/>
      <point x="459" y="200" type="line"/>
    </contour>
    <contour>
      <point x="450" y="803" type="curve" smooth="yes"/>
      <point x="468" y="869"/>
      <point x="541" y="922"/>
      <point x="609" y="922" type="curve" smooth="yes"/>
      <point x="677" y="922"/>
      <point x="724" y="867"/>
      <point x="705" y="799" type="curve" smooth="yes"/>
      <point x="687" y="732"/>
      <point x="613" y="681"/>
      <point x="544" y="681" type="curve" smooth="yes"/>
      <point x="476" y="681"/>
      <point x="431" y="736"/>
    </contour>
    <contour>
      <point x="535" y="800" type="curve" smooth="yes"/>
      <point x="530" y="784"/>
      <point x="535" y="759"/>
      <point x="555" y="757" type="curve" smooth="yes"/>
      <point x="577" y="755"/>
      <point x="612" y="784"/>
      <point x="619" y="803" type="curve" smooth="yes"/>
      <point x="624" y="819"/>
      <point x="618" y="845"/>
      <point x="598" y="847" type="curve" smooth="yes"/>
      <point x="576" y="849"/>
      <point x="542" y="819"/>
    </contour>
  </outline>
</glyph>
<glyph name="AE" format="1">
  <advance width="1061"/>
  <unicode hex="00C6"/>
  <outline>
    <contour>
      <point x="257" y="130" type="line"/>
      <point x="329" y="311" type="line"/>
      <point x="618" y="311" type="line"/>
      <point x="554" y="130" type="line"/>
    </contour>
    <contour>
      <point x="606" y="700" type="line"/>
      <point x="774" y="656" type="line"/>
      <point x="210" y="0" type="line"/>
      <point x="-46" y="0" type="line"/>
    </contour>
    <contour>
      <point x="567" y="0" type="line"/>
      <point x="622" y="160" type="line"/>
      <point x="1001" y="160" type="line"/>
      <point x="945" y="0" type="line"/>
    </contour>
    <contour>
      <point x="771" y="540" type="line"/>
      <point x="606" y="700" type="line"/>
      <point x="1185" y="700" type="line"/>
      <point x="1129" y="540" type="line"/>
    </contour>
    <contour>
      <point x="664" y="285" type="line"/>
      <point x="719" y="441" type="line"/>
      <point x="1078" y="441" type="line"/>
      <point x="1023" y="285" type="line"/>
    </contour>
    <contour>
      <point x="718" y="700" type="line"/>
      <point x="928" y="700" type="line"/>
      <point x="688" y="0" type="line"/>
      <point x="479" y="0" type="line"/>
    </contour>
  </outline>
</glyph>
<glyph name="Ccedilla" format="1">
  <advance width="664"/>
  <unicode hex="00C7"/>
  <outline>
    <contour>
      <point x="302" y="350" type="curve" smooth="yes"/>
      <point x="267" y="259"/>
      <point x="306" y="174"/>
      <point x="409" y="171" type="curve" smooth="yes"/>
      <point x="493" y="169"/>
      <point x="569" y="213"/>
      <point x="637" y="256" type="curve"/>
      <point x="575" y="50" type="line"/>
      <point x="507" y="10"/>
      <point x="434" y="-18"/>
      <point x="354" y="-18" type="curve" smooth="yes"/>
      <point x="143" y="-18"/>
      <point x="30" y="153"/>
      <point x="92" y="350" type="curve" smooth="yes"/>
      <point x="157" y="559"/>
      <point x="362" y="719"/>
      <point x="583" y="718" type="curve" smooth="yes"/>
      <point x="656" y="718"/>
      <point x="716" y="694"/>
      <point x="773" y="649" type="curve"/>
      <point x="710" y="442" type="line"/>
      <point x="672" y="497"/>
      <point x="623" y="529"/>
      <point x="553" y="529" type="curve" smooth="yes"/>
      <point x="445" y="528"/>
      <point x="340" y="450"/>
    </contour>
    <contour>
      <point x="283" y="43" type="line"/>
      <point x="417" y="38" type="line"/>
      <point x="276" y="-87" type="line"/>
      <point x="288" y="-84"/>
      <point x="302" y="-82"/>
      <point x="314" y="-83" type="curve" smooth="yes"/>
      <point x="370" y="-87"/>
      <point x="396" y="-137"/>
      <point x="381" y="-189" type="curve" smooth="yes"/>
      <point x="361" y="-258"/>
      <point x="286" y="-297"/>
      <point x="219" y="-300" type="curve" smooth="yes"/>
      <point x="164" y="-303"/>
      <point x="114" y="-284"/>
      <point x="66" y="-258" type="curve"/>
      <point x="134" y="-185" type="line"/>
      <point x="156" y="-198"/>
      <point x="180" y="-210"/>
      <point x="207" y="-209" type="curve" smooth="yes"/>
      <point x="225" y="-208"/>
      <point x="275" y="-195"/>
      <point x="278" y="-172" type="curve" smooth="yes"/>
      <point x="281" y="-151"/>
      <point x="248" y="-145"/>
      <point x="235" y="-144" type="curve" smooth="yes"/>
      <point x="203" y="-142"/>
      <point x="170" y="-151"/>
      <point x="138" y="-157" type="curve"/>
    </contour>
  </outline>
</glyph>
<glyph name="Egrave" format="1">
  <advance width="584"/>
  <unicode hex="00C8"/>
  <outline>
    <contour>
      <point x="137" y="0" type="line"/>
      <point x="193" y="160" type="line"/>
      <point x="532" y="160" type="line"/>
      <point x="475" y="0" type="line"/>
    </contour>
    <contour>
      <point x="322" y="540" type="line"/>
      <point x="378" y="700" type="line"/>
      <point x="716" y="700" type="line"/>
      <point x="660" y="540" type="line"/>
    </contour>
    <contour>
      <point x="234" y="285" type="line"/>
      <point x="289" y="441" type="line"/>
      <point x="609" y="441" type="line"/>
      <point x="554" y="285" type="line"/>
    </contour>
    <contour>
      <point x="249" y="700" type="line"/>
      <point x="435" y="700" type="line"/>
      <point x="195" y="0" type="line"/>
      <point x="10" y="0" type="line"/>
    </contour>
    <contour>
      <point x="402" y="942" type="line"/>
      <point x="535" y="995" type="line"/>
      <point x="627" y="828" type="line"/>
      <point x="527" y="787" type="line"/>
    </contour>
  </outline>
</glyph>
<glyph name="Eacute" format="1">
  <advance width="583"/>
  <unicode hex="00C9"/>
  <outline>
    <contour>
      <point x="137" y="0" type="line"/>
      <point x="193" y="160" type="line"/>
      <point x="532" y="160" type="line"/>
      <point x="475" y="0" type="line"/>
    </contour>
    <contour>
      <point x="322" y="540" type="line"/>
      <point x="378" y="700" type="line"/>
      <point x="716" y="700" type="line"/>
      <point x="660" y="540" type="line"/>
    </contour>
    <contour>
      <point x="234" y="285" type="line"/>
      <point x="289" y="441" type="line"/>
      <point x="608" y="441" type="line"/>
      <point x="554" y="285" type="line"/>
    </contour>
    <contour>
      <point x="249" y="700" type="line"/>
      <point x="435" y="700" type="line"/>
      <point x="194" y="0" type="line"/>
      <point x="10" y="0" type="line"/>
    </contour>
    <contour>
      <point x="724" y="930" type="line"/>
      <point x="510" y="788" type="line"/>
      <point x="420" y="840" type="line"/>
      <point x="610" y="992" type="line"/>
    </contour>
  </outline>
</glyph>
<glyph name="Ecircumflex" format="1">
  <advance width="583"/>
  <unicode hex="00CA"/>
  <outline>
    <contour>
      <point x="137" y="0" type="line"/>
      <point x="193" y="160" type="line"/>
      <point x="532" y="160" type="line"/>
      <point x="475" y="0" type="line"/>
    </contour>
    <contour>
      <point x="322" y="540" type="line"/>
      <point x="378" y="700" type="line"/>
      <point x="716" y="700" type="line"/>
      <point x="660" y="540" type="line"/>
    </contour>
    <contour>
      <point x="234" y="285" type="line"/>
      <point x="289" y="441" type="line"/>
      <point x="608" y="441" type="line"/>
      <point x="554" y="285" type="line"/>
    </contour>
    <contour>
      <point x="249" y="700" type="line"/>
      <point x="435" y="700" type="line"/>
      <point x="194" y="0" type="line"/>
      <point x="10" y="0" type="line"/>
    </contour>
    <contour>
      <point x="558" y="888" type="line"/>
      <point x="419" y="796" type="line"/>
      <point x="377" y="841" type="line"/>
      <point x="569" y="976" type="line"/>
      <point x="682" y="831" type="line"/>
      <point x="628" y="796" type="line"/>
    </contour>
  </outline>
</glyph>
<glyph name="Edieresis" format="1">
  <advance width="583"/>
  <unicode hex="00CB"/>
  <outline>
    <contour>
      <point x="137" y="0" type="line"/>
      <point x="193" y="160" type="line"/>
      <point x="532" y="160" type="line"/>
      <point x="475" y="0" type="line"/>
    </contour>
    <contour>
      <point x="322" y="540" type="line"/>
      <point x="378" y="700" type="line"/>
      <point x="716" y="700" type="line"/>
      <point x="660" y="540" type="line"/>
    </contour>
    <contour>
      <point x="234" y="285" type="line"/>
      <point x="289" y="441" type="line"/>
      <point x="608" y="441" type="line"/>
      <point x="554" y="285" type="line"/>
    </contour>
    <contour>
      <point x="249" y="700" type="line"/>
      <point x="435" y="700" type="line"/>
      <point x="194" y="0" type="line"/>
      <point x="10" y="0" type="line"/>
    </contour>
    <contour>
      <point x="568" y="876" type="curve" smooth="yes"/>
      <point x="582" y="924"/>
      <point x="638" y="963"/>
      <point x="688" y="963" type="curve" smooth="yes"/>
      <point x="738" y="963"/>
      <point x="774" y="920"/>
      <point x="760" y="870" type="curve" smooth="yes"/>
      <point x="746" y="822"/>
      <point x="691" y="782"/>
      <point x="641" y="782" type="curve" smooth="yes"/>
      <point x="591" y="782"/>
      <point x="554" y="826"/>
    </contour>
    <contour>
      <point x="325" y="876" type="curve" smooth="yes"/>
      <point x="339" y="924"/>
      <point x="394" y="963"/>
      <point x="444" y="963" type="curve" smooth="yes"/>
      <point x="494" y="963"/>
      <point x="531" y="920"/>
      <point x="517" y="870" type="curve" smooth="yes"/>
      <point x="503" y="822"/>
      <point x="447" y="782"/>
      <point x="397" y="782" type="curve" smooth="yes"/>
      <point x="347" y="782"/>
      <point x="311" y="826"/>
    </contour>
  </outline>
</glyph>
<glyph name="Igrave" format="1">
  <advance width="342"/>
  <unicode hex="00CC"/>
  <outline>
    <contour>
      <point x="195" y="700" type="line"/>
      <point x="393" y="700" type="line"/>
      <point x="270" y="0" type="line"/>
      <point x="72" y="0" type="line"/>
    </contour>
    <contour>
      <point x="157" y="936" type="line"/>
      <point x="295" y="992" type="line"/>
      <point x="417" y="832" type="line"/>
      <point x="311" y="786" type="line"/>
    </contour>
  </outline>
</glyph>
<glyph name="Iacute" format="1">
  <advance width="325"/>
  <unicode hex="00CD"/>
  <outline>
    <contour>
      <point x="249" y="700" type="line"/>
      <point x="447" y="700" type="line"/>
      <point x="207" y="0" type="line"/>
      <point x="10" y="0" type="line"/>
    </contour>
    <contour>
      <point x="582" y="930" type="line"/>
      <point x="368" y="788" type="line"/>
      <point x="278" y="840" type="line"/>
      <point x="467" y="992" type="line"/>
    </contour>
  </outline>
</glyph>
<glyph name="Icircumflex" format="1">
  <advance width="342"/>
  <unicode hex="00CE"/>
  <outline>
    <contour>
      <point x="195" y="700" type="line"/>
      <point x="393" y="700" type="line"/>
      <point x="270" y="0" type="line"/>
      <point x="72" y="0" type="line"/>
    </contour>
    <contour>
      <point x="319" y="890" type="line"/>
      <point x="192" y="794" type="line"/>
      <point x="149" y="834" type="line"/>
      <point x="334" y="974" type="line"/>
      <point x="469" y="834" type="line"/>
      <point x="412" y="794" type="line"/>
    </contour>
  </outline>
</glyph>
<glyph name="Idieresis" format="1">
  <advance width="342"/>
  <unicode hex="00CF"/>
  <outline>
    <contour>
      <point x="195" y="700" type="line"/>
      <point x="393" y="700" type="line"/>
      <point x="270" y="0" type="line"/>
      <point x="72" y="0" type="line"/>
    </contour>
    <contour>
      <point x="350" y="882" type="curve" smooth="yes"/>
      <point x="360" y="938"/>
      <point x="412" y="986"/>
      <point x="474" y="986" type="curve" smooth="yes"/>
      <point x="536" y="986"/>
      <point x="572" y="938"/>
      <point x="562" y="882" type="curve" smooth="yes"/>
      <point x="552" y="826"/>
      <point x="499" y="778"/>
      <point x="437" y="778" type="curve" smooth="yes"/>
      <point x="375" y="778"/>
      <point x="340" y="826"/>
    </contour>
    <contour>
      <point x="93" y="882" type="curve" smooth="yes"/>
      <point x="103" y="938"/>
      <point x="155" y="986"/>
      <point x="217" y="986" type="curve" smooth="yes"/>
      <point x="279" y="986"/>
      <point x="316" y="938"/>
      <point x="306" y="882" type="curve" smooth="yes"/>
      <point x="296" y="826"/>
      <point x="242" y="778"/>
      <point x="180" y="778" type="curve" smooth="yes"/>
      <point x="118" y="778"/>
      <point x="83" y="826"/>
    </contour>
  </outline>
</glyph>
<glyph name="Eth" format="1">
  <advance width="706"/>
  <unicode hex="00D0"/>
  <outline>
    <contour>
      <point x="50" y="300" type="line"/>
      <point x="89" y="409" type="line"/>
      <point x="441" y="409" type="line"/>
      <point x="402" y="300" type="line"/>
    </contour>
    <contour>
      <point x="249" y="700" type="line"/>
      <point x="450" y="700" type="line"/>
      <point x="210" y="0" type="line"/>
      <point x="10" y="0" type="line"/>
    </contour>
    <contour>
      <point x="273" y="0" type="curve" smooth="yes"/>
      <point x="137" y="0" type="line"/>
      <point x="198" y="174" type="line"/>
      <point x="303" y="174" type="line"/>
      <point x="415" y="178"/>
      <point x="505" y="245"/>
      <point x="545" y="350" type="curve" smooth="yes"/>
      <point x="582" y="446"/>
      <point x="551" y="520"/>
      <point x="444" y="525" type="curve" smooth="yes"/>
      <point x="316" y="527" type="line"/>
      <point x="377" y="700" type="line"/>
      <point x="490" y="700" type="line" smooth="yes"/>
      <point x="694" y="695"/>
      <point x="808" y="548"/>
      <point x="746" y="350" type="curve" smooth="yes"/>
      <point x="681" y="142"/>
      <point x="489" y="5"/>
    </contour>
  </outline>
</glyph>
<glyph name="Ntilde" format="1">
  <advance width="752"/>
  <unicode hex="00D1"/>
  <outline>
    <contour>
      <point x="689" y="700" type="line"/>
      <point x="874" y="700" type="line"/>
      <point x="624" y="-31" type="line"/>
      <point x="316" y="351" type="line"/>
      <point x="195" y="0" type="line"/>
      <point x="10" y="0" type="line"/>
      <point x="260" y="731" type="line"/>
      <point x="567" y="349" type="line"/>
    </contour>
    <contour>
      <point x="380" y="852" type="line"/>
      <point x="412" y="899"/>
      <point x="461" y="949"/>
      <point x="523" y="946" type="curve" smooth="yes"/>
      <point x="567" y="944"/>
      <point x="593" y="892"/>
      <point x="637" y="895" type="curve" smooth="yes"/>
      <point x="671" y="897"/>
      <point x="699" y="927"/>
      <point x="723" y="948" type="curve"/>
      <point x="779" y="859" type="line"/>
      <point x="741" y="818"/>
      <point x="682" y="769"/>
      <point x="621" y="774" type="curve" smooth="yes"/>
      <point x="577" y="778"/>
      <point x="547" y="833"/>
      <point x="502" y="826" type="curve" smooth="yes"/>
      <point x="473" y="821"/>
      <point x="456" y="798"/>
      <point x="439" y="777" type="curve"/>
    </contour>
  </outline>
</glyph>
<glyph name="Ograve" format="1">
  <advance width="782"/>
  <unicode hex="00D2"/>
  <outline>
    <contour>
      <point x="295" y="350" type="curve" smooth="yes"/>
      <point x="264" y="269"/>
      <point x="276" y="166"/>
      <point x="382" y="163" type="curve" smooth="yes"/>
      <point x="490" y="160"/>
      <point x="582" y="255"/>
      <point x="619" y="350" type="curve" smooth="yes"/>
      <point x="650" y="432"/>
      <point x="639" y="535"/>
      <point x="532" y="537" type="curve" smooth="yes"/>
      <point x="424" y="539"/>
      <point x="331" y="445"/>
    </contour>
    <contour>
      <point x="92" y="350" type="curve" smooth="yes"/>
      <point x="156" y="552"/>
      <point x="355" y="719"/>
      <point x="571" y="719" type="curve" smooth="yes"/>
      <point x="779" y="719"/>
      <point x="881" y="539"/>
      <point x="822" y="350" type="curve" smooth="yes"/>
      <point x="758" y="146"/>
      <point x="558" y="-28"/>
      <point x="339" y="-27" type="curve" smooth="yes"/>
      <point x="127" y="-26"/>
      <point x="33" y="161"/>
    </contour>
    <contour>
      <point x="510" y="942" type="line"/>
      <point x="643" y="995" type="line"/>
      <point x="735" y="828" type="line"/>
      <point x="635" y="787" type="line"/>
    </contour>
  </outline>
</glyph>
<glyph name="Oacute" format="1">
  <advance width="782"/>
  <unicode hex="00D3"/>
  <outline>
    <contour>
      <point x="295" y="350" type="curve" smooth="yes"/>
      <point x="265" y="269"/>
      <point x="276" y="166"/>
      <point x="382" y="163" type="curve" smooth="yes"/>
      <point x="490" y="160"/>
      <point x="582" y="256"/>
      <point x="618" y="350" type="curve" smooth="yes"/>
      <point x="649" y="432"/>
      <point x="639" y="535"/>
      <point x="532" y="537" type="curve" smooth="yes"/>
      <point x="424" y="539"/>
      <point x="331" y="444"/>
    </contour>
    <contour>
      <point x="92" y="350" type="curve" smooth="yes"/>
      <point x="156" y="552"/>
      <point x="355" y="718"/>
      <point x="571" y="718" type="curve" smooth="yes"/>
      <point x="779" y="718"/>
      <point x="881" y="540"/>
      <point x="822" y="350" type="curve" smooth="yes"/>
      <point x="758" y="146"/>
      <point x="558" y="-28"/>
      <point x="339" y="-27" type="curve" smooth="yes"/>
      <point x="127" y="-26"/>
      <point x="33" y="160"/>
    </contour>
    <contour>
      <point x="828" y="930" type="line"/>
      <point x="614" y="788" type="line"/>
      <point x="524" y="840" type="line"/>
      <point x="713" y="992" type="line"/>
    </contour>
  </outline>
</glyph>
<glyph name="Otilde" format="1">
  <advance width="782"/>
  <unicode hex="00D5"/>
  <outline>
    <contour>
      <point x="295" y="350" type="curve" smooth="yes"/>
      <point x="264" y="269"/>
      <point x="276" y="166"/>
      <point x="382" y="163" type="curve" smooth="yes"/>
      <point x="490" y="160"/>
      <point x="582" y="255"/>
      <point x="619" y="350" type="curve" smooth="yes"/>
      <point x="650" y="432"/>
      <point x="639" y="535"/>
      <point x="532" y="537" type="curve" smooth="yes"/>
      <point x="424" y="539"/>
      <point x="331" y="445"/>
    </contour>
    <contour>
      <point x="92" y="350" type="curve" smooth="yes"/>
      <point x="156" y="552"/>
      <point x="355" y="719"/>
      <point x="571" y="719" type="curve" smooth="yes"/>
      <point x="779" y="719"/>
      <point x="881" y="539"/>
      <point x="822" y="350" type="curve" smooth="yes"/>
      <point x="758" y="146"/>
      <point x="558" y="-28"/>
      <point x="339" y="-27" type="curve" smooth="yes"/>
      <point x="127" y="-26"/>
      <point x="33" y="161"/>
    </contour>
    <contour>
      <point x="476" y="858" type="line"/>
      <point x="466" y="897"/>
      <point x="565" y="936"/>
      <point x="593" y="935" type="curve" smooth="yes"/>
      <point x="632" y="934"/>
      <point x="655" y="888"/>
      <point x="694" y="891" type="curve" smooth="yes"/>
      <point x="722" y="893"/>
      <point x="746" y="920"/>
      <point x="766" y="937" type="curve"/>
      <point x="803" y="889" type="line"/>
      <point x="775" y="858"/>
      <point x="733" y="818"/>
      <point x="687" y="822" type="curve" smooth="yes"/>
      <point x="649" y="825"/>
      <point x="628" y="869"/>
      <point x="590" y="867" type="curve" smooth="yes"/>
      <point x="560" y="865"/>
      <point x="538" y="838"/>
      <point x="521" y="817" type="curve"/>
    </contour>
  </outline>
</glyph>
<glyph name="Odieresis" format="1">
  <advance width="782"/>
  <unicode hex="00D6"/>
  <outline>
    <contour>
      <point x="295" y="350" type="curve" smooth="yes"/>
      <point x="265" y="269"/>
      <point x="276" y="166"/>
      <point x="382" y="163" type="curve" smooth="yes"/>
      <point x="490" y="160"/>
      <point x="582" y="256"/>
      <point x="618" y="350" type="curve" smooth="yes"/>
      <point x="649" y="432"/>
      <point x="639" y="535"/>
      <point x="532" y="537" type="curve" smooth="yes"/>
      <point x="424" y="539"/>
      <point x="331" y="444"/>
    </contour>
    <contour>
      <point x="92" y="350" type="curve" smooth="yes"/>
      <point x="156" y="552"/>
      <point x="355" y="718"/>
      <point x="571" y="718" type="curve" smooth="yes"/>
      <point x="779" y="718"/>
      <point x="881" y="540"/>
      <point x="822" y="350" type="curve" smooth="yes"/>
      <point x="758" y="146"/>
      <point x="558" y="-28"/>
      <point x="339" y="-27" type="curve" smooth="yes"/>
      <point x="127" y="-26"/>
      <point x="33" y="160"/>
    </contour>
    <contour>
      <point x="660" y="873" type="curve" smooth="yes"/>
      <point x="674" y="922"/>
      <point x="730" y="960"/>
      <point x="780" y="960" type="curve" smooth="yes"/>
      <point x="831" y="960"/>
      <point x="866" y="918"/>
      <point x="852" y="867" type="curve" smooth="yes"/>
      <point x="838" y="818"/>
      <point x="783" y="779"/>
      <point x="733" y="779" type="curve" smooth="yes"/>
      <point x="682" y="779"/>
      <point x="646" y="822"/>
    </contour>
    <contour>
      <point x="417" y="873" type="curve" smooth="yes"/>
      <point x="431" y="922"/>
      <point x="485" y="960"/>
      <point x="535" y="960" type="curve" smooth="yes"/>
      <point x="586" y="960"/>
      <point x="623" y="918"/>
      <point x="609" y="867" type="curve" smooth="yes"/>
      <point x="595" y="818"/>
      <point x="539" y="779"/>
      <point x="489" y="779" type="curve" smooth="yes"/>
      <point x="438" y="779"/>
      <point x="403" y="822"/>
    </contour>
  </outline>
</glyph>
<glyph name="multiply" format="1">
  <advance width="560"/>
  <unicode hex="00D7"/>
  <outline>
    <contour>
      <point x="89" y="-4" type="line"/>
      <point x="19" y="113" type="line"/>
      <point x="218" y="262" type="line"/>
      <point x="122" y="415" type="line"/>
      <point x="252" y="515" type="line"/>
      <point x="341" y="360" type="line"/>
      <point x="537" y="514" type="line"/>
      <point x="608" y="397" type="line"/>
      <point x="408" y="248" type="line"/>
      <point x="504" y="95" type="line"/>
      <point x="374" y="-5" type="line"/>
      <point x="286" y="150" type="line"/>
    </contour>
  </outline>
</glyph>
<glyph name="Oslash" format="1">
  <advance width="743"/>
  <unicode hex="00D8"/>
  <outline>
    <contour>
      <point x="295" y="350" type="curve" smooth="yes"/>
      <point x="264" y="268"/>
      <point x="275" y="165"/>
      <point x="382" y="163" type="curve" smooth="yes"/>
      <point x="491" y="160"/>
      <point x="582" y="255"/>
      <point x="619" y="350" type="curve" smooth="yes"/>
      <point x="650" y="432"/>
      <point x="639" y="535"/>
      <point x="532" y="537" type="curve" smooth="yes"/>
      <point x="423" y="540"/>
      <point x="332" y="445"/>
    </contour>
    <contour>
      <point x="92" y="350" type="curve" smooth="yes"/>
      <point x="156" y="553"/>
      <point x="354" y="720"/>
      <point x="571" y="719" type="curve" smooth="yes"/>
      <point x="779" y="718"/>
      <point x="881" y="539"/>
      <point x="822" y="350" type="curve" smooth="yes"/>
      <point x="758" y="147"/>
      <point x="557" y="-28"/>
      <point x="339" y="-27" type="curve" smooth="yes"/>
      <point x="128" y="-26"/>
      <point x="33" y="161"/>
    </contour>
    <contour>
      <point x="854" y="758" type="line"/>
      <point x="916" y="693" type="line"/>
      <point x="52" y="-58" type="line"/>
      <point x="-8" y="-1" type="line"/>
    </contour>
  </outline>
</glyph>
<glyph name="Ugrave" format="1">
  <advance width="683"/>
  <unicode hex="00D9"/>
  <outline>
    <contour>
      <point x="245" y="700" type="line"/>
      <point x="439" y="700" type="line"/>
      <point x="280" y="247" type="line" smooth="yes"/>
      <point x="266" y="201"/>
      <point x="267" y="146"/>
      <point x="327" y="143" type="curve" smooth="yes"/>
      <point x="389" y="140"/>
      <point x="438" y="195"/>
      <point x="460" y="248" type="curve"/>
      <point x="617" y="700" type="line"/>
      <point x="810" y="700" type="line"/>
      <point x="651" y="230" type="line" smooth="yes"/>
      <point x="595" y="74"/>
      <point x="456" y="-35"/>
      <point x="287" y="-35" type="curve" smooth="yes"/>
      <point x="128" y="-35"/>
      <point x="41" y="76"/>
      <point x="86" y="230" type="curve" smooth="yes"/>
    </contour>
    <contour>
      <point x="444" y="934" type="line"/>
      <point x="578" y="986" type="line"/>
      <point x="669" y="819" type="line"/>
      <point x="569" y="778" type="line"/>
    </contour>
  </outline>
</glyph>
<glyph name="Uacute" format="1">
  <advance width="683"/>
  <unicode hex="00DA"/>
  <outline>
    <contour>
      <point x="245" y="700" type="line"/>
      <point x="439" y="700" type="line"/>
      <point x="280" y="247" type="line" smooth="yes"/>
      <point x="266" y="201"/>
      <point x="267" y="146"/>
      <point x="327" y="143" type="curve" smooth="yes"/>
      <point x="389" y="140"/>
      <point x="438" y="195"/>
      <point x="460" y="248" type="curve"/>
      <point x="617" y="700" type="line"/>
      <point x="810" y="700" type="line"/>
      <point x="651" y="230" type="line" smooth="yes"/>
      <point x="595" y="74"/>
      <point x="456" y="-35"/>
      <point x="287" y="-35" type="curve" smooth="yes"/>
      <point x="128" y="-35"/>
      <point x="41" y="76"/>
      <point x="86" y="230" type="curve" smooth="yes"/>
    </contour>
    <contour>
      <point x="769" y="922" type="line"/>
      <point x="555" y="780" type="line"/>
      <point x="465" y="832" type="line"/>
      <point x="655" y="984" type="line"/>
    </contour>
  </outline>
</glyph>
<glyph name="Ucircumflex" format="1">
  <advance width="683"/>
  <unicode hex="00DB"/>
  <outline>
    <contour>
      <point x="245" y="700" type="line"/>
      <point x="439" y="700" type="line"/>
      <point x="280" y="247" type="line" smooth="yes"/>
      <point x="266" y="201"/>
      <point x="267" y="146"/>
      <point x="327" y="143" type="curve" smooth="yes"/>
      <point x="389" y="140"/>
      <point x="438" y="195"/>
      <point x="460" y="248" type="curve"/>
      <point x="617" y="700" type="line"/>
      <point x="810" y="700" type="line"/>
      <point x="651" y="230" type="line" smooth="yes"/>
      <point x="595" y="74"/>
      <point x="456" y="-35"/>
      <point x="287" y="-35" type="curve" smooth="yes"/>
      <point x="128" y="-35"/>
      <point x="41" y="76"/>
      <point x="86" y="230" type="curve" smooth="yes"/>
    </contour>
    <contour>
      <point x="589" y="858" type="line"/>
      <point x="482" y="779" type="line"/>
      <point x="384" y="867" type="line"/>
      <point x="621" y="1001" type="line"/>
      <point x="780" y="854" type="line"/>
      <point x="641" y="777" type="line"/>
    </contour>
  </outline>
</glyph>
<glyph name="Udieresis" format="1">
  <advance width="683"/>
  <unicode hex="00DC"/>
  <outline>
    <contour>
      <point x="245" y="700" type="line"/>
      <point x="438" y="700" type="line"/>
      <point x="280" y="247" type="line" smooth="yes"/>
      <point x="266" y="201"/>
      <point x="266" y="145"/>
      <point x="326" y="142" type="curve" smooth="yes"/>
      <point x="388" y="139"/>
      <point x="438" y="195"/>
      <point x="460" y="248" type="curve"/>
      <point x="617" y="700" type="line"/>
      <point x="810" y="700" type="line"/>
      <point x="650" y="230" type="line" smooth="yes"/>
      <point x="594" y="74"/>
      <point x="456" y="-35"/>
      <point x="287" y="-35" type="curve" smooth="yes"/>
      <point x="128" y="-35"/>
      <point x="40" y="76"/>
      <point x="85" y="230" type="curve" smooth="yes"/>
    </contour>
    <contour>
      <point x="634" y="872" type="curve" smooth="yes"/>
      <point x="648" y="920"/>
      <point x="704" y="960"/>
      <point x="754" y="960" type="curve" smooth="yes"/>
      <point x="804" y="960"/>
      <point x="841" y="917"/>
      <point x="827" y="867" type="curve" smooth="yes"/>
      <point x="813" y="819"/>
      <point x="757" y="780"/>
      <point x="707" y="780" type="curve" smooth="yes"/>
      <point x="657" y="780"/>
      <point x="620" y="822"/>
    </contour>
    <contour>
      <point x="343" y="872" type="curve" smooth="yes"/>
      <point x="357" y="920"/>
      <point x="412" y="960"/>
      <point x="462" y="960" type="curve" smooth="yes"/>
      <point x="512" y="960"/>
      <point x="549" y="917"/>
      <point x="535" y="867" type="curve" smooth="yes"/>
      <point x="521" y="819"/>
      <point x="465" y="780"/>
      <point x="415" y="780" type="curve" smooth="yes"/>
      <point x="365" y="780"/>
      <point x="329" y="822"/>
    </contour>
  </outline>
</glyph>
<glyph name="Yacute" format="1">
  <advance width="653"/>
  <unicode hex="00DD"/>
  <outline>
    <contour>
      <point x="754" y="922" type="line"/>
      <point x="541" y="779" type="line"/>
      <point x="450" y="832" type="line"/>
      <point x="640" y="984" type="line"/>
    </contour>
    <contour>
      <point x="619" y="699" type="line"/>
      <point x="851" y="699" type="line"/>
      <point x="465" y="270" type="line"/>
      <point x="372" y="0" type="line"/>
      <point x="174" y="0" type="line"/>
      <point x="274" y="288" type="line"/>
      <point x="184" y="700" type="line"/>
      <point x="396" y="700" type="line"/>
      <point x="425" y="465" type="line"/>
    </contour>
  </outline>
</glyph>
<glyph name="Thorn" format="1">
  <advance width="595"/>
  <unicode hex="00DE"/>
  <outline>
    <contour>
      <point x="257" y="700" type="line"/>
      <point x="423" y="700" type="line"/>
      <point x="183" y="0" type="line"/>
      <point x="18" y="0" type="line"/>
    </contour>
    <contour>
      <point x="268" y="434" type="line"/>
      <point x="322" y="586" type="line"/>
      <point x="440" y="586" type="line" smooth="yes"/>
      <point x="580" y="582"/>
      <point x="689" y="504"/>
      <point x="643" y="353" type="curve" smooth="yes"/>
      <point x="597" y="201"/>
      <point x="455" y="127"/>
      <point x="305" y="123" type="curve" smooth="yes"/>
      <point x="162" y="123" type="line"/>
      <point x="217" y="275" type="line"/>
      <point x="335" y="275" type="line"/>
      <point x="392" y="277"/>
      <point x="454" y="297"/>
      <point x="476" y="355" type="curve" smooth="yes"/>
      <point x="497" y="411"/>
      <point x="458" y="430"/>
      <point x="409" y="433" type="curve"/>
    </contour>
  </outline>
</glyph>
<glyph name="germandbls" format="1">
  <advance width="563"/>
  <unicode hex="00DF"/>
  <outline>
    <contour>
      <point x="259" y="148" type="line"/>
      <point x="326" y="160"/>
      <point x="390" y="193"/>
      <point x="415" y="262" type="curve" smooth="yes"/>
      <point x="441" y="334"/>
      <point x="381" y="348"/>
      <point x="323" y="354" type="curve"/>
      <point x="361" y="476" type="line"/>
      <point x="502" y="467"/>
      <point x="621" y="379"/>
      <point x="575" y="224" type="curve" smooth="yes"/>
      <point x="526" y="60"/>
      <point x="369" y="-1"/>
      <point x="212" y="-9" type="curve"/>
    </contour>
    <contour>
      <point x="340" y="409" type="curve"/>
      <point x="372" y="513" type="line"/>
      <point x="414" y="519"/>
      <point x="477" y="531"/>
      <point x="489" y="581" type="curve" smooth="yes"/>
      <point x="498" y="615"/>
      <point x="476" y="639"/>
      <point x="442" y="639" type="curve" smooth="yes"/>
      <point x="400" y="639"/>
      <point x="364" y="618"/>
      <point x="351" y="580" type="curve" smooth="yes"/>
      <point x="150" y="0" type="line"/>
      <point x="-15" y="0" type="line"/>
      <point x="191" y="607" type="line" smooth="yes"/>
      <point x="232" y="726"/>
      <point x="352" y="798"/>
      <point x="479" y="798" type="curve" smooth="yes"/>
      <point x="592" y="798"/>
      <point x="695" y="728"/>
      <point x="659" y="605" type="curve" smooth="yes"/>
      <point x="619" y="464"/>
      <point x="472" y="416"/>
    </contour>
  </outline>
</glyph>
<glyph name="agrave" format="1">
  <advance width="531"/>
  <unicode hex="00E0"/>
  <outline>
    <contour>
      <point x="180" y="137" type="curve" smooth="yes"/>
      <point x="174" y="114"/>
      <point x="193" y="102"/>
      <point x="212" y="100" type="curve" smooth="yes"/>
      <point x="269" y="95"/>
      <point x="307" y="146"/>
      <point x="334" y="187" type="curve"/>
      <point x="332" y="128" type="line"/>
      <point x="294" y="47"/>
      <point x="225" y="-8"/>
      <point x="133" y="-9" type="curve" smooth="yes"/>
      <point x="51" y="-10"/>
      <point x="-18" y="42"/>
      <point x="7" y="130" type="curve" smooth="yes"/>
      <point x="35" y="227"/>
      <point x="144" y="275"/>
      <point x="238" y="276" type="curve" smooth="yes"/>
      <point x="292" y="277"/>
      <point x="340" y="263"/>
      <point x="382" y="230" type="curve"/>
      <point x="358" y="153" type="line"/>
      <point x="331" y="174"/>
      <point x="305" y="189"/>
      <point x="269" y="187" type="curve" smooth="yes"/>
      <point x="240" y="185"/>
      <point x="189" y="169"/>
    </contour>
    <contour>
      <point x="168" y="306" type="curve"/>
      <point x="146" y="424" type="line"/>
      <point x="216" y="451"/>
      <point x="290" y="474"/>
      <point x="366" y="474" type="curve" smooth="yes"/>
      <point x="458" y="474"/>
      <point x="566" y="433"/>
      <point x="540" y="322" type="curve"/>
      <point x="431" y="0" type="line"/>
      <point x="266" y="0" type="line"/>
      <point x="368" y="282" type="line"/>
      <point x="375" y="318"/>
      <point x="361" y="336"/>
      <point x="324" y="341" type="curve" smooth="yes"/>
      <point x="272" y="347"/>
      <point x="216" y="324"/>
    </contour>
    <contour>
      <point x="284" y="690" type="line"/>
      <point x="417" y="742" type="line"/>
      <point x="509" y="575" type="line"/>
      <point x="408" y="534" type="line"/>
    </contour>
  </outline>
</glyph>
<glyph name="atilde" format="1">
  <advance width="530"/>
  <unicode hex="00E3"/>
  <outline>
    <contour>
      <point x="180" y="137" type="curve" smooth="yes"/>
      <point x="174" y="114"/>
      <point x="192" y="102"/>
      <point x="212" y="100" type="curve" smooth="yes"/>
      <point x="268" y="95"/>
      <point x="307" y="146"/>
      <point x="334" y="188" type="curve"/>
      <point x="332" y="128" type="line"/>
      <point x="295" y="47"/>
      <point x="226" y="-8"/>
      <point x="134" y="-9" type="curve" smooth="yes"/>
      <point x="51" y="-10"/>
      <point x="-18" y="42"/>
      <point x="7" y="130" type="curve" smooth="yes"/>
      <point x="35" y="227"/>
      <point x="144" y="275"/>
      <point x="238" y="276" type="curve" smooth="yes"/>
      <point x="292" y="277"/>
      <point x="339" y="262"/>
      <point x="382" y="230" type="curve"/>
      <point x="358" y="153" type="line"/>
      <point x="331" y="174"/>
      <point x="306" y="189"/>
      <point x="270" y="187" type="curve" smooth="yes"/>
      <point x="241" y="185"/>
      <point x="189" y="169"/>
    </contour>
    <contour>
      <point x="168" y="306" type="curve"/>
      <point x="146" y="425" type="line"/>
      <point x="216" y="451"/>
      <point x="290" y="474"/>
      <point x="366" y="474" type="curve" smooth="yes"/>
      <point x="458" y="474"/>
      <point x="567" y="432"/>
      <point x="540" y="321" type="curve"/>
      <point x="431" y="0" type="line"/>
      <point x="266" y="0" type="line"/>
      <point x="368" y="282" type="line"/>
      <point x="375" y="317"/>
      <point x="361" y="336"/>
      <point x="324" y="341" type="curve" smooth="yes"/>
      <point x="272" y="347"/>
      <point x="216" y="324"/>
    </contour>
    <contour>
      <point x="226" y="614" type="line"/>
      <point x="259" y="661"/>
      <point x="307" y="711"/>
      <point x="369" y="708" type="curve" smooth="yes"/>
      <point x="413" y="706"/>
      <point x="440" y="654"/>
      <point x="484" y="657" type="curve" smooth="yes"/>
      <point x="518" y="659"/>
      <point x="545" y="689"/>
      <point x="569" y="710" type="curve"/>
      <point x="625" y="621" type="line"/>
      <point x="587" y="580"/>
      <point x="528" y="531"/>
      <point x="467" y="536" type="curve" smooth="yes"/>
      <point x="423" y="540"/>
      <point x="393" y="596"/>
      <point x="348" y="589" type="curve" smooth="yes"/>
      <point x="319" y="584"/>
      <point x="302" y="561"/>
      <point x="285" y="540" type="curve"/>
    </contour>
  </outline>
</glyph>
<glyph name="adieresis" format="1">
  <advance width="530"/>
  <unicode hex="00E4"/>
  <outline>
    <contour>
      <point x="180" y="137" type="curve" smooth="yes"/>
      <point x="174" y="114"/>
      <point x="192" y="102"/>
      <point x="212" y="100" type="curve" smooth="yes"/>
      <point x="268" y="95"/>
      <point x="307" y="146"/>
      <point x="334" y="188" type="curve"/>
      <point x="332" y="128" type="line"/>
      <point x="295" y="47"/>
      <point x="226" y="-8"/>
      <point x="134" y="-9" type="curve" smooth="yes"/>
      <point x="51" y="-10"/>
      <point x="-18" y="42"/>
      <point x="7" y="130" type="curve" smooth="yes"/>
      <point x="35" y="227"/>
      <point x="144" y="275"/>
      <point x="238" y="276" type="curve" smooth="yes"/>
      <point x="292" y="277"/>
      <point x="339" y="262"/>
      <point x="382" y="230" type="curve"/>
      <point x="358" y="153" type="line"/>
      <point x="331" y="174"/>
      <point x="306" y="189"/>
      <point x="270" y="187" type="curve" smooth="yes"/>
      <point x="241" y="185"/>
      <point x="189" y="169"/>
    </contour>
    <contour>
      <point x="168" y="306" type="curve"/>
      <point x="146" y="425" type="line"/>
      <point x="216" y="451"/>
      <point x="290" y="474"/>
      <point x="366" y="474" type="curve" smooth="yes"/>
      <point x="458" y="474"/>
      <point x="567" y="432"/>
      <point x="540" y="321" type="curve"/>
      <point x="431" y="0" type="line"/>
      <point x="266" y="0" type="line"/>
      <point x="368" y="282" type="line"/>
      <point x="375" y="317"/>
      <point x="361" y="336"/>
      <point x="324" y="341" type="curve" smooth="yes"/>
      <point x="272" y="347"/>
      <point x="216" y="324"/>
    </contour>
    <contour>
      <point x="455" y="628" type="curve" smooth="yes"/>
      <point x="469" y="676"/>
      <point x="523" y="716"/>
      <point x="573" y="716" type="curve" smooth="yes"/>
      <point x="623" y="716"/>
      <point x="660" y="673"/>
      <point x="646" y="623" type="curve" smooth="yes"/>
      <point x="632" y="575"/>
      <point x="577" y="535"/>
      <point x="527" y="535" type="curve" smooth="yes"/>
      <point x="476" y="535"/>
      <point x="441" y="578"/>
    </contour>
    <contour>
      <point x="211" y="628" type="curve" smooth="yes"/>
      <point x="225" y="676"/>
      <point x="280" y="716"/>
      <point x="330" y="716" type="curve" smooth="yes"/>
      <point x="380" y="716"/>
      <point x="416" y="673"/>
      <point x="402" y="623" type="curve" smooth="yes"/>
      <point x="388" y="575"/>
      <point x="333" y="535"/>
      <point x="283" y="535" type="curve" smooth="yes"/>
      <point x="233" y="535"/>
      <point x="197" y="578"/>
    </contour>
  </outline>
</glyph>
<glyph name="aring" format="1">
  <advance width="530"/>
  <unicode hex="00E5"/>
  <outline>
    <contour>
      <point x="180" y="137" type="curve" smooth="yes"/>
      <point x="174" y="114"/>
      <point x="192" y="102"/>
      <point x="212" y="100" type="curve" smooth="yes"/>
      <point x="268" y="95"/>
      <point x="307" y="146"/>
      <point x="334" y="188" type="curve"/>
      <point x="332" y="128" type="line"/>
      <point x="295" y="47"/>
      <point x="226" y="-8"/>
      <point x="134" y="-9" type="curve" smooth="yes"/>
      <point x="51" y="-10"/>
      <point x="-18" y="42"/>
      <point x="7" y="130" type="curve" smooth="yes"/>
      <point x="35" y="227"/>
      <point x="144" y="275"/>
      <point x="238" y="276" type="curve" smooth="yes"/>
      <point x="292" y="277"/>
      <point x="339" y="262"/>
      <point x="382" y="230" type="curve"/>
      <point x="358" y="153" type="line"/>
      <point x="331" y="174"/>
      <point x="306" y="189"/>
      <point x="270" y="187" type="curve" smooth="yes"/>
      <point x="241" y="185"/>
      <point x="189" y="169"/>
    </contour>
    <contour>
      <point x="168" y="306" type="curve"/>
      <point x="146" y="425" type="line"/>
      <point x="216" y="451"/>
      <point x="290" y="474"/>
      <point x="366" y="474" type="curve" smooth="yes"/>
      <point x="458" y="474"/>
      <point x="567" y="432"/>
      <point x="540" y="321" type="curve"/>
      <point x="431" y="0" type="line"/>
      <point x="266" y="0" type="line"/>
      <point x="368" y="282" type="line"/>
      <point x="375" y="317"/>
      <point x="361" y="336"/>
      <point x="324" y="341" type="curve" smooth="yes"/>
      <point x="272" y="347"/>
      <point x="216" y="324"/>
    </contour>
    <contour>
      <point x="310" y="658" type="curve" smooth="yes"/>
      <point x="329" y="724"/>
      <point x="401" y="775"/>
      <point x="469" y="775" type="curve" smooth="yes"/>
      <point x="537" y="775"/>
      <point x="585" y="721"/>
      <point x="566" y="654" type="curve" smooth="yes"/>
      <point x="547" y="587"/>
      <point x="474" y="535"/>
      <point x="405" y="535" type="curve" smooth="yes"/>
      <point x="337" y="535"/>
      <point x="291" y="591"/>
    </contour>
    <contour>
      <point x="396" y="654" type="curve" smooth="yes"/>
      <point x="391" y="638"/>
      <point x="398" y="613"/>
      <point x="417" y="611" type="curve" smooth="yes"/>
      <point x="439" y="609"/>
      <point x="473" y="638"/>
      <point x="480" y="657" type="curve" smooth="yes"/>
      <point x="485" y="673"/>
      <point x="478" y="698"/>
      <point x="459" y="700" type="curve" smooth="yes"/>
      <point x="437" y="702"/>
      <point x="403" y="673"/>
    </contour>
  </outline>
</glyph>
<glyph name="ae" format="1">
  <advance width="865"/>
  <unicode hex="00E6"/>
  <outline>
    <contour>
      <point x="179" y="137" type="curve" smooth="yes"/>
      <point x="172" y="114"/>
      <point x="191" y="102"/>
      <point x="211" y="100" type="curve" smooth="yes"/>
      <point x="267" y="95"/>
      <point x="303" y="146"/>
      <point x="328" y="188" type="curve"/>
      <point x="392" y="127" type="line"/>
      <point x="348" y="32"/>
      <point x="264" y="-10"/>
      <point x="161" y="-9" type="curve" smooth="yes"/>
      <point x="78" y="-9"/>
      <point x="-21" y="30"/>
      <point x="7" y="130" type="curve" smooth="yes"/>
      <point x="34" y="227"/>
      <point x="145" y="275"/>
      <point x="238" y="276" type="curve" smooth="yes"/>
      <point x="292" y="277"/>
      <point x="339" y="262"/>
      <point x="382" y="230" type="curve"/>
      <point x="358" y="153" type="line"/>
      <point x="331" y="174"/>
      <point x="304" y="189"/>
      <point x="268" y="187" type="curve" smooth="yes"/>
      <point x="239" y="185"/>
      <point x="188" y="169"/>
    </contour>
    <contour>
      <point x="168" y="306" type="curve"/>
      <point x="146" y="425" type="line"/>
      <point x="215" y="451"/>
      <point x="290" y="475"/>
      <point x="366" y="474" type="curve" smooth="yes"/>
      <point x="465" y="472"/>
      <point x="507" y="417"/>
      <point x="481" y="321" type="curve"/>
      <point x="418" y="130" type="line"/>
      <point x="310" y="131" type="line"/>
      <point x="368" y="280" type="line"/>
      <point x="376" y="315"/>
      <point x="361" y="336"/>
      <point x="325" y="341" type="curve" smooth="yes"/>
      <point x="273" y="348"/>
      <point x="216" y="324"/>
    </contour>
    <contour>
      <point x="412" y="194" type="line"/>
      <point x="439" y="283" type="line"/>
      <point x="864" y="283" type="line"/>
      <point x="849" y="193" type="line"/>
    </contour>
    <contour>
      <point x="690" y="241" type="line" smooth="yes"/>
      <point x="702" y="279"/>
      <point x="724" y="350"/>
      <point x="664" y="356" type="curve" smooth="yes"/>
      <point x="604" y="362"/>
      <point x="563" y="297"/>
      <point x="540" y="251" type="curve" smooth="yes"/>
      <point x="529" y="229" type="line"/>
      <point x="512" y="185"/>
      <point x="503" y="120"/>
      <point x="565" y="113" type="curve" smooth="yes"/>
      <point x="608" y="108"/>
      <point x="648" y="136"/>
      <point x="680" y="161" type="curve"/>
      <point x="830" y="128" type="line"/>
      <point x="758" y="46"/>
      <point x="662" y="-10"/>
      <point x="550" y="-10" type="curve" smooth="yes"/>
      <point x="404" y="-9"/>
      <point x="358" y="100"/>
      <point x="399" y="230" type="curve" smooth="yes"/>
      <point x="404" y="247"/>
      <point x="412" y="263"/>
      <point x="419" y="279" type="curve" smooth="yes"/>
      <point x="474" y="390"/>
      <point x="585" y="470"/>
      <point x="711" y="470" type="curve" smooth="yes"/>
      <point x="847" y="470"/>
      <point x="898" y="359"/>
      <point x="865" y="238" type="curve" smooth="yes"/>
      <point x="861" y="223"/>
      <point x="856" y="209"/>
      <point x="851" y="194" type="curve"/>
      <point x="680" y="215" type="line"/>
    </contour>
  </outline>
</glyph>
<glyph name="ccedilla" format="1">
  <advance width="469"/>
  <unicode hex="00E7"/>
  <outline>
    <contour>
      <point x="225" y="229" type="curve" smooth="yes"/>
      <point x="206" y="178"/>
      <point x="227" y="132"/>
      <point x="284" y="129" type="curve" smooth="yes"/>
      <point x="338" y="125"/>
      <point x="388" y="158"/>
      <point x="430" y="188" type="curve"/>
      <point x="383" y="25" type="line"/>
      <point x="338" y="4"/>
      <point x="291" y="-10"/>
      <point x="241" y="-10" type="curve" smooth="yes"/>
      <point x="104" y="-10"/>
      <point x="8" y="93"/>
      <point x="49" y="231" type="curve" smooth="yes"/>
      <point x="92" y="374"/>
      <point x="237" y="470"/>
      <point x="383" y="470" type="curve" smooth="yes"/>
      <point x="431" y="470"/>
      <point x="474" y="456"/>
      <point x="516" y="435" type="curve"/>
      <point x="467" y="271" type="line"/>
      <point x="445" y="308"/>
      <point x="419" y="334"/>
      <point x="374" y="333" type="curve" smooth="yes"/>
      <point x="314" y="332"/>
      <point x="246" y="285"/>
    </contour>
    <contour>
      <point x="176" y="60" type="line"/>
      <point x="310" y="55" type="line"/>
      <point x="169" y="-70" type="line"/>
      <point x="181" y="-67"/>
      <point x="195" y="-65"/>
      <point x="207" y="-66" type="curve" smooth="yes"/>
      <point x="263" y="-70"/>
      <point x="289" y="-120"/>
      <point x="274" y="-172" type="curve" smooth="yes"/>
      <point x="254" y="-241"/>
      <point x="177" y="-280"/>
      <point x="110" y="-283" type="curve" smooth="yes"/>
      <point x="55" y="-286"/>
      <point x="7" y="-267"/>
      <point x="-41" y="-241" type="curve"/>
      <point x="27" y="-168" type="line"/>
      <point x="49" y="-181"/>
      <point x="72" y="-193"/>
      <point x="99" y="-192" type="curve" smooth="yes"/>
      <point x="117" y="-191"/>
      <point x="168" y="-178"/>
      <point x="171" y="-155" type="curve" smooth="yes"/>
      <point x="174" y="-134"/>
      <point x="141" y="-128"/>
      <point x="128" y="-127" type="curve" smooth="yes"/>
      <point x="96" y="-125"/>
      <point x="62" y="-134"/>
      <point x="30" y="-140" type="curve"/>
    </contour>
  </outline>
</glyph>
<glyph name="egrave" format="1">
  <advance width="559"/>
  <unicode hex="00E8"/>
  <outline>
    <contour>
      <point x="134" y="194" type="line"/>
      <point x="162" y="282" type="line"/>
      <point x="389" y="284" type="line"/>
      <point x="393" y="316"/>
      <point x="396" y="353"/>
      <point x="354" y="357" type="curve" smooth="yes"/>
      <point x="293" y="362"/>
      <point x="255" y="296"/>
      <point x="232" y="251" type="curve" smooth="yes"/>
      <point x="221" y="229" type="line"/>
      <point x="203" y="185"/>
      <point x="196" y="120"/>
      <point x="257" y="113" type="curve" smooth="yes"/>
      <point x="300" y="108"/>
      <point x="340" y="136"/>
      <point x="372" y="161" type="curve"/>
      <point x="523" y="129" type="line"/>
      <point x="451" y="46"/>
      <point x="356" y="-10"/>
      <point x="243" y="-10" type="curve" smooth="yes"/>
      <point x="101" y="-10"/>
      <point x="10" y="88"/>
      <point x="51" y="230" type="curve" smooth="yes"/>
      <point x="56" y="247"/>
      <point x="62" y="263"/>
      <point x="69" y="279" type="curve" smooth="yes"/>
      <point x="125" y="398"/>
      <point x="248" y="470"/>
      <point x="378" y="470" type="curve" smooth="yes"/>
      <point x="519" y="470"/>
      <point x="594" y="375"/>
      <point x="558" y="238" type="curve" smooth="yes"/>
      <point x="554" y="223"/>
      <point x="549" y="209"/>
      <point x="544" y="194" type="curve"/>
    </contour>
    <contour>
      <point x="300" y="688" type="line"/>
      <point x="434" y="740" type="line"/>
      <point x="525" y="573" type="line"/>
      <point x="425" y="532" type="line"/>
    </contour>
  </outline>
</glyph>
<glyph name="eacute" format="1">
  <advance width="558"/>
  <unicode hex="00E9"/>
  <outline>
    <contour>
      <point x="134" y="194" type="line"/>
      <point x="162" y="282" type="line"/>
      <point x="389" y="284" type="line"/>
      <point x="393" y="316"/>
      <point x="396" y="353"/>
      <point x="354" y="357" type="curve" smooth="yes"/>
      <point x="294" y="363"/>
      <point x="255" y="296"/>
      <point x="232" y="251" type="curve" smooth="yes"/>
      <point x="221" y="229" type="line"/>
      <point x="204" y="185"/>
      <point x="196" y="120"/>
      <point x="257" y="113" type="curve" smooth="yes"/>
      <point x="300" y="108"/>
      <point x="340" y="136"/>
      <point x="372" y="161" type="curve"/>
      <point x="523" y="128" type="line"/>
      <point x="451" y="45"/>
      <point x="356" y="-10"/>
      <point x="243" y="-10" type="curve" smooth="yes"/>
      <point x="101" y="-10"/>
      <point x="10" y="88"/>
      <point x="51" y="230" type="curve" smooth="yes"/>
      <point x="56" y="247"/>
      <point x="62" y="263"/>
      <point x="69" y="279" type="curve" smooth="yes"/>
      <point x="125" y="398"/>
      <point x="248" y="470"/>
      <point x="378" y="470" type="curve" smooth="yes"/>
      <point x="519" y="470"/>
      <point x="594" y="375"/>
      <point x="558" y="238" type="curve" smooth="yes"/>
      <point x="554" y="223"/>
      <point x="549" y="209"/>
      <point x="544" y="194" type="curve"/>
    </contour>
    <contour>
      <point x="631" y="676" type="line"/>
      <point x="417" y="533" type="line"/>
      <point x="327" y="586" type="line"/>
      <point x="516" y="738" type="line"/>
    </contour>
  </outline>
</glyph>
<glyph name="ecircumflex" format="1">
  <advance width="558"/>
  <unicode hex="00EA"/>
  <outline>
    <contour>
      <point x="134" y="194" type="line"/>
      <point x="162" y="282" type="line"/>
      <point x="389" y="284" type="line"/>
      <point x="393" y="316"/>
      <point x="396" y="353"/>
      <point x="354" y="357" type="curve" smooth="yes"/>
      <point x="294" y="363"/>
      <point x="255" y="296"/>
      <point x="232" y="251" type="curve" smooth="yes"/>
      <point x="221" y="229" type="line"/>
      <point x="204" y="185"/>
      <point x="196" y="120"/>
      <point x="257" y="113" type="curve" smooth="yes"/>
      <point x="300" y="108"/>
      <point x="340" y="136"/>
      <point x="372" y="161" type="curve"/>
      <point x="523" y="128" type="line"/>
      <point x="451" y="45"/>
      <point x="356" y="-10"/>
      <point x="243" y="-10" type="curve" smooth="yes"/>
      <point x="101" y="-10"/>
      <point x="10" y="88"/>
      <point x="51" y="230" type="curve" smooth="yes"/>
      <point x="56" y="247"/>
      <point x="62" y="263"/>
      <point x="69" y="279" type="curve" smooth="yes"/>
      <point x="125" y="398"/>
      <point x="248" y="470"/>
      <point x="378" y="470" type="curve" smooth="yes"/>
      <point x="519" y="470"/>
      <point x="594" y="375"/>
      <point x="558" y="238" type="curve" smooth="yes"/>
      <point x="554" y="223"/>
      <point x="549" y="209"/>
      <point x="544" y="194" type="curve"/>
    </contour>
    <contour>
      <point x="446" y="611" type="line"/>
      <point x="339" y="531" type="line"/>
      <point x="240" y="619" type="line"/>
      <point x="477" y="753" type="line"/>
      <point x="636" y="607" type="line"/>
      <point x="497" y="529" type="line"/>
    </contour>
  </outline>
</glyph>
<glyph name="edieresis" format="1">
  <advance width="559"/>
  <unicode hex="00EB"/>
  <outline>
    <contour>
      <point x="134" y="194" type="line"/>
      <point x="162" y="282" type="line"/>
      <point x="389" y="284" type="line"/>
      <point x="393" y="316"/>
      <point x="396" y="353"/>
      <point x="354" y="357" type="curve" smooth="yes"/>
      <point x="293" y="362"/>
      <point x="255" y="296"/>
      <point x="232" y="251" type="curve" smooth="yes"/>
      <point x="221" y="229" type="line"/>
      <point x="203" y="185"/>
      <point x="196" y="120"/>
      <point x="257" y="113" type="curve" smooth="yes"/>
      <point x="300" y="108"/>
      <point x="340" y="136"/>
      <point x="372" y="161" type="curve"/>
      <point x="523" y="129" type="line"/>
      <point x="451" y="46"/>
      <point x="356" y="-10"/>
      <point x="243" y="-10" type="curve" smooth="yes"/>
      <point x="101" y="-10"/>
      <point x="10" y="88"/>
      <point x="51" y="230" type="curve" smooth="yes"/>
      <point x="56" y="247"/>
      <point x="62" y="263"/>
      <point x="69" y="279" type="curve" smooth="yes"/>
      <point x="125" y="398"/>
      <point x="248" y="470"/>
      <point x="378" y="470" type="curve" smooth="yes"/>
      <point x="519" y="470"/>
      <point x="594" y="375"/>
      <point x="558" y="238" type="curve" smooth="yes"/>
      <point x="554" y="223"/>
      <point x="549" y="209"/>
      <point x="544" y="194" type="curve"/>
    </contour>
    <contour>
      <point x="467" y="625" type="curve" smooth="yes"/>
      <point x="481" y="674"/>
      <point x="537" y="713"/>
      <point x="587" y="713" type="curve" smooth="yes"/>
      <point x="638" y="713"/>
      <point x="673" y="670"/>
      <point x="659" y="619" type="curve" smooth="yes"/>
      <point x="645" y="570"/>
      <point x="589" y="532"/>
      <point x="539" y="532" type="curve" smooth="yes"/>
      <point x="488" y="532"/>
      <point x="453" y="574"/>
    </contour>
    <contour>
      <point x="223" y="625" type="curve" smooth="yes"/>
      <point x="237" y="674"/>
      <point x="293" y="713"/>
      <point x="343" y="713" type="curve" smooth="yes"/>
      <point x="394" y="713"/>
      <point x="429" y="670"/>
      <point x="415" y="619" type="curve" smooth="yes"/>
      <point x="401" y="570"/>
      <point x="346" y="532"/>
      <point x="296" y="532" type="curve" smooth="yes"/>
      <point x="245" y="532"/>
      <point x="209" y="574"/>
    </contour>
  </outline>
</glyph>
<glyph name="igrave" format="1">
  <advance width="264"/>
  <unicode hex="00EC"/>
  <outline>
    <contour>
      <point x="152" y="460" type="line"/>
      <point x="319" y="460" type="line"/>
      <point x="161" y="0" type="line"/>
      <point x="-5" y="0" type="line"/>
    </contour>
    <contour>
      <point x="137" y="689" type="line"/>
      <point x="270" y="742" type="line"/>
      <point x="362" y="574" type="line"/>
      <point x="261" y="534" type="line"/>
    </contour>
  </outline>
</glyph>
<glyph name="iacute" format="1">
  <advance width="264"/>
  <unicode hex="00ED"/>
  <outline>
    <contour>
      <point x="152" y="460" type="line"/>
      <point x="319" y="460" type="line"/>
      <point x="161" y="0" type="line"/>
      <point x="-5" y="0" type="line"/>
    </contour>
    <contour>
      <point x="480" y="677" type="line"/>
      <point x="266" y="535" type="line"/>
      <point x="176" y="587" type="line"/>
      <point x="366" y="739" type="line"/>
    </contour>
  </outline>
</glyph>
<glyph name="icircumflex" format="1">
  <advance width="281"/>
  <unicode hex="00EE"/>
  <outline>
    <contour>
      <point x="137" y="460" type="line"/>
      <point x="305" y="460" type="line"/>
      <point x="224" y="0" type="line"/>
      <point x="56" y="0" type="line"/>
    </contour>
    <contour>
      <point x="249" y="616" type="line"/>
      <point x="148" y="532" type="line"/>
      <point x="39" y="614" type="line"/>
      <point x="273" y="754" type="line"/>
      <point x="456" y="614" type="line"/>
      <point x="320" y="532" type="line"/>
    </contour>
  </outline>
</glyph>
<glyph name="idieresis" format="1">
  <advance width="265"/>
  <unicode hex="00EF"/>
  <outline>
    <contour>
      <point x="152" y="460" type="line"/>
      <point x="319" y="460" type="line"/>
      <point x="161" y="0" type="line"/>
      <point x="-5" y="0" type="line"/>
    </contour>
    <contour>
      <point x="318" y="630" type="curve" smooth="yes"/>
      <point x="332" y="679"/>
      <point x="388" y="717"/>
      <point x="438" y="717" type="curve" smooth="yes"/>
      <point x="489" y="717"/>
      <point x="524" y="675"/>
      <point x="510" y="624" type="curve" smooth="yes"/>
      <point x="496" y="575"/>
      <point x="441" y="536"/>
      <point x="391" y="536" type="curve" smooth="yes"/>
      <point x="340" y="536"/>
      <point x="304" y="579"/>
    </contour>
    <contour>
      <point x="74" y="630" type="curve" smooth="yes"/>
      <point x="88" y="679"/>
      <point x="144" y="717"/>
      <point x="194" y="717" type="curve" smooth="yes"/>
      <point x="245" y="717"/>
      <point x="281" y="675"/>
      <point x="267" y="624" type="curve" smooth="yes"/>
      <point x="253" y="575"/>
      <point x="197" y="536"/>
      <point x="147" y="536" type="curve" smooth="yes"/>
      <point x="96" y="536"/>
      <point x="60" y="579"/>
    </contour>
  </outline>
</glyph>
<glyph name="eth" format="1">
  <advance width="660"/>
  <unicode hex="00F0"/>
  <outline>
    <contour>
      <point x="459" y="252" type="curve" smooth="yes"/>
      <point x="477" y="298"/>
      <point x="462" y="352"/>
      <point x="406" y="354" type="curve" smooth="yes"/>
      <point x="347" y="357"/>
      <point x="285" y="303"/>
      <point x="265" y="250" type="curve" smooth="yes"/>
      <point x="247" y="203"/>
      <point x="263" y="153"/>
      <point x="318" y="151" type="curve" smooth="yes"/>
      <point x="376" y="149"/>
      <point x="439" y="199"/>
    </contour>
    <contour>
      <point x="524" y="696" type="line"/>
      <point x="625" y="463" type="line" smooth="yes"/>
      <point x="654" y="395"/>
      <point x="670" y="324"/>
      <point x="648" y="251" type="curve" smooth="yes"/>
      <point x="601" y="93"/>
      <point x="445" y="-18"/>
      <point x="281" y="-18" type="curve" smooth="yes"/>
      <point x="125" y="-18"/>
      <point x="27" y="100"/>
      <point x="75" y="252" type="curve" smooth="yes"/>
      <point x="112" y="369"/>
      <point x="225" y="476"/>
      <point x="352" y="480" type="curve" smooth="yes"/>
      <point x="400" y="482"/>
      <point x="431" y="461"/>
      <point x="465" y="430" type="curve"/>
      <point x="432" y="454" type="line"/>
      <point x="299" y="696" type="line"/>
    </contour>
    <contour>
      <point x="247" y="521" type="line"/>
      <point x="272" y="602" type="line"/>
      <point x="734" y="602" type="line"/>
      <point x="708" y="521" type="line"/>
    </contour>
  </outline>
</glyph>
<glyph name="ntilde" format="1">
  <advance width="590"/>
  <unicode hex="00F1"/>
  <outline>
    <contour>
      <point x="309" y="460" type="line"/>
      <point x="228" y="0" type="line"/>
      <point x="55" y="0" type="line"/>
      <point x="136" y="460" type="line"/>
    </contour>
    <contour>
      <point x="403" y="280" type="line" smooth="yes"/>
      <point x="411" y="328"/>
      <point x="404" y="355"/>
      <point x="359" y="355" type="curve" smooth="yes"/>
      <point x="317" y="355"/>
      <point x="286" y="330"/>
      <point x="277" y="280" type="curve"/>
      <point x="248" y="272" type="line"/>
      <point x="267" y="381"/>
      <point x="333" y="470"/>
      <point x="453" y="470" type="curve" smooth="yes"/>
      <point x="573" y="470"/>
      <point x="608" y="408"/>
      <point x="589" y="298" type="curve" smooth="yes"/>
      <point x="536" y="0" type="line"/>
      <point x="354" y="0" type="line"/>
    </contour>
    <contour>
      <point x="197" y="605" type="line"/>
      <point x="216" y="654"/>
      <point x="268" y="704"/>
      <point x="338" y="704" type="curve" smooth="yes"/>
      <point x="404" y="704"/>
      <point x="412" y="650"/>
      <point x="469" y="650" type="curve" smooth="yes"/>
      <point x="497" y="650"/>
      <point x="520" y="672"/>
      <point x="546" y="704" type="curve"/>
      <point x="610" y="621" type="line"/>
      <point x="587" y="584"/>
      <point x="518" y="532"/>
      <point x="452" y="532" type="curve" smooth="yes"/>
      <point x="397" y="532"/>
      <point x="368" y="587"/>
      <point x="317" y="587" type="curve" smooth="yes"/>
      <point x="280" y="587"/>
      <point x="264" y="551"/>
      <point x="261" y="536" type="curve"/>
    </contour>
  </outline>
</glyph>
<glyph name="oacute" format="1">
  <advance width="568"/>
  <unicode hex="00F3"/>
  <outline>
    <contour>
      <point x="50" y="231" type="curve" smooth="yes"/>
      <point x="92" y="371"/>
      <point x="235" y="471"/>
      <point x="380" y="471" type="curve" smooth="yes"/>
      <point x="517" y="471"/>
      <point x="609" y="364"/>
      <point x="568" y="229" type="curve" smooth="yes"/>
      <point x="526" y="89"/>
      <point x="383" y="-10"/>
      <point x="238" y="-10" type="curve" smooth="yes"/>
      <point x="101" y="-10"/>
      <point x="9" y="96"/>
    </contour>
    <contour>
      <point x="225" y="229" type="curve" smooth="yes"/>
      <point x="210" y="190"/>
      <point x="216" y="136"/>
      <point x="267" y="133" type="curve" smooth="yes"/>
      <point x="321" y="130"/>
      <point x="375" y="184"/>
      <point x="393" y="231" type="curve" smooth="yes"/>
      <point x="408" y="270"/>
      <point x="402" y="325"/>
      <point x="351" y="328" type="curve" smooth="yes"/>
      <point x="297" y="331"/>
      <point x="243" y="276"/>
    </contour>
    <contour>
      <point x="616" y="677" type="line"/>
      <point x="403" y="535" type="line"/>
      <point x="312" y="587" type="line"/>
      <point x="502" y="739" type="line"/>
    </contour>
  </outline>
</glyph>
